<svg width="16" height="16" viewBox="0 0 45 40" fill="none"
    xmlns="http://www.w3.org/2000/svg">
    <path d="M25.7207 25.9215C25.9304 25.6846 26.1889 25.4959 26.4784 25.3683C26.3341 25.0975 26.1207 24.8696 25.8598 24.7079C25.599 24.5462 25.3 24.4564 24.9933 24.4477H20.0984C19.4396 24.4947 18.8113 24.7434 18.2988 25.1599C15.5293 27.6491 12.5022 33.4949 11.5437 36.7304L11.5172 36.8137C11.379 37.2772 11.2864 37.753 11.2406 38.2344L16.9955 38.2799C17.2535 38.2836 17.5073 38.2145 17.7278 38.0805C17.9483 37.9465 18.1265 37.7529 18.242 37.5222C19.7991 33.0327 22.0798 29.2441 25.7207 25.9215ZM31.9757 37.507C31.8167 37.3434 31.7065 37.1387 31.6574 36.916C30.8015 32.9365 29.1579 29.1686 26.8232 25.8343C26.7382 25.7776 26.6361 25.7522 26.5345 25.7626C26.4328 25.773 26.338 25.8184 26.2662 25.8911C24.7066 27.2528 23.3163 28.797 22.1253 30.4905C23.3566 32.6405 24.2727 34.9563 24.8455 37.3668C24.9034 37.6263 25.0471 37.8586 25.2533 38.0264C25.4595 38.1941 25.7163 38.2874 25.9821 38.2913H29.9525C31.0171 38.2913 31.7597 38.3178 32.7372 37.8897C32.4484 37.8486 32.181 37.7142 31.9757 37.507ZM31.9984 3.45881C28.9716 6.19148 26.5238 9.50368 24.8 13.1993C24.7659 13.3357 24.8 13.4986 25.1334 13.6161C27.0965 14.2818 29.1311 14.7141 31.1952 14.9042C32.434 12.7663 33.9727 10.8168 35.7643 9.1152C35.9623 8.93324 36.0924 8.68917 36.1331 8.42329C36.1737 8.15741 36.1225 7.88561 35.9878 7.65279L34.0025 4.21653C33.4229 3.22013 33.063 2.5306 32.0363 1.85244C32.1447 1.95819 32.2298 2.0855 32.286 2.22616C32.3422 2.36683 32.3683 2.51771 32.3626 2.66908C32.3569 2.82045 32.3195 2.96894 32.2528 3.10496C32.1862 3.24099 32.0918 3.36153 31.9757 3.45881H31.9984ZM15.0027 20.8258C15.0057 20.8636 15.0057 20.9016 15.0027 20.9394C15.0269 21.0685 15.0069 21.202 14.9459 21.3183C15.4876 21.2653 16.0559 21.2236 16.5295 20.4848L18.9807 16.2416C19.269 15.6479 19.3682 14.9801 19.2649 14.3283C18.5072 10.6875 14.9345 5.14095 12.6197 2.69351H12.6007L12.5363 2.62532C12.2045 2.27319 11.8376 1.95583 11.4414 1.67816L8.52796 6.63745C8.3956 6.86062 8.33023 7.11714 8.33964 7.37644C8.34904 7.63574 8.43282 7.88686 8.58101 8.09985C11.8051 11.8165 13.9874 15.8097 15.0027 20.8258ZM12.8849 2.34496L12.9455 2.41315H12.9644C14.5882 4.23474 16.0085 6.22796 17.2001 8.35747C20.5779 8.94819 24.0385 8.87354 27.3877 8.13773C28.6425 6.35198 30.098 4.71598 31.7256 3.2618C31.8186 3.17463 31.8928 3.0693 31.9435 2.95233C31.9942 2.83536 32.0203 2.70923 32.0203 2.58174C32.0203 2.45426 31.9942 2.32813 31.9435 2.21116C31.8928 2.09419 31.8186 1.98886 31.7256 1.90169C28.7213 2.28055 19.765 3.58004 12.5174 1.9661C12.6689 2.11006 12.8053 2.24266 12.8962 2.34496H12.8849ZM10.0813 21.7881C7.47073 21.7121 4.88186 21.2891 2.38285 20.5303C2.26047 20.4901 2.13137 20.4745 2.00295 20.4844C1.87453 20.4943 1.74934 20.5295 1.63456 20.588C1.51979 20.6464 1.41769 20.727 1.33415 20.825C1.25061 20.923 1.18727 21.0366 1.14776 21.1592C3.04206 23.5877 8.6833 30.5322 10.9981 37.6093C11.0474 37.3782 11.0966 37.1698 11.1307 37.0372L11.1535 36.9501C11.9765 34.2936 13.1162 31.7457 14.5481 29.3615C13.5089 26.5952 11.9975 24.0301 10.0813 21.7805V21.7881ZM42.1708 21.2122L42.0837 21.235H42.0571C39.3825 21.7849 36.6517 22.0126 33.923 21.9131C31.8936 24.1379 30.355 26.7647 29.407 29.6229C30.5609 31.9021 31.4129 34.3219 31.9415 36.8213C31.9903 37.0745 32.1371 37.2982 32.3499 37.4436C32.5628 37.5891 32.8245 37.6446 33.0781 37.5979C34.2905 34.7527 37.6548 26.4746 42.7429 21.0455C42.5193 21.1175 42.311 21.1705 42.1822 21.2046L42.1708 21.2122ZM2.42452 20.0074C6.33294 21.2722 10.457 21.7323 14.5481 21.36C14.6193 21.3236 14.6759 21.2639 14.7083 21.1908C14.7408 21.1176 14.747 21.0356 14.7261 20.9584C14.3282 18.8923 13.674 16.884 12.7788 14.98C10.2867 14.9785 7.80806 14.6134 5.4213 13.8964C5.16404 13.8174 4.88761 13.828 4.63713 13.9264C4.38666 14.0248 4.17695 14.2052 4.04225 14.4382L2.06839 17.8782C1.48873 18.8784 1.07577 19.5339 1 20.7614C1.03693 20.6139 1.10447 20.4759 1.19823 20.3562C1.29199 20.2366 1.40988 20.138 1.54423 20.0669C1.67858 19.9958 1.82638 19.9538 1.97805 19.9435C2.12971 19.9333 2.28183 19.9551 2.42452 20.0074ZM39.2536 14.7602C34.4079 15.6846 29.854 15.5748 24.997 13.9457L24.9326 13.9192C24.8886 13.9041 24.8467 13.8837 24.8076 13.8585C24.7511 13.8256 24.7041 13.7786 24.6712 13.7221C24.6482 13.6797 24.6328 13.6335 24.6257 13.5858C24.3909 14.1048 24.0954 14.6276 24.5197 15.4497L26.9671 19.693C27.3347 20.2415 27.8646 20.6614 28.4826 20.894C32.0249 22.0306 38.6057 21.7388 41.8829 20.9584H41.9094H41.9965C42.4675 20.848 42.9258 20.6893 43.3642 20.4848L40.5265 15.4838C40.4041 15.2547 40.2191 15.065 39.9931 14.9369C39.7671 14.8088 39.5093 14.7475 39.2498 14.7602H39.2536ZM111.658 1.00379H111.127V3.83009H111.658V1.00379ZM113.7 3.83009H114.23V1.00379H113.7V2.16311H111.896V2.65563H113.7V3.83009ZM115.594 1.87138L117.556 3.68991C117.642 3.78654 117.761 3.84739 117.89 3.8604C118.022 3.8604 118.091 3.76947 118.091 3.58762V1.00379H117.556V2.96629L115.594 1.14776C115.515 1.06101 115.404 1.00923 115.287 1.00379C115.256 1.00298 115.225 1.00861 115.197 1.02035C115.168 1.0321 115.142 1.04968 115.12 1.07198C115.079 1.1231 115.057 1.18783 115.06 1.25384V3.83009H115.594V1.87138ZM136.954 3.83009H137.485V2.8943L139 1H138.31L137.235 2.39421L136.098 1H135.405L136.966 2.8943L136.954 3.83009ZM108.57 3.83009H110.294V3.33757H108.57C108.426 3.34713 108.283 3.32531 108.149 3.27362C108.014 3.22193 107.893 3.14162 107.793 3.03827C107.711 2.9518 107.647 2.84933 107.606 2.73723C107.565 2.62514 107.548 2.50581 107.555 2.38663C107.561 2.15482 107.657 1.93463 107.824 1.77288C107.924 1.67708 108.043 1.60307 108.174 1.55547C108.304 1.50788 108.443 1.48774 108.581 1.49631H110.305V1.00379H108.581C108.367 0.992304 108.153 1.02468 107.951 1.09895C107.75 1.17321 107.566 1.28781 107.411 1.43569C107.287 1.56055 107.189 1.70913 107.124 1.87253C107.059 2.03593 107.028 2.21079 107.032 2.38663C107.022 2.75461 107.158 3.11157 107.411 3.37924C107.564 3.53272 107.747 3.6522 107.95 3.72989C108.152 3.80757 108.369 3.84172 108.585 3.83009H108.57ZM101.194 3.83009H101.724V1.49631H102.932V1.00379H99.9811V1.49631H101.194V3.83009ZM122.588 1.43569C122.434 1.28727 122.252 1.17226 122.051 1.09792C121.851 1.02359 121.638 0.991539 121.425 1.00379H120.568C120.354 0.991854 120.14 1.02402 119.938 1.09831C119.737 1.1726 119.553 1.28743 119.398 1.43569C119.275 1.56106 119.178 1.70973 119.113 1.87301C119.048 2.03629 119.016 2.2109 119.019 2.38663C119.013 2.56892 119.044 2.75051 119.109 2.92089C119.174 3.09127 119.272 3.24706 119.398 3.37924C119.545 3.52922 119.723 3.64676 119.919 3.72438C120.114 3.80201 120.324 3.83801 120.534 3.83009H121.391C121.601 3.83686 121.81 3.80033 122.006 3.72277C122.201 3.64521 122.379 3.52828 122.527 3.37924C122.778 3.11068 122.914 2.75433 122.906 2.38663C122.921 2.21596 122.902 2.04404 122.85 1.88081C122.798 1.71758 122.714 1.56629 122.603 1.43569H122.588ZM122.209 3.03827C122.109 3.141 121.987 3.22091 121.853 3.27255C121.719 3.3242 121.576 3.34637 121.432 3.33757H120.576C120.436 3.34364 120.296 3.32013 120.165 3.26857C120.035 3.217 119.917 3.13854 119.818 3.03827C119.736 2.95214 119.672 2.84964 119.632 2.73739C119.591 2.62513 119.575 2.50564 119.583 2.38663C119.585 2.27191 119.609 2.15863 119.655 2.05331C119.7 1.94798 119.766 1.85268 119.849 1.77288C119.95 1.67783 120.069 1.6043 120.199 1.55675C120.329 1.50921 120.468 1.48864 120.606 1.49631H121.463C121.601 1.48797 121.74 1.50822 121.87 1.5558C122.001 1.60338 122.12 1.67727 122.22 1.77288C122.303 1.85268 122.369 1.94798 122.414 2.05331C122.46 2.15863 122.484 2.27191 122.485 2.38663C122.491 2.50827 122.469 2.6296 122.423 2.74214C122.376 2.85469 122.306 2.95575 122.216 3.03827H122.209ZM128.358 3.83009H129.218C129.428 3.83801 129.638 3.80201 129.834 3.72438C130.029 3.64676 130.207 3.52922 130.354 3.37924C130.48 3.24694 130.578 3.09113 130.643 2.92077C130.708 2.75042 130.739 2.56889 130.733 2.38663C130.737 2.21082 130.706 2.03602 130.64 1.87265C130.575 1.70928 130.478 1.56068 130.354 1.43569C130.201 1.28727 130.018 1.17226 129.818 1.09792C129.618 1.02359 129.404 0.991539 129.191 1.00379H128.331C128.118 0.992379 127.904 1.0248 127.703 1.09908C127.503 1.17336 127.319 1.28791 127.164 1.43569C127.041 1.56055 126.943 1.70913 126.878 1.87253C126.813 2.03593 126.781 2.21079 126.786 2.38663C126.776 2.75454 126.912 3.11135 127.164 3.37924C127.319 3.53765 127.507 3.66012 127.715 3.73802C127.922 3.81591 128.144 3.84734 128.365 3.83009H128.358ZM127.6 1.77288C127.701 1.67727 127.82 1.60338 127.95 1.5558C128.081 1.50822 128.219 1.48797 128.358 1.49631H129.218C129.353 1.49014 129.489 1.51146 129.616 1.559C129.742 1.60653 129.859 1.67929 129.957 1.77288C130.04 1.8525 130.106 1.94768 130.152 2.05299C130.198 2.1583 130.223 2.27167 130.226 2.38663C130.234 2.50564 130.218 2.62513 130.177 2.73739C130.137 2.84964 130.073 2.95214 129.991 3.03827C129.893 3.13873 129.774 3.21732 129.644 3.2689C129.513 3.32048 129.373 3.34388 129.233 3.33757H128.373C128.233 3.34412 128.093 3.32083 127.962 3.26924C127.831 3.21764 127.713 3.13892 127.615 3.03827C127.531 2.95289 127.467 2.85059 127.426 2.73822C127.384 2.62584 127.368 2.50598 127.377 2.38663C127.375 2.15771 127.464 1.93738 127.623 1.77288H127.6ZM124.092 3.83009H126.187V3.33757H124.414C124.325 3.33757 124.241 3.30245 124.178 3.23992C124.116 3.1774 124.08 3.0926 124.08 3.00418V1H123.55V3.29589C123.547 3.36948 123.56 3.44287 123.587 3.51111C123.615 3.57935 123.657 3.64086 123.711 3.69149C123.764 3.74211 123.828 3.78068 123.898 3.80459C123.967 3.8285 124.041 3.83719 124.115 3.83009H124.092ZM104.338 2.64425H106.414V2.15553H104.338V2.64425ZM132.934 3.83009H134.878V2.26919H132.893V2.72382H134.348V3.33757H132.934C132.794 3.34412 132.654 3.32083 132.523 3.26924C132.393 3.21764 132.275 3.13892 132.177 3.03827C132.094 2.9518 132.031 2.84933 131.99 2.73723C131.949 2.62514 131.931 2.50581 131.938 2.38663C131.94 2.27167 131.965 2.1583 132.011 2.05299C132.058 1.94768 132.124 1.8525 132.207 1.77288C132.308 1.67727 132.427 1.60338 132.557 1.5558C132.687 1.50822 132.826 1.48797 132.965 1.49631H134.935V1.00379H132.965C132.751 0.992379 132.537 1.0248 132.337 1.09908C132.136 1.17336 131.953 1.28791 131.798 1.43569C131.674 1.56055 131.577 1.70913 131.511 1.87253C131.446 2.03593 131.415 2.21079 131.419 2.38663C131.409 2.75461 131.545 3.11157 131.798 3.37924C131.948 3.53213 132.129 3.65138 132.329 3.7291C132.529 3.80681 132.743 3.84124 132.957 3.83009H132.934ZM106.414 3.83009V3.33757H104.868C104.725 3.34637 104.582 3.3242 104.448 3.27255C104.313 3.22091 104.192 3.141 104.092 3.03827C104.01 2.95129 103.947 2.84875 103.906 2.73678C103.865 2.62481 103.847 2.50572 103.853 2.38663C103.861 2.15518 103.957 1.93554 104.122 1.77288C104.223 1.67801 104.342 1.6046 104.473 1.55706C104.603 1.50953 104.741 1.48886 104.88 1.49631H106.426V1.00379H104.88C104.666 0.992379 104.452 1.0248 104.252 1.09908C104.051 1.17336 103.868 1.28791 103.713 1.43569C103.589 1.56055 103.492 1.70913 103.427 1.87253C103.361 2.03593 103.33 2.21079 103.334 2.38663C103.328 2.56892 103.359 2.75051 103.424 2.92089C103.489 3.09127 103.587 3.24706 103.713 3.37924C103.861 3.52922 104.038 3.64676 104.234 3.72438C104.429 3.80201 104.639 3.83801 104.849 3.83009H106.414ZM88.7366 19.6475H92.7449V8.30065H98.6968V5.90246H82.8566V8.30065H88.7593L88.7366 19.6475ZM52.0553 19.6475C52.3204 19.649 52.581 19.5796 52.8102 19.4463C53.0394 19.3131 53.2287 19.1209 53.3586 18.8898L54.7224 16.3173H62.6785L64.463 19.674H68.2175L61.3298 6.70943C61.2029 6.47079 61.0135 6.27109 60.782 6.13163C60.5505 5.99218 60.2854 5.9182 60.0151 5.91761H56.5258L49.2176 19.6778H52.078L52.0553 19.6475ZM58.7043 8.81968L61.4055 13.9002H56.0295L58.7043 8.81968ZM73.3093 19.6475H82.0231V17.2531H75.3363C74.231 17.2531 73.171 16.8141 72.3894 16.0325C71.6079 15.2509 71.1688 14.1909 71.1688 13.0857V12.4113C71.1688 11.306 71.6079 10.246 72.3894 9.46444C73.171 8.68289 74.231 8.24382 75.3363 8.24382H82.061V5.90246H73.3472C71.6768 5.90345 70.0748 6.56616 68.8919 7.74555C67.7089 8.92493 67.0414 10.5249 67.0354 12.1953V13.3509C67.0394 15.0196 67.7041 16.6189 68.8841 17.7989C70.0641 18.9788 71.6633 19.6435 73.3321 19.6475H73.3093ZM103.508 7.36107C103.506 7.16472 103.465 6.97078 103.387 6.79037C103.31 6.60996 103.197 6.44663 103.056 6.30972C102.916 6.17282 102.749 6.06503 102.567 5.99255C102.384 5.92006 102.189 5.8843 101.993 5.88731H99.4545V19.6475H103.489L103.508 7.36107ZM118.447 5.7547H108.127C107.105 5.7577 106.125 6.16501 105.403 6.88765C104.68 7.61029 104.273 8.58954 104.27 9.6115V15.9612C104.277 16.9805 104.686 17.9559 105.408 18.6753C106.13 19.3947 107.107 19.7999 108.127 19.8029H118.451C119.473 19.7999 120.452 19.3926 121.174 18.6699C121.897 17.9473 122.304 16.968 122.307 15.9461V9.59635C122.3 8.57636 121.891 7.60042 121.168 6.88094C120.445 6.16146 119.467 5.75668 118.447 5.7547ZM117.257 16.3628C117.261 16.4278 117.252 16.493 117.23 16.5542C117.208 16.6155 117.173 16.6715 117.128 16.7188C117.084 16.7661 117.029 16.8037 116.97 16.8291C116.91 16.8545 116.845 16.8673 116.78 16.8667L109.786 16.109C109.658 16.0994 109.538 16.0419 109.45 15.9478C109.362 15.8537 109.313 15.73 109.312 15.6013V10.1912C109.316 10.0637 109.366 9.94181 109.453 9.84887C109.54 9.75593 109.659 9.69841 109.786 9.68728L116.78 8.68329C117.037 8.64541 117.257 8.90682 117.257 9.18718V16.3628ZM135.215 13.0402L135.261 15.7718L128.206 6.46317C128.067 6.28621 127.889 6.14316 127.686 6.04474C127.483 5.94632 127.261 5.89508 127.036 5.89488H122.872V19.6551H126.661V10.5397L126.642 9.2478L134.094 19.0754C134.23 19.2482 134.402 19.3892 134.599 19.4886C134.795 19.5881 135.01 19.6436 135.23 19.6513H138.981V5.89109H135.192L135.215 13.0402ZM67.2741 23.9741H80.4319V35.7188C80.4316 35.8054 80.4124 35.8909 80.3758 35.9694C80.3391 36.0479 80.2859 36.1175 80.2198 36.1734C80.086 36.3003 79.9078 36.3696 79.7235 36.3666H77.1851V37.4464H82.0156C82.2323 37.4462 82.4456 37.3928 82.6369 37.2911C82.8204 37.1984 82.977 37.0601 83.0915 36.8895C83.2059 36.725 83.2668 36.5291 83.2658 36.3288V23.9931H84.9631V22.9095H67.2741V23.9741ZM61.864 35.0141C62.5728 34.6561 63.2597 34.2563 63.9212 33.8169C64.5577 33.4115 65.1525 32.9607 65.6943 32.5098C65.7774 32.4444 65.8436 32.3599 65.8875 32.2636C65.9073 32.2168 65.9175 32.1666 65.9175 32.1158C65.9175 32.0651 65.9073 32.0148 65.8875 31.9681C65.8581 31.868 65.7952 31.781 65.7094 31.7218C65.6125 31.6589 65.4991 31.6259 65.3836 31.6271H54.2451L54.4497 30.9641H66.0731V29.8806H54.7793L55.196 28.5204H52.347L51.934 29.8806H49.2176V30.9641H51.6006L49.623 37.4388H51.9681C52.1144 37.4381 52.2565 37.3901 52.3732 37.3021C52.49 37.214 52.5751 37.0905 52.616 36.9501L53.9496 32.597H61.864C61.9024 32.5949 61.9406 32.6041 61.9738 32.6235C61.9895 32.6335 62.0027 32.6468 62.0125 32.6626C62.0223 32.6783 62.0285 32.696 62.0307 32.7144C62.0378 32.7251 62.0417 32.7376 62.0417 32.7504C62.0417 32.7632 62.0378 32.7758 62.0307 32.7864C62.0165 32.8161 61.9973 32.843 61.9738 32.866C61.6091 33.1287 61.2297 33.3703 60.8373 33.5896C60.4584 33.8131 60.0492 34.0139 59.6287 34.2033C59.2498 34.0404 58.871 33.8737 58.5338 33.6957C58.1966 33.5176 57.8556 33.3168 57.5412 33.135L54.0897 33.0857C54.5633 33.4229 55.0786 33.7601 55.6317 34.0821C56.1849 34.4041 56.7683 34.7262 57.3896 35.0331C56.7304 35.2263 56.0333 35.4119 55.3097 35.5445C54.5861 35.6771 53.8208 35.8249 53.0365 35.9461V37.4009C54.2125 37.3131 55.381 37.1435 56.5334 36.8933C57.5943 36.6632 58.6375 36.3581 59.6552 35.9802C60.6623 36.3532 61.6924 36.6607 62.7391 36.9008C63.8368 37.1487 64.9511 37.3159 66.0731 37.4009V35.9461C65.3457 35.8426 64.6297 35.7163 63.925 35.5673C63.2241 35.4081 62.5308 35.2263 61.864 35.0141ZM78.0603 27.0239C78.0613 26.8218 78.0019 26.6239 77.8898 26.4557C77.7771 26.2862 77.6233 26.148 77.4427 26.0541C77.2483 25.9542 77.0324 25.9034 76.8138 25.9063H68.2705V33.8965C68.27 34.0974 68.3294 34.2939 68.441 34.461C68.5527 34.6313 68.7067 34.7697 68.888 34.8626C69.082 34.9641 69.2981 35.0161 69.517 35.0141H78.0603V27.0239ZM75.2226 33.8775H71.8129C71.6914 33.8768 71.5718 33.847 71.4643 33.7904C71.3592 33.7365 71.2693 33.657 71.2029 33.5593C71.1398 33.4622 71.1056 33.3492 71.1044 33.2335V27.0202H74.5141C74.6346 27.0192 74.7533 27.0492 74.8589 27.1073C74.9642 27.1625 75.0551 27.2416 75.1241 27.3384C75.1877 27.435 75.2207 27.5486 75.2188 27.6642L75.2226 33.8775ZM96.7608 32.1386H102.614V31.055H96.7608V26.2927H102.614V25.2092H96.7608V22.8678H93.927V25.2092H90.5172L91.1537 22.8678H88.2743L86.5316 29.3691H88.8881C88.9246 29.3728 88.9614 29.3728 88.998 29.3691H89.0396C89.16 29.3383 89.2696 29.275 89.3565 29.1861C89.4433 29.0973 89.5041 28.9863 89.5322 28.8652L90.2293 26.3041H93.9308V31.0664H87.1113V32.1499H93.9308V36.3666H86.1186V37.4502H103.614V36.3666H96.7608V32.1386ZM66.0352 29.4865V28.1795C66.0347 27.9816 65.9768 27.7882 65.8685 27.6225C65.768 27.4525 65.6225 27.3135 65.448 27.221C65.2632 27.1165 65.0541 27.0629 64.8418 27.0656H49.229V29.4941H51.9606V28.0279H62.6634C62.8464 28.0259 63.023 28.0952 63.1559 28.2211C63.2189 28.2782 63.2693 28.3477 63.3039 28.4253C63.3385 28.503 63.3565 28.587 63.3567 28.672V29.4865H66.0352ZM65.7624 22.8981H49.5055V23.9817H65.77L65.7624 22.8981ZM50.9641 26.6602H53.6844L53.1919 24.3189H50.4678L50.9641 26.6602ZM64.1674 26.6602L64.6903 24.3075H61.9663L61.4472 26.6602H64.1674ZM56.4084 26.6602H59.1513L58.6361 24.3189H55.9121L56.4084 26.6602Z" fill="#FFE8B2"/>
</svg>
