<?xml version="1.0" standalone="no"?><!DOCTYPE svg PUBLIC "-//W3C//DTD SVG 1.1//EN" "http://www.w3.org/Graphics/SVG/1.1/DTD/svg11.dtd"><svg t="1783165778411" class="icon" viewBox="0 0 1024 1024" version="1.1" xmlns="http://www.w3.org/2000/svg" p-id="48893" xmlns:xlink="http://www.w3.org/1999/xlink" width="16" height="16"><path d="M427.154209 596.845608A119.643407 119.643407 0 0 0 511.999909 631.954173c30.719995 0 61.439989-11.702855 84.845699-35.108565a120.137121 120.137121 0 0 0 0-169.691399c-32.182851-32.201137-338.980511-243.967956-400.1645-286.098234a40.009136 40.009136 0 0 0-55.625133 55.625133c42.130278 61.183989 253.897098 367.981649 286.079949 400.1645z m113.133695-113.133694a40.045707 40.045707 0 0 1 0 56.57599 40.045707 40.045707 0 0 1-56.557705 0c-12.434283-12.562283-74.971415-99.529125-150.125687-206.683392 107.154267 75.154272 194.121108 137.691404 206.683392 150.125687zM874.038701 149.961116C970.751827 246.655956 1023.999817 375.22279 1023.999817 511.999909c0 101.065125-29.988566 199.350822-86.747413 284.233092a39.954279 39.954279 0 0 1-72.484558-14.445712c-2.066285-10.40457 0.073143-21.211425 5.979427-30.025138 47.908563-71.679987 73.252558-154.587401 73.252558-239.762242 0-224.731388-172.470826-409.92907-392.009072-430.153066v118.162264a39.99085 39.99085 0 1 1-79.999986 0v-159.999971C472.009059 17.901711 489.929055 0 511.999909 0c136.777118 0 265.325667 53.24799 362.057078 149.94283z m-138.550832 731.830727a40.009136 40.009136 0 1 1 41.435421 68.42513A511.195337 511.195337 0 0 1 511.999909 1023.999817c-136.777118 0-265.325667-53.24799-362.057079-149.94283C53.266276 777.325575 0 648.777027 0 511.999909c0-78.3177 17.243425-153.52683 51.236562-223.487961a40.009136 40.009136 0 0 1 71.954273 34.96228A427.794209 427.794209 0 0 0 79.999986 511.999909c0 238.207957 193.791965 431.999923 431.999923 431.999922a431.177066 431.177066 0 0 0 223.469674-62.207988z" p-id="48894" fill="#d81e06"></path></svg>