<?xml version="1.0" standalone="no"?><!DOCTYPE svg PUBLIC "-//W3C//DTD SVG 1.1//EN" "http://www.w3.org/Graphics/SVG/1.1/DTD/svg11.dtd"><svg t="1782805804440" class="icon" viewBox="0 0 1024 1024" version="1.1" xmlns="http://www.w3.org/2000/svg" p-id="27493" xmlns:xlink="http://www.w3.org/1999/xlink" width="16" height="16"><path d="M511.983105 512.016895m-511.983105 0a511.983105 511.983105 0 1 0 1023.966209 0 511.983105 511.983105 0 1 0-1023.966209 0Z" fill="#F6F6F6" p-id="27494"></path><path d="M633.93748 282.341275c66.216482 22.663785 105.707445 69.493173 117.278263 138.918082a6.894706 6.894706 0 0 0 4.232394 5.358757l1.092231 0.443718c87.924565 26.793782 129.873048 81.575975 130.862881 165.711865l0.034132 2.798841C887.437381 672.574797 821.562222 750.942344 740.668891 750.942344h-222.371328a12.52652 12.52652 0 0 1-12.355859-12.663049c0-7.031235 5.56355-12.697181 12.355859-12.697181h208.274727l20.445192-0.921569c71.575238-14.779246 113.591985-73.247716 115.708181-126.630488v-2.457519c0-75.500442-39.866418-123.934044-122.329829-147.38287l-2.867106-0.78504a12.560652 12.560652 0 0 1-8.942638-9.761812l-0.136529-1.023966c-7.713879-66.557804-41.334103-109.359591-102.328356-130.214369-59.321776-20.308663-114.684215 2.662312-167.998723 71.268048l-1.979668 2.594048a12.151066 12.151066 0 0 1-14.915774 3.686278L440.30547 383.440872c-40.037079-23.414694-78.367547-24.916511-116.390826-4.778509-36.487329 19.318829-53.894755 47.921619-52.222277 105.94637v12.014537a12.697181 12.697181 0 0 1-8.225861 12.458256l-0.989834 0.341322C193.802671 527.751843 161.240546 561.849918 161.240546 612.706906c0 48.604263 19.762548 81.575975 60.516403 100.826539l1.911403 0.853306L348.148511 586.6299a12.116933 12.116933 0 0 1 16.758914-0.682644l32.527993 28.534525a12.936106 12.936106 0 0 1 1.365288 17.885276 12.116933 12.116933 0 0 1-16.622385 2.047933l-0.78504-0.682645-15.1547-13.277428a12.116933 12.116933 0 0 0-16.758914 0.682644L229.641488 744.115903l-7.509085-2.93537C165.575336 718.85807 136.528828 675.305374 136.528828 612.706906c0-59.833759 36.146007-101.372655 105.468519-123.660986a6.894706 6.894706 0 0 0 4.778509-6.621648v-3.413221c0.273058-61.09665 21.400894-98.300756 63.622434-121.71545l2.150329-1.160495c41.470631-21.947009 82.087958-23.278165 124.923878-2.491651 3.413221 1.604214 7.440821 0.785041 10.000736-2.047932l2.047933-2.252726C507.204596 278.928054 566.150917 259.131374 633.971612 282.341275z" fill="#027AFF" p-id="27495"></path><path d="M557.310675 514.064828l119.974708 122.739416h51.061782c6.826441 0 12.355859 5.665946 12.355858 12.663049a12.52652 12.52652 0 0 1-12.355858 12.697181h-210.049602a12.52652 12.52652 0 0 1-12.355859-12.663049c0-7.031235 5.56355-12.697181 12.355859-12.697181h115.298595l-76.285483-78.333415a12.116933 12.116933 0 0 0-16.690649-0.750908l-0.785041 0.750908-180.286317 185.064826a15.1547 15.1547 0 0 1-21.025439 0.750909l-0.785041-0.750909a16.144534 16.144534 0 0 1-0.785041-21.571554l0.785041-0.853306 202.096797-207.011835a12.116933 12.116933 0 0 1 17.47569 0z" fill="#027AFF" p-id="27496"></path><path d="M586.254787 681.176113c6.826441 0 12.355859 5.700079 12.355859 12.697181a12.52652 12.52652 0 0 1-12.355859 12.697181h-67.923092a12.52652 12.52652 0 0 1-12.389991-12.697181c0-6.997102 5.56355-12.697181 12.355859-12.697181h67.957224zM728.381297 681.176113c6.792309 0 12.321727 5.700079 12.321726 12.697181a12.52652 12.52652 0 0 1-12.355858 12.697181h-67.923092a12.52652 12.52652 0 0 1-12.389991-12.697181c0-6.997102 5.529418-12.697181 12.355858-12.697181h67.957225z" fill="#027AFF" p-id="27497"></path></svg>