<?xml version="1.0" standalone="no"?><!DOCTYPE svg PUBLIC "-//W3C//DTD SVG 1.1//EN" "http://www.w3.org/Graphics/SVG/1.1/DTD/svg11.dtd"><svg t="1782926907201" class="icon" viewBox="0 0 1024 1024" version="1.1" xmlns="http://www.w3.org/2000/svg" p-id="28997" xmlns:xlink="http://www.w3.org/1999/xlink" width="16" height="16"><path d="M372.032 396.864h-0.768c-48 0-86.848 38.848-86.848 86.848v1.216c0 48 38.848 86.784 86.848 86.784h0.768c48 0 86.848-38.784 86.848-86.784v-1.28c0-47.744-38.784-86.784-86.848-86.784z m44.224 90.432a44.224 44.224 0 0 1-88.384 0v-7.168a44.224 44.224 0 0 1 88.384-2.432v9.6z m-2.56 96c0 22.4-18.24 40.64-40.64 40.64h-3.84a40.64 40.64 0 0 1-40.576-40.64v-4.992h-44.8a86.912 86.912 0 0 0 86.848 84.48h0.768c47.04 0 85.44-37.44 86.848-84.48h-44.608v4.992z" fill="#E3601B" p-id="28998"></path><path d="M144 434.496H46.976V346.88H0v218.432h46.976v-90.24H144v90.24h47.04V346.88H144v87.616z m75.008-34.816h47.04v165.632h-47.04V399.68z m25.216-55.616h-1.152a24.832 24.832 0 1 0-1.664 49.6h3.008a24.96 24.96 0 0 0 24-25.6 25.344 25.344 0 0 0-24.192-24z m684.352 52.8h-0.64a87.04 87.04 0 0 0-87.04 86.656v1.408c0 48 39.04 86.784 86.848 86.784h1.024c47.808 0 86.592-38.784 86.592-86.784v-1.28a86.72 86.72 0 0 0-86.784-86.784c0.192 0 0.192 0 0 0z m44.16 90.432c0 24.384-19.584 44.16-44.16 44.416a44.288 44.288 0 0 1-44.224-44.416v-7.168a44.224 44.224 0 0 1 88.384 0v7.168zM577.088 396.864h-3.84c-19.2 0-37.376 9.408-48.576 25.024V346.88h-46.976v218.432H524.8V469.504c0.64-19.2 16.64-34.24 35.84-33.6 18.368 0.64 33.216 15.168 33.6 33.6v95.808h43.008v-109.44a59.904 59.904 0 0 0-60.16-59.008z m204.032 35.008a56.192 56.192 0 0 0-49.216-28.992h-2.176c-40.192 0-72.832 32.64-72.832 72.832v19.84c0 40.128 32.64 72.768 72.832 72.768h2.176a56 56 0 0 0 49.28-28.992v4.608l0.128 3.584v8.96a43.392 43.392 0 0 1-43.2 43.648h-1.984a43.136 43.136 0 0 1-38.4-23.424l-32.64 21.76c13.632 24.448 39.424 39.488 67.2 39.488h7.68c45.952 0 83.392-36.608 84.544-82.624V406.272h-43.584v25.6h0.192z m-1.216 58.88a39.808 39.808 0 0 1-39.808 39.744h-1.344a39.808 39.808 0 0 1-39.808-39.808v-9.984a39.68 39.68 0 0 1 39.552-39.616h1.408c22.016 0 39.808 17.792 39.808 39.616l0.192 9.984z" fill="#272828" p-id="28999"></path></svg>