<?xml version="1.0" standalone="no"?><!DOCTYPE svg PUBLIC "-//W3C//DTD SVG 1.1//EN" "http://www.w3.org/Graphics/SVG/1.1/DTD/svg11.dtd"><svg t="1783090590144" class="icon" viewBox="0 0 1024 1024" version="1.1" xmlns="http://www.w3.org/2000/svg" p-id="9739" xmlns:xlink="http://www.w3.org/1999/xlink" width="16" height="16"><path d="M963.98185 735.991005V288.008995c0-22.879081-12.159512-43.998233-31.998715-55.437774L543.998715 8.580215a63.957432 63.957432 0 0 0-63.99743 0l-387.98442 223.991006c-19.759207 11.439541-31.998715 32.558693-31.998715 55.437774v447.98201c0 22.879081 12.159512 43.998233 31.998715 55.437774l387.98442 223.991006a63.957432 63.957432 0 0 0 63.99743 0l387.98442-223.991006c19.759207-11.439541 31.998715-32.558693 31.998715-55.437774z" fill="#217AEE" p-id="9740"></path><path d="M736.071002 385.045098l-0.23999-0.399984a35.958556 35.958556 0 0 0-47.918076-13.839444L512.479981 463.121963l-176.552911-91.996306a36.038553 36.038553 0 0 0-47.838079 13.919441l-0.23999 0.399984a35.998554 35.998554 0 0 0 11.999518 48.478053l167.913257 105.915747 8.399663 192.552268c0.799968 19.279226 16.719329 34.398619 35.998555 34.398619h0.47998c19.359223 0 35.198587-15.279386 35.998555-34.558613l7.519698-191.7523 168.153247-107.115698a35.958556 35.958556 0 0 0 11.759528-48.31806z" fill="#FFFFFF" p-id="9741"></path></svg>