<?xml version="1.0" standalone="no"?><!DOCTYPE svg PUBLIC "-//W3C//DTD SVG 1.1//EN" "http://www.w3.org/Graphics/SVG/1.1/DTD/svg11.dtd"><svg t="1782829655747" class="icon" viewBox="0 0 1024 1024" version="1.1" xmlns="http://www.w3.org/2000/svg" p-id="3519" xmlns:xlink="http://www.w3.org/1999/xlink" width="16" height="16"><path d="M960 0a64 64 0 0 1 64 64v896a64 64 0 0 1-64 64H64a64 64 0 0 1-64-64V64a64 64 0 0 1 64-64h896z" fill="#00548B" p-id="3520"></path><path d="M713.6 128H411.648l-254.08 768h302.08c50.304 0 102.4-17.088 149.312-45.888a212.48 212.48 0 0 0 48.512-53.12c36.608-60.608 12.864-133.568-1.344-154.496-21.44-31.552-54.912-60.992-107.072-79.744-0.64-0.192-1.856 0-1.728 1.28 0.704 8.576 3.84 43.84 8.32 61.056 0.64 2.56 1.216 5.824-0.32 4.928-9.408-5.44-43.84-29.056-56.768-86.848-14.976-67.2-101.568-85.568-106.048-86.272-4.48-0.704-44.992-8-41.792-16.896 2.88-10.88 14.848-15.808 36.096-14.72 32.192 1.472 24.832-30.528 72.96-32.64 48.192-2.24 143.872 32.768 196.288 63.232 52.48 30.528 111.872-1.024 138.816 22.976 26.88 24-55.36 8.384-55.552 42.88-0.128 34.368 24.512 75.2 19.2 142.464a249.92 249.92 0 0 1-0.768 8.128l2.56-7.296 101.184-306.048C903.68 231.424 837.44 128 713.6 128z" fill="#FFFFFF" p-id="3521"></path></svg>