<?xml version="1.0" standalone="no"?><!DOCTYPE svg PUBLIC "-//W3C//DTD SVG 1.1//EN" "http://www.w3.org/Graphics/SVG/1.1/DTD/svg11.dtd"><svg t="1783005222829" class="icon" viewBox="0 0 1024 1024" version="1.1" xmlns="http://www.w3.org/2000/svg" p-id="7608" xmlns:xlink="http://www.w3.org/1999/xlink" width="16" height="16"><path d="M45.056 74.752m-37.888 0a37.888 37.888 0 1 0 75.776 0 37.888 37.888 0 1 0-75.776 0Z" fill="#0073CA" p-id="7609"></path><path d="M45.056 220.16m-37.888 0a37.888 37.888 0 1 0 75.776 0 37.888 37.888 0 1 0-75.776 0Z" fill="#0073CA" p-id="7610"></path><path d="M45.056 365.568m-37.888 0a37.888 37.888 0 1 0 75.776 0 37.888 37.888 0 1 0-75.776 0Z" fill="#0073CA" p-id="7611"></path><path d="M45.056 509.952m-37.888 0a37.888 37.888 0 1 0 75.776 0 37.888 37.888 0 1 0-75.776 0Z" fill="#0073CA" p-id="7612"></path><path d="M67.584 652.288m-37.888 0a37.888 37.888 0 1 0 75.776 0 37.888 37.888 0 1 0-75.776 0Z" fill="#0073CA" p-id="7613"></path><path d="M131.072 779.264m-37.888 0a37.888 37.888 0 1 0 75.776 0 37.888 37.888 0 1 0-75.776 0Z" fill="#0073CA" p-id="7614"></path><path d="M236.544 882.688m-37.888 0a37.888 37.888 0 1 0 75.776 0 37.888 37.888 0 1 0-75.776 0Z" fill="#0073CA" p-id="7615"></path><path d="M366.592 949.248m-37.888 0a37.888 37.888 0 1 0 75.776 0 37.888 37.888 0 1 0-75.776 0Z" fill="#0073CA" p-id="7616"></path><path d="M976.896 74.752m-37.888 0a37.888 37.888 0 1 0 75.776 0 37.888 37.888 0 1 0-75.776 0Z" fill="#0073CA" p-id="7617"></path><path d="M976.896 220.16m-37.888 0a37.888 37.888 0 1 0 75.776 0 37.888 37.888 0 1 0-75.776 0Z" fill="#0073CA" p-id="7618"></path><path d="M976.896 365.568m-37.888 0a37.888 37.888 0 1 0 75.776 0 37.888 37.888 0 1 0-75.776 0Z" fill="#0073CA" p-id="7619"></path><path d="M976.896 509.952m-37.888 0a37.888 37.888 0 1 0 75.776 0 37.888 37.888 0 1 0-75.776 0Z" fill="#0073CA" p-id="7620"></path><path d="M954.368 652.288m-37.888 0a37.888 37.888 0 1 0 75.776 0 37.888 37.888 0 1 0-75.776 0Z" fill="#0073CA" p-id="7621"></path><path d="M890.88 779.264m-37.888 0a37.888 37.888 0 1 0 75.776 0 37.888 37.888 0 1 0-75.776 0Z" fill="#0073CA" p-id="7622"></path><path d="M785.408 882.688m-37.888 0a37.888 37.888 0 1 0 75.776 0 37.888 37.888 0 1 0-75.776 0Z" fill="#0073CA" p-id="7623"></path><path d="M655.36 949.248m-37.888 0a37.888 37.888 0 1 0 75.776 0 37.888 37.888 0 1 0-75.776 0Z" fill="#0073CA" p-id="7624"></path><path d="M510.976 971.776m-37.888 0a37.888 37.888 0 1 0 75.776 0 37.888 37.888 0 1 0-75.776 0Z" fill="#0073CA" p-id="7625"></path><path d="M149.504 172.032m-28.672 0a28.672 28.672 0 1 0 57.344 0 28.672 28.672 0 1 0-57.344 0Z" fill="#008EDB" p-id="7626"></path><path d="M149.504 284.672m-28.672 0a28.672 28.672 0 1 0 57.344 0 28.672 28.672 0 1 0-57.344 0Z" fill="#008EDB" p-id="7627"></path><path d="M149.504 397.312m-28.672 0a28.672 28.672 0 1 0 57.344 0 28.672 28.672 0 1 0-57.344 0Z" fill="#008EDB" p-id="7628"></path><path d="M149.504 508.928m-28.672 0a28.672 28.672 0 1 0 57.344 0 28.672 28.672 0 1 0-57.344 0Z" fill="#008EDB" p-id="7629"></path><path d="M166.912 620.544m-28.672 0a28.672 28.672 0 1 0 57.344 0 28.672 28.672 0 1 0-57.344 0Z" fill="#008EDB" p-id="7630"></path><path d="M216.064 718.848m-28.672 0a28.672 28.672 0 1 0 57.344 0 28.672 28.672 0 1 0-57.344 0Z" fill="#008EDB" p-id="7631"></path><path d="M297.984 799.744m-28.672 0a28.672 28.672 0 1 0 57.344 0 28.672 28.672 0 1 0-57.344 0Z" fill="#008EDB" p-id="7632"></path><path d="M399.36 850.944m-28.672 0a28.672 28.672 0 1 0 57.344 0 28.672 28.672 0 1 0-57.344 0Z" fill="#008EDB" p-id="7633"></path><path d="M873.472 172.032m-28.672 0a28.672 28.672 0 1 0 57.344 0 28.672 28.672 0 1 0-57.344 0Z" fill="#008EDB" p-id="7634"></path><path d="M873.472 284.672m-28.672 0a28.672 28.672 0 1 0 57.344 0 28.672 28.672 0 1 0-57.344 0Z" fill="#008EDB" p-id="7635"></path><path d="M873.472 397.312m-28.672 0a28.672 28.672 0 1 0 57.344 0 28.672 28.672 0 1 0-57.344 0Z" fill="#008EDB" p-id="7636"></path><path d="M873.472 508.928m-28.672 0a28.672 28.672 0 1 0 57.344 0 28.672 28.672 0 1 0-57.344 0Z" fill="#008EDB" p-id="7637"></path><path d="M856.064 620.544m-28.672 0a28.672 28.672 0 1 0 57.344 0 28.672 28.672 0 1 0-57.344 0Z" fill="#008EDB" p-id="7638"></path><path d="M805.888 718.848m-28.672 0a28.672 28.672 0 1 0 57.344 0 28.672 28.672 0 1 0-57.344 0Z" fill="#008EDB" p-id="7639"></path><path d="M723.968 799.744m-28.672 0a28.672 28.672 0 1 0 57.344 0 28.672 28.672 0 1 0-57.344 0Z" fill="#008EDB" p-id="7640"></path><path d="M622.592 850.944m-28.672 0a28.672 28.672 0 1 0 57.344 0 28.672 28.672 0 1 0-57.344 0Z" fill="#008EDB" p-id="7641"></path><path d="M510.976 868.352m-28.672 0a28.672 28.672 0 1 0 57.344 0 28.672 28.672 0 1 0-57.344 0Z" fill="#008EDB" p-id="7642"></path><path d="M238.592 257.024m-21.504 0a21.504 21.504 0 1 0 43.008 0 21.504 21.504 0 1 0-43.008 0Z" fill="#00A0DE" p-id="7643"></path><path d="M238.592 342.016m-21.504 0a21.504 21.504 0 1 0 43.008 0 21.504 21.504 0 1 0-43.008 0Z" fill="#00A0DE" p-id="7644"></path><path d="M238.592 427.008m-21.504 0a21.504 21.504 0 1 0 43.008 0 21.504 21.504 0 1 0-43.008 0Z" fill="#00A0DE" p-id="7645"></path><path d="M238.592 512m-21.504 0a21.504 21.504 0 1 0 43.008 0 21.504 21.504 0 1 0-43.008 0Z" fill="#00A0DE" p-id="7646"></path><path d="M250.88 594.944m-21.504 0a21.504 21.504 0 1 0 43.008 0 21.504 21.504 0 1 0-43.008 0Z" fill="#00A0DE" p-id="7647"></path><path d="M288.768 669.696m-21.504 0a21.504 21.504 0 1 0 43.008 0 21.504 21.504 0 1 0-43.008 0Z" fill="#00A0DE" p-id="7648"></path><path d="M350.208 730.112m-21.504 0a21.504 21.504 0 1 0 43.008 0 21.504 21.504 0 1 0-43.008 0Z" fill="#00A0DE" p-id="7649"></path><path d="M427.008 769.024m-21.504 0a21.504 21.504 0 1 0 43.008 0 21.504 21.504 0 1 0-43.008 0Z" fill="#00A0DE" p-id="7650"></path><path d="M784.384 257.024m-21.504 0a21.504 21.504 0 1 0 43.008 0 21.504 21.504 0 1 0-43.008 0Z" fill="#00A0DE" p-id="7651"></path><path d="M784.384 342.016m-21.504 0a21.504 21.504 0 1 0 43.008 0 21.504 21.504 0 1 0-43.008 0Z" fill="#00A0DE" p-id="7652"></path><path d="M784.384 427.008m-21.504 0a21.504 21.504 0 1 0 43.008 0 21.504 21.504 0 1 0-43.008 0Z" fill="#00A0DE" p-id="7653"></path><path d="M784.384 512m-21.504 0a21.504 21.504 0 1 0 43.008 0 21.504 21.504 0 1 0-43.008 0Z" fill="#00A0DE" p-id="7654"></path><path d="M771.072 594.944m-21.504 0a21.504 21.504 0 1 0 43.008 0 21.504 21.504 0 1 0-43.008 0Z" fill="#00A0DE" p-id="7655"></path><path d="M734.208 669.696m-21.504 0a21.504 21.504 0 1 0 43.008 0 21.504 21.504 0 1 0-43.008 0Z" fill="#00A0DE" p-id="7656"></path><path d="M671.744 730.112m-21.504 0a21.504 21.504 0 1 0 43.008 0 21.504 21.504 0 1 0-43.008 0Z" fill="#00A0DE" p-id="7657"></path><path d="M595.968 769.024m-21.504 0a21.504 21.504 0 1 0 43.008 0 21.504 21.504 0 1 0-43.008 0Z" fill="#00A0DE" p-id="7658"></path><path d="M510.976 782.336m-21.504 0a21.504 21.504 0 1 0 43.008 0 21.504 21.504 0 1 0-43.008 0Z" fill="#00A0DE" p-id="7659"></path><path d="M313.344 324.608m-15.36 0a15.36 15.36 0 1 0 30.72 0 15.36 15.36 0 1 0-30.72 0Z" fill="#00BBF0" p-id="7660"></path><path d="M313.344 386.048m-15.36 0a15.36 15.36 0 1 0 30.72 0 15.36 15.36 0 1 0-30.72 0Z" fill="#00BBF0" p-id="7661"></path><path d="M313.344 448.512m-15.36 0a15.36 15.36 0 1 0 30.72 0 15.36 15.36 0 1 0-30.72 0Z" fill="#00BBF0" p-id="7662"></path><path d="M313.344 508.928m-15.36 0a15.36 15.36 0 1 0 30.72 0 15.36 15.36 0 1 0-30.72 0Z" fill="#00BBF0" p-id="7663"></path><path d="M323.584 569.344m-15.36 0a15.36 15.36 0 1 0 30.72 0 15.36 15.36 0 1 0-30.72 0Z" fill="#00BBF0" p-id="7664"></path><path d="M350.208 623.616m-15.36 0a15.36 15.36 0 1 0 30.72 0 15.36 15.36 0 1 0-30.72 0Z" fill="#00BBF0" p-id="7665"></path><path d="M395.264 667.648m-15.36 0a15.36 15.36 0 1 0 30.72 0 15.36 15.36 0 1 0-30.72 0Z" fill="#00BBF0" p-id="7666"></path><path d="M450.56 695.296m-15.36 0a15.36 15.36 0 1 0 30.72 0 15.36 15.36 0 1 0-30.72 0Z" fill="#00BBF0" p-id="7667"></path><path d="M708.608 324.608m-15.36 0a15.36 15.36 0 1 0 30.72 0 15.36 15.36 0 1 0-30.72 0Z" fill="#00BBF0" p-id="7668"></path><path d="M708.608 386.048m-15.36 0a15.36 15.36 0 1 0 30.72 0 15.36 15.36 0 1 0-30.72 0Z" fill="#00BBF0" p-id="7669"></path><path d="M708.608 448.512m-15.36 0a15.36 15.36 0 1 0 30.72 0 15.36 15.36 0 1 0-30.72 0Z" fill="#00BBF0" p-id="7670"></path><path d="M708.608 508.928m-15.36 0a15.36 15.36 0 1 0 30.72 0 15.36 15.36 0 1 0-30.72 0Z" fill="#00BBF0" p-id="7671"></path><path d="M699.392 569.344m-15.36 0a15.36 15.36 0 1 0 30.72 0 15.36 15.36 0 1 0-30.72 0Z" fill="#00BBF0" p-id="7672"></path><path d="M671.744 623.616m-15.36 0a15.36 15.36 0 1 0 30.72 0 15.36 15.36 0 1 0-30.72 0Z" fill="#00BBF0" p-id="7673"></path><path d="M627.712 667.648m-15.36 0a15.36 15.36 0 1 0 30.72 0 15.36 15.36 0 1 0-30.72 0Z" fill="#00BBF0" p-id="7674"></path><path d="M572.416 695.296m-15.36 0a15.36 15.36 0 1 0 30.72 0 15.36 15.36 0 1 0-30.72 0Z" fill="#00BBF0" p-id="7675"></path><path d="M510.976 704.512m-15.36 0a15.36 15.36 0 1 0 30.72 0 15.36 15.36 0 1 0-30.72 0Z" fill="#00BBF0" p-id="7676"></path></svg>