<?xml version="1.0" standalone="no"?><!DOCTYPE svg PUBLIC "-//W3C//DTD SVG 1.1//EN" "http://www.w3.org/Graphics/SVG/1.1/DTD/svg11.dtd"><svg t="1783104882969" class="icon" viewBox="0 0 1024 1024" version="1.1" xmlns="http://www.w3.org/2000/svg" p-id="17622" xmlns:xlink="http://www.w3.org/1999/xlink" width="16" height="16"><path d="M196.266667 622.933333v8.533334H128v-8.533334h68.266667z m132.266666 0v8.533334H260.266667v-8.533334h68.266666z m93.866667-136.533333c38.4 0 72.533333 34.133333 72.533333 72.533333s-34.133333 72.533333-72.533333 72.533334-72.533333-34.133333-72.533333-72.533334 34.133333-72.533333 72.533333-72.533333z m136.533333-55.466667v42.666667h34.133334v38.4h-34.133334v59.733333c0 17.066667 12.8 21.333333 34.133334 8.533334v34.133333c-8.533333 4.266667-21.333333 8.533333-34.133334 8.533333-8.533333 0-38.4 0-38.4-55.466666v-59.733334l-25.6 4.266667v-38.4h21.333334v-29.866667l42.666666-12.8z m-362.666666 174.933334v8.533333H128v-8.533333h68.266667z m132.266666 0v8.533333H260.266667v-8.533333h68.266666z m-132.266666-21.333334v12.8H140.8v-8.533333h55.466667z m119.466666 0v8.533334l-55.466666 4.266666v-12.8h55.466666z m106.666667-59.733333c-17.066667 0-34.133333 17.066667-34.133333 34.133333s17.066667 34.133333 34.133333 34.133334 34.133333-17.066667 34.133333-34.133334-17.066667-34.133333-34.133333-34.133333z m-226.133333 42.666667v12.8H140.8v-12.8h55.466667z m119.466666 0v12.8H260.266667v-12.8h55.466666z m-119.466666-17.066667v8.533333H140.8v-8.533333h55.466667z m119.466666 0v8.533333H260.266667v-8.533333h55.466666z m-119.466666-21.333333v12.8H140.8v-12.8h55.466667z m119.466666 0v12.8H260.266667v-12.8h55.466666zM196.266667 512v12.8H140.8V512h55.466667z m119.466666 0v12.8H260.266667V512h55.466666z m-119.466666-21.333333v8.533333H140.8v-8.533333h55.466667z m119.466666 0v8.533333H260.266667v-8.533333h55.466666z m-119.466666-17.066667v12.8H140.8v-12.8h55.466667z m119.466666 0v12.8H260.266667v-12.8h55.466666z m-119.466666-17.066667v8.533334H140.8v-8.533334h55.466667z m119.466666 0v8.533334H260.266667v-8.533334h55.466666z m-119.466666-17.066666v12.8H140.8v-12.8h55.466667z m119.466666 0v12.8H260.266667v-12.8h55.466666z m-119.466666-21.333334v8.533334H140.8v-8.533334h55.466667z m119.466666 0v8.533334H260.266667v-8.533334h55.466666z m-119.466666-17.066666v8.533333L128 413.866667v-12.8h68.266667z m132.266666 0v8.533333H260.266667v-8.533333h68.266666z m0-17.066667v8.533333H260.266667V384h68.266666zM196.266667 384v8.533333H128V384h68.266667z" fill="#2F437E" p-id="17623"></path><path d="M780.8 520.533333c0 89.6-81.066667 98.133333-102.4 98.133334h-59.733333V422.4h68.266666c21.333333 0 93.866667 8.533333 93.866667 98.133333z m89.6-98.133333c17.066667 0 51.2 17.066667 51.2 46.933333 0 21.333333-4.266667 34.133333-17.066667 42.666667 17.066667 8.533333 25.6 25.6 25.6 46.933333 0 34.133333-25.6 59.733333-64 59.733334h-64V422.4h68.266667z m-183.466667 38.4h-29.866666v119.466667h29.866666c8.533333 0 51.2-8.533333 51.2-59.733334s-38.4-59.733333-51.2-59.733333z m179.2 76.8h-25.6v42.666667h21.333334c4.266667 0 25.6 0 25.6-21.333334s-17.066667-21.333333-21.333334-21.333333z m-4.266666-76.8h-21.333334v38.4h17.066667c4.266667 0 21.333333-4.266667 21.333333-21.333333s-12.8-17.066667-17.066666-17.066667zM362.666667 418.133333c8.533333 12.8-4.266667 38.4-42.666667 85.333334l12.8 12.8c8.533333 4.266667 17.066667 4.266667 17.066667 4.266666s-17.066667 12.8-25.6 12.8c-8.533333 0-17.066667-4.266667-25.6-12.8-17.066667 12.8-38.4 21.333333-64 25.6-38.4 4.266667-81.066667 0-110.933334-25.6-21.333333-21.333333-34.133333-38.4-38.4-59.733333l42.666667 42.666667 29.866667 12.8h46.933333l68.266667-38.4 42.666666-42.666667 25.6-12.8c12.8-4.266667 21.333333-4.266667 21.333334-4.266667z" fill="#6EC4ED" p-id="17624"></path><path d="M362.666667 418.133333c-17.066667 0-29.866667 4.266667-46.933334 8.533334-72.533333 38.4-89.6 85.333333-136.533333 85.333333-29.866667 0-51.2-8.533333-59.733333-25.6v-8.533333h-4.266667s-4.266667 0-4.266667 4.266666c0-4.266667-4.266667-8.533333-4.266666-12.8-12.8-8.533333-21.333333-8.533333-21.333334-8.533333s8.533333 21.333333 21.333334 34.133333 38.4 29.866667 68.266666 34.133334c21.333333 4.266667 38.4 0 51.2 0 0 8.533333 0 17.066667 4.266667 25.6 4.266667 12.8 25.6 25.6 29.866667 25.6s-8.533333-4.266667-8.533334-21.333334 17.066667-34.133333 17.066667-46.933333v-8.533333c8.533333-8.533333 12.8-12.8 17.066667-21.333334 4.266667-8.533333 4.266667-21.333333 12.8-34.133333 12.8-12.8 34.133333-25.6 64-29.866667z" fill="#2F437E" p-id="17625"></path></svg>