<svg width="72.000000" height="72.000000" viewBox="0 0 72 72" fill="none" xmlns="http://www.w3.org/2000/svg" xmlns:xlink="http://www.w3.org/1999/xlink">
	<desc>
			Created with Pixso.
	</desc>
	<defs>
		<linearGradient x1="2.627853" y1="1.270367" x2="68.301491" y2="68.312302" id="paint_linear_7_151_0" gradientUnits="userSpaceOnUse">
			<stop stop-color="#FF732D"/>
			<stop offset="0.500639" stop-color="#E83511"/>
			<stop offset="1.000000" stop-color="#F6421E"/>
		</linearGradient>
		<linearGradient x1="20.373535" y1="20.593262" x2="52.292259" y2="52.533257" id="paint_linear_7_154_0" gradientUnits="userSpaceOnUse">
			<stop offset="0.004999" stop-color="#FF732D"/>
			<stop offset="0.501534" stop-color="#E83511"/>
			<stop offset="1.000000" stop-color="#F6421E"/>
		</linearGradient>
	</defs>
	<rect id="矩形备份 53" rx="16.000000" width="72.000000" height="72.000000" fill="url(#paint_linear_7_151_0)" fill-opacity="1.000000"/>
	<rect id="矩形备份 53" x="0.500000" y="0.500000" rx="16.000000" width="71.000000" height="71.000000" stroke="#979797" stroke-opacity="0" stroke-width="1.000000"/>
	<mask id="mask_7_152" fill="white">
		<path id="减去顶层" d="M40.0146 11.4714L55.4048 20.4266C57.4565 21.5746 59.0527 24.4449 59.0527 26.8559L59.0527 44.7662C59.0527 47.1772 57.4565 49.9326 55.4048 51.1955L40.0146 60.1506C38.8745 60.7247 37.6206 61.0691 36.2524 61.0691C34.8848 61.0691 33.5166 60.7247 32.4907 60.1506L17.1006 51.1955C15.0488 49.9326 13.4526 47.1772 13.4526 44.7662L13.4526 26.8559C13.4526 24.4449 15.0488 21.5746 17.1006 20.4266L32.4907 11.4714C33.6309 10.8974 34.8848 10.5529 36.2524 10.5529C37.6206 10.5529 38.8745 10.8974 40.0146 11.4714Z" clip-rule="evenodd" fill="" fill-opacity="1.000000" fill-rule="evenodd"/>
	</mask>
	<path id="减去顶层" d="M40.0146 11.4714L55.4048 20.4266C57.4565 21.5746 59.0527 24.4449 59.0527 26.8559L59.0527 44.7662C59.0527 47.1772 57.4565 49.9326 55.4048 51.1955L40.0146 60.1506C38.8745 60.7247 37.6206 61.0691 36.2524 61.0691C34.8848 61.0691 33.5166 60.7247 32.4907 60.1506L17.1006 51.1955C15.0488 49.9326 13.4526 47.1772 13.4526 44.7662L13.4526 26.8559C13.4526 24.4449 15.0488 21.5746 17.1006 20.4266L32.4907 11.4714C33.6309 10.8974 34.8848 10.5529 36.2524 10.5529C37.6206 10.5529 38.8745 10.8974 40.0146 11.4714Z" clip-rule="evenodd" fill="#FFFFFF" fill-opacity="1.000000" fill-rule="evenodd" mask="url(#mask_7_152)"/>
	<path id="减去顶层" d="" clip-rule="evenodd" fill="#979797" fill-opacity="0.000000" fill-rule="evenodd"/>
	<path id="合并" d="M37.2671 20.8744L25.3794 27.8323C24.4116 28.3989 24.0962 29.6047 24.6626 30.5727C25.2295 31.5407 26.4351 31.8561 27.4028 31.2896L32.0742 28.5554L41.5488 34.0423C42.5195 34.6044 43.7236 34.2834 44.2861 33.3128C44.8481 32.3421 44.5269 31.1378 43.5566 30.5757L36.0498 26.2285L39.2905 24.3316C40.2588 23.765 40.5742 22.5592 40.0073 21.5912C39.4409 20.6232 38.2349 20.3078 37.2671 20.8744ZM38.4727 43.8961L51.2749 36.5945C52.2495 36.0389 52.5781 34.8367 52.0225 33.8624C51.4668 32.8881 50.2646 32.5591 49.2905 33.1148L36.4878 40.4164C36.4053 40.4634 36.3228 40.4635 36.2402 40.4166L23.3716 33.1128C22.3965 32.5591 21.1948 32.8905 20.6411 33.866C20.0874 34.8415 20.4189 36.0429 21.3945 36.5966L34.2627 43.9005C34.9155 44.271 35.6177 44.4559 36.3682 44.4551C37.1191 44.4543 37.8203 44.268 38.4727 43.8961ZM51.2749 44.6727L38.4727 51.9742C37.8203 52.3461 37.1191 52.5325 36.3682 52.5333C35.6177 52.534 34.9155 52.3492 34.2627 51.9786L21.3945 44.6747C20.4189 44.1211 20.0874 42.9196 20.6411 41.9441C21.1948 40.9687 22.3965 40.6372 23.3716 41.1909L36.2402 48.4948C36.3228 48.5416 36.4053 48.5415 36.4878 48.4945L49.2905 41.1929C50.2646 40.6373 51.4668 40.9662 52.0225 41.9405C52.5781 42.9149 52.2495 44.117 51.2749 44.6727Z" clip-rule="evenodd" fill="url(#paint_linear_7_154_0)" fill-opacity="1.000000" fill-rule="evenodd"/>
</svg>
