<?xml version="1.0" standalone="no"?><!DOCTYPE svg PUBLIC "-//W3C//DTD SVG 1.1//EN" "http://www.w3.org/Graphics/SVG/1.1/DTD/svg11.dtd"><svg t="1783011890973" class="icon" viewBox="0 0 1024 1024" version="1.1" xmlns="http://www.w3.org/2000/svg" p-id="4728" xmlns:xlink="http://www.w3.org/1999/xlink" width="16" height="16"><path d="M512 128a212.48 212.48 0 0 1 198.528 136.789333 151.381333 151.381333 0 0 0-62.037333 9.301334 151.68 151.68 0 0 0-283.690667 29.354666 183.253333 183.253333 0 0 0-61.269333-3.626666A212.352 212.352 0 0 1 512 128z" fill="#0470FF" p-id="4729"></path><path d="M322.389333 298.666667c42.837333 0 80.768 13.354667 113.749334 40.106666l52.053333 47.061334-43.093333 43.093333-51.754667-47.445333c-21.504-17.28-45.184-25.941333-70.954667-25.941334-50.304 0-91.050667 42.453333-91.050666 94.848 0 52.352 40.746667 94.805333 91.050666 94.805334h128.64c-51.584 37.930667-94.464 56.874667-128.64 56.874666a151.722667 151.722667 0 1 1 0-303.402666z" fill="#00C5DA" p-id="4730"></path><path d="M701.610667 298.666667a151.722667 151.722667 0 1 1 0 303.402666H322.389333l258.474667-249.557333C619.946667 316.629333 660.138667 298.666667 701.610667 298.666667z m-3.882667 56.874666c-27.690667 0-66.645333 25.301333-116.864 75.861334l-120.405333 111.146666c112.554667 1.621333 188.245333 2.474667 227.157333 2.602667h10.112a94.805333 94.805333 0 0 0 0-189.610667z" fill="#00A3FE" p-id="4731"></path><path d="M142.762667 900.224v-126.890667h45.226666v-25.813333H66.645333v25.813333h45.312v126.890667h30.805334z m120.746666 2.56c16.384 0 29.909333-4.010667 40.576-12.117333 10.666667-8.106667 18.304-20.48 22.869334-37.12l-29.866667-9.472c-2.56 11.178667-6.826667 19.370667-12.714667 24.576a30.890667 30.890667 0 0 1-21.162666 7.808 33.834667 33.834667 0 0 1-27.093334-12.288c-6.954667-8.192-10.410667-21.930667-10.410666-41.258667 0-18.176 3.541333-31.36 10.581333-39.466667a34.730667 34.730667 0 0 1 27.562667-12.202666c8.192 0 15.146667 2.304 20.906666 6.869333a32.384 32.384 0 0 1 11.264 18.773333l30.506667-7.296c-3.456-12.245333-8.661333-21.589333-15.616-28.16-11.648-11.008-26.837333-16.554667-45.525333-16.554666-21.376 0-38.656 7.04-51.754667 21.12-13.141333 14.08-19.712 33.792-19.712 59.221333 0 24.021333 6.528 42.965333 19.626667 56.832 13.013333 13.824 29.696 20.778667 49.962666 20.778667z m112.298667-2.56v-66.773333h60.416v66.773333h30.848v-152.746667h-30.848v60.16H375.808v-60.16h-30.805333v152.746667h30.805333z m164.821333 2.474667c16.384 0 29.994667-5.504 40.789334-16.512s16.213333-24.874667 16.213333-41.6c0-16.64-5.376-30.293333-16.085333-41.216-10.666667-10.837333-24.405333-16.298667-41.130667-16.298667-10.837333 0-20.650667 2.389333-29.44 7.210667a49.322667 49.322667 0 0 0-20.352 20.821333 59.861333 59.861333 0 0 0-7.210667 28.245333c0 12.672 2.432 23.466667 7.210667 32.341334 4.778667 8.832 11.776 15.573333 20.992 20.138666 9.216 4.608 18.858667 6.869333 29.013333 6.869334z m-0.128-23.850667a24.832 24.832 0 0 1-19.242666-8.746667c-5.205333-5.845333-7.808-14.250667-7.808-25.173333 0-11.008 2.56-19.413333 7.808-25.258667a24.832 24.832 0 0 1 19.242666-8.746666c7.68 0 14.08 2.944 19.2 8.746666 5.205333 5.845333 7.808 14.165333 7.808 25.002667 0 11.093333-2.56 19.626667-7.765333 25.429333a24.661333 24.661333 0 0 1-19.2 8.746667z m107.648 23.893333a44.544 44.544 0 0 0 36.650667-19.114666v16.597333h27.178667v-110.634667h-29.269334V836.266667c0 15.786667-0.725333 25.770667-2.176 29.866666a23.04 23.04 0 0 1-21.546666 14.336 18.090667 18.090667 0 0 1-10.837334-3.114666 15.573333 15.573333 0 0 1-5.888-8.362667c-1.109333-3.498667-1.621333-13.013333-1.621333-28.586667v-50.816h-29.269333v69.973334c0 10.453333 1.28 18.602667 3.925333 24.490666a28.885333 28.885333 0 0 0 12.8 13.738667 40.618667 40.618667 0 0 0 20.053333 4.906667z m128.341334 0c16.597333 0 29.098667-3.669333 37.546666-10.965333a33.408 33.408 0 0 0 12.757334-26.154667c0-9.301333-3.072-16.554667-9.173334-21.76-6.186667-5.12-17.066667-9.472-32.64-13.013333-15.616-3.541333-24.746667-6.314667-27.349333-8.234667-1.962667-1.450667-2.944-3.242667-2.944-5.333333 0-2.432 1.109333-4.394667 3.328-5.930667 3.370667-2.133333 8.874667-3.242667 16.597333-3.242666 6.101333 0 10.794667 1.152 14.08 3.456a17.066667 17.066667 0 0 1 6.741334 9.898666l27.605333-5.12a37.802667 37.802667 0 0 0-15.232-21.845333c-7.338667-4.949333-18.602667-7.424-33.706667-7.424-15.914667 0-27.648 3.285333-35.242666 9.813333a30.72 30.72 0 0 0-11.349334 24.149334c0 10.666667 4.394667 18.944 13.141334 24.917333 6.314667 4.266667 21.290667 9.045333 44.885333 14.250667 5.077333 1.194667 8.32 2.474667 9.813333 3.84a7.68 7.68 0 0 1 2.048 5.546666c0 3.242667-1.28 5.845333-3.84 7.808-3.84 2.773333-9.514667 4.181333-17.066666 4.181334-6.912 0-12.245333-1.493333-16.042667-4.437334a21.504 21.504 0 0 1-7.637333-12.970666l-29.354667 4.48a42.24 42.24 0 0 0 17.237333 24.874666c8.789333 6.144 20.693333 9.173333 35.797334 9.173334z m112.469333 0c12.16 0 22.314667-2.816 30.378667-8.405333 8.106667-5.589333 13.994667-13.738667 17.749333-24.448l-29.141333-4.906667a23.168 23.168 0 0 1-7.082667 12.117334 17.92 17.92 0 0 1-11.562667 3.754666 22.186667 22.186667 0 0 1-16.896-7.253333c-4.522667-4.821333-6.826667-11.605333-7.082666-20.266667H938.666667c0.426667-22.442667-4.138667-39.082667-13.653334-49.92-9.514667-10.88-22.485333-16.341333-38.954666-16.341333a47.36 47.36 0 0 0-36.352 15.573333c-9.6 10.410667-14.378667 24.746667-14.378667 43.093334 0 15.36 3.669333 28.032 10.922667 38.101333 9.258667 12.586667 23.466667 18.858667 42.709333 18.858667z m-23.125333-67.328c-0.042667-7.978667 2.005333-14.293333 6.186666-18.944a20.309333 20.309333 0 0 1 15.786667-6.997333c5.973333 0 11.093333 2.218667 15.232 6.613333 4.181333 4.437333 6.357333 10.88 6.570667 19.328h-43.776z" fill="#000000" p-id="4732"></path></svg>