<?xml version="1.0" standalone="no"?><!DOCTYPE svg PUBLIC "-//W3C//DTD SVG 1.1//EN" "http://www.w3.org/Graphics/SVG/1.1/DTD/svg11.dtd"><svg t="1783229274114" class="icon" viewBox="0 0 1024 1024" version="1.1" xmlns="http://www.w3.org/2000/svg" p-id="36254" xmlns:xlink="http://www.w3.org/1999/xlink" width="16" height="16"><path d="M696.32 454.217143H578.925714V336.822857a60.416 60.416 0 0 0-60.196571-60.196571 60.416 60.416 0 0 0-60.269714 60.196571V454.217143H341.284571a60.416 60.416 0 0 0-60.196571 60.269714c0 33.133714 27.062857 60.196571 60.196571 60.196572h117.248V691.931429c0 33.133714 27.062857 60.269714 60.269715 60.269714 33.133714 0 60.196571-27.062857 60.196571-60.269714V574.610286h117.248c33.133714 0 60.269714-27.062857 60.269714-60.196572a60.416 60.416 0 0 0-60.269714-60.269714zM512 36.571429C250.148571 36.571429 36.571429 250.148571 36.571429 512a472.502857 472.502857 0 0 0 90.112 277.942857c14.262857 22.454857 35.254857 46.811429 64.512 72.411429a473.526857 473.526857 0 0 0 618.934857 19.456l2.925714-2.340572 1.609143-1.316571c24.868571-20.406857 47.835429-43.666286 68.461714-69.632A472.941714 472.941714 0 0 0 987.428571 512C987.428571 250.148571 773.851429 36.571429 512 36.571429z m346.697143 750.153142c-73.069714 40.448-154.331429 62.390857-205.897143 72.557715-99.401143 19.894857-218.989714-13.677714-263.021714-34.523429-74.386286-35.108571-97.426286-70.509714-135.753143-106.788571l-21.942857-20.918857c-51.931429-49.078857-107.227429-43.227429-124.416-5.266286A439.296 439.296 0 0 1 69.339429 512c0-101.229714 34.304-194.633143 91.867428-269.385143 75.264-43.885714 161.206857-67.145143 214.747429-77.750857 99.547429-19.821714 219.136 13.677714 263.021714 34.523429 74.605714 35.108571 97.426286 70.509714 135.972571 106.934857l21.942858 20.845714c51.419429 48.64 103.862857 42.422857 119.222857 4.608a440.32 440.32 0 0 1-57.563429 454.948571z" fill="#59B704" p-id="36255"></path></svg>