<?xml version="1.0" standalone="no"?><!DOCTYPE svg PUBLIC "-//W3C//DTD SVG 1.1//EN" "http://www.w3.org/Graphics/SVG/1.1/DTD/svg11.dtd"><svg t="1783190126497" class="icon" viewBox="0 0 1024 1024" version="1.1" xmlns="http://www.w3.org/2000/svg" p-id="8017" xmlns:xlink="http://www.w3.org/1999/xlink" width="16" height="16"><path d="M887.296 275.2c-15.552 8.96-28.864 17.856-43.456 24.32-5.44 2.432-14.656 0.96-20.16-2.24-67.712-38.72-135.04-78.08-202.432-117.12-29.44-17.152-59.136-33.792-88.32-51.328-11.008-6.656-20.288-5.888-31.04 0.512a58282.496 58282.496 0 0 1-295.68 174.72c-15.488 9.088-22.336 19.392-22.144 38.528 1.024 113.536 0.896 227.136 0.128 340.672-0.128 16 5.44 24.832 18.688 32.448 100.352 57.664 200.32 115.968 300.8 173.312 3.2 1.92 7.872 3.008 12.48 3.2a24 24 0 0 0 12.224-2.304c75.52-42.752 151.488-84.864 225.28-130.56 55.168-34.24 89.344-85.76 99.84-150.912 5.248-31.808 0.256-61.44-32.256-79.424 7.872-17.088 18.56-33.088 22.592-50.688 5.632-23.744 10.112-49.088 8.064-73.152-2.816-32.192-29.248-50.048-61.184-44.736-15.552 2.56-31.168 8.576-45.12 16-33.92 18.176-66.432 38.656-100.224 57.024-70.272 38.208-142.336 40.64-214.208 5.76-33.792-16.448-65.728-36.8-103.296-58.112l117.312-12.16c126.976-12.864 254.08-25.408 381.056-39.04 11.584-1.28 22.976-8.32 33.728-14.08 15.744-8.32 30.976-17.856 48.832-28.224 0.384 6.912 0.832 11.52 0.832 16.064 0 138.496-0.128 277.056 0.32 415.552 0 13.632-4.416 21.12-16.128 27.968a51662.464 51662.464 0 0 0-355.52 206.528 38.848 38.848 0 0 1-18.368 6.272 34.304 34.304 0 0 1-18.56-5.568c-73.472-43.52-147.456-86.144-221.312-129.088-45.44-26.432-90.624-53.44-136.64-78.976-11.712-6.528-15.36-13.696-15.36-26.304 0.512-138.624 0.64-277.12-0.064-415.616-0.064-15.872 6.656-23.552 18.688-30.464 74.048-42.624 147.904-85.44 221.76-128.32 45.44-26.432 90.56-53.632 136.576-79.04a32 32 0 0 1 26.688 0.64c82.752 47.168 164.992 95.36 247.296 143.36 33.152 19.328 66.24 38.784 99.264 58.24 2.496 1.472 4.8 3.328 8.896 6.272l0.128 0.064z" fill="#DD1741" p-id="8018"></path><path d="M512.896 874.816L304.384 395.136l118.464 63.552c25.856 14.528 48.512 32 65.408 56.768 18.048 26.496 26.56 55.936 27.968 90.304 5.76-2.24 10.24-3.264 14.08-5.568 55.232-31.872 110.464-64 165.696-96 5.312-3.072 10.624-6.464 16.256-8.96 13.696-5.824 23.04 0.512 17.728 13.824-5.184 12.928-14.272 26.944-25.6 34.24-36.352 23.616-74.88 43.712-112 66.24-47.488 28.864-71.36 72.704-76.288 127.616-0.32 3.52 0.64 7.168 1.408 14.4 29.632-16.96 57.408-32.768 85.056-48.704 34.368-19.84 68.48-40.128 103.104-59.328 6.016-3.328 16.448-7.936 21.952-2.944 5.952 5.504 2.56 18.368-1.28 23.936-7.488 10.816-17.472 20.992-28.608 27.968-32.064 19.968-67.456 34.752-98.048 57.088-64.192 47.04-86.784 125.248-86.784 125.248z" fill="#DD1741" p-id="8019"></path><path d="M517.952 892.16h-1.728a28.544 28.544 0 0 1-12.48-3.2c-100.48-57.344-200.512-115.712-300.8-173.312-13.248-7.552-18.816-16.448-18.688-32.448 0.768-113.536 0.96-227.136-0.128-340.672-0.192-19.072 6.72-29.44 22.144-38.464a50277.056 50277.056 0 0 0 295.68-174.784c10.752-6.4 20.032-7.04 31.04-0.512 29.184 17.536 58.88 34.176 88.32 51.264 67.456 39.168 134.784 78.464 202.432 117.184 5.504 3.2 14.72 4.608 20.224 2.176 14.464-6.4 27.776-15.296 43.392-24.256-4.16-2.944-6.4-4.864-8.896-6.272a31521.28 31521.28 0 0 0-99.2-58.24c-82.432-48-164.608-96.192-247.424-143.36a31.808 31.808 0 0 0-26.624-0.64c-46.08 25.408-91.072 52.544-136.576 79.04-73.984 42.88-147.904 85.76-221.952 128.32-12.032 6.912-18.752 14.528-18.688 30.464 0.768 138.496 0.576 276.992 0.256 415.552 0 12.608 3.52 19.84 15.296 26.304 46.016 25.536 91.072 52.48 136.64 78.976 73.856 42.944 147.84 85.568 221.376 129.088a35.584 35.584 0 0 0 16.448 5.504V892.16z" fill="#245EB2" p-id="8020"></path></svg>