<?xml version="1.0" standalone="no"?><!DOCTYPE svg PUBLIC "-//W3C//DTD SVG 1.1//EN" "http://www.w3.org/Graphics/SVG/1.1/DTD/svg11.dtd"><svg t="1782928610042" class="icon" viewBox="0 0 1024 1024" version="1.1" xmlns="http://www.w3.org/2000/svg" p-id="35915" xmlns:xlink="http://www.w3.org/1999/xlink" width="16" height="16"><path d="M334.5408 481.6896a32339.0976 32339.0976 0 0 1-153.4464-126.8224l-23.3984-19.3024c-16.2304-13.4144-28.7232-37.1712-1.4336-53.4528 11.8784-6.7584 215.7568-124.416 290.6624-167.9872a85.0944 85.0944 0 0 1 86.1696 0l143.5136 83.3536a16.9472 16.9472 0 0 1 0 29.4912L339.6096 420.9152a36.9152 36.9152 0 0 0-5.0176 60.7744z" fill="#FABF00" p-id="35916"></path><path d="M418.2016 619.2128L281.6 828.928a34.048 34.048 0 0 1-45.5168 10.752l-90.5728-52.5312A86.272 86.272 0 0 1 102.4 713.0624V362.9056a85.7088 85.7088 0 0 1 34.304-68.5568c-24.4224 18.8928-14.336 40.0384 1.4336 53.6064l273.92 226.1504a34.304 34.304 0 0 1 6.144 45.056z m227.2768-25.4976l153.4464 126.8224 23.3984 19.3024c16.2304 13.5168 28.672 37.3248 1.4336 53.5552-11.8784 7.0656-215.296 124.416-290.9696 168.0384a85.9648 85.9648 0 0 1-85.4016 0L303.36 878.08a17.152 17.152 0 0 1 0-29.696l337.1008-193.792a37.12 37.12 0 0 0 5.0176-60.928z" fill="#338493" p-id="35917"></path><path d="M561.7664 456.3456l136.704-209.7664a34.048 34.048 0 0 1 45.4656-10.8032L834.56 288.256a85.4016 85.4016 0 0 1 43.008 74.1888v350.1568a85.76 85.76 0 0 1-34.304 68.5056c24.4224-18.8416 14.336-39.9872-1.4336-53.5552l-273.92-226.304a34.0992 34.0992 0 0 1-6.144-44.9536z" fill="#338493" p-id="35918"></path></svg>