<?xml version="1.0" encoding="UTF-8"?>
<svg xmlns="http://www.w3.org/2000/svg" width="16" height="16" viewBox="0 0 92 92" preserveAspectRatio="xMidYMid meet">
<path d="M0 0 C0.95519531 0.66128906 0.95519531 0.66128906 1.9296875 1.3359375 C10.26245726 7.74291158 15.18453102 17.73812408 17.6875 27.75 C19.22240039 43.71296406 15.92990433 55.18263553 6.75 68.1875 C-2.46011585 77.60693666 -14.35000796 83.03428584 -27.5625 83.25 C-40.9248236 83.08604511 -52.40976834 78.3771154 -62 69 C-71.29564259 57.76350896 -74.93635535 45.44414824 -74 31 C-72.75018987 22.60085229 -69.88716868 15.90944537 -65 9 C-64.55914062 8.36320312 -64.11828125 7.72640625 -63.6640625 7.0703125 C-57.25708842 -1.26245726 -47.26187592 -6.18453102 -37.25 -8.6875 C-23.29551988 -10.02927693 -11.58804096 -8.19641922 0 0 Z " fill="#59A0C3" transform="translate(74,9)"/>
<path d="M0 0 C0.5 3.0625 0.5 3.0625 0 7 C-2.38823271 9.71294856 -5.09251712 11.86481726 -8 14 C-8.66 13.67 -9.32 13.34 -10 13 C-9.43410156 12.52949219 -8.86820313 12.05898438 -8.28515625 11.57421875 C-7.55167969 10.95160156 -6.81820312 10.32898437 -6.0625 9.6875 C-5.33160156 9.07261719 -4.60070313 8.45773437 -3.84765625 7.82421875 C-1.76179634 6.04024481 -1.76179634 6.04024481 -1 3 C-4.59216987 4.01029778 -6.82370532 5.63581914 -9.5 8.125 C-13.02241095 11.30458088 -16.75806913 14.00887121 -20.75 16.5625 C-21.83796875 17.26503906 -22.9259375 17.96757812 -24.046875 18.69140625 C-27 20 -27 20 -29.203125 19.33984375 C-29.79609375 18.89769531 -30.3890625 18.45554687 -31 18 C-35.02602516 15.31598323 -38.26770983 15.31672816 -43 16 C-45.54366927 17.68392126 -45.54366927 17.68392126 -48 20 C-49.59047571 20.77861268 -51.19662968 21.52555966 -52.8125 22.25 C-58.27664527 24.86328687 -62.00962762 28.5080445 -66 33 C-67.69132727 27.92601819 -65.17915273 23.6893922 -63 19 C-56.36204944 7.4848698 -46.68273461 -0.08892498 -34 -4 C-23.01995944 -6.86435841 -9.97858518 -5.41291177 0 0 Z " fill="#0B7DA9" transform="translate(68,5)"/>
<path d="M0 0 C6.54023142 1.83944009 12.38190408 7.34951687 16 13 C16.17595459 17.57481942 15.0459998 20.38347787 12.25 23.875 C7.25544813 29.19077824 1.10529758 33.08179004 -5 37 C-5.87398437 37.58136719 -6.74796875 38.16273437 -7.6484375 38.76171875 C-10 40 -10 40 -14 40 C-14 38.68 -14 37.36 -14 36 C-11.52153343 34.20431487 -9.14657018 32.69224085 -6.5 31.1875 C-0.47071073 27.61060021 4.99873679 23.96836016 10 19 C9.23429687 19.58587891 9.23429687 19.58587891 8.453125 20.18359375 C-0.36330766 26.71168481 -9.53112646 32.80816461 -18.75 38.75 C-19.75015137 39.41334351 -19.75015137 39.41334351 -20.77050781 40.09008789 C-25.49661689 43.08972286 -25.49661689 43.08972286 -28.20800781 42.60644531 C-29.09504395 42.30625488 -29.09504395 42.30625488 -30 42 C-29.77832031 40.18017578 -29.77832031 40.18017578 -29 38 C-27.07324219 36.51123047 -27.07324219 36.51123047 -24.546875 35.1171875 C-23.62277832 34.59406982 -22.69868164 34.07095215 -21.74658203 33.53198242 C-20.75770996 32.98517822 -19.76883789 32.43837402 -18.75 31.875 C-9.90522285 26.83833113 -1.81094923 21.52877455 6 15 C3.99440082 16.33706612 2.00715455 17.70206485 0.0390625 19.09375 C-0.51523438 19.48433594 -1.06953125 19.87492187 -1.640625 20.27734375 C-2.79166197 21.08877297 -3.94013499 21.90385218 -5.0859375 22.72265625 C-8.28057306 24.96333814 -11.3067015 26.72740277 -15 28 C-15.33 26.68 -15.66 25.36 -16 24 C-15.28972656 23.50628906 -14.57945313 23.01257813 -13.84765625 22.50390625 C-12.92855469 21.86324219 -12.00945313 21.22257812 -11.0625 20.5625 C-10.14597656 19.92441406 -9.22945312 19.28632813 -8.28515625 18.62890625 C-6.13879294 17.1939118 -6.13879294 17.1939118 -5 16 C-5.763125 16.515625 -6.52625 17.03125 -7.3125 17.5625 C-8.199375 18.036875 -9.08625 18.51125 -10 19 C-10.99 18.67 -11.98 18.34 -13 18 C-11.54140869 14.36144884 -9.70671192 12.86868879 -6.5 10.6875 C-3.38644801 8.3785738 -1.473449 6.85330598 -0.4375 3.0625 C-0.293125 2.051875 -0.14875 1.04125 0 0 Z " fill="#F0F5F8" transform="translate(68,6)"/>
<path d="M0 0 C0.66 0 1.32 0 2 0 C2 2.33333333 2 4.66666667 2 7 C2.33 7 2.66 7 3 7 C3.1080924 12.08034268 1.91601601 14.59591065 -1.5625 18.3125 C-7.26589201 23.65655067 -17.91975744 33 -26 33 C-25.91015625 31.265625 -25.91015625 31.265625 -25 29 C-22.82247806 27.41529611 -20.76223089 26.07281842 -18.4375 24.75 C-17.82197266 24.38648437 -17.20644531 24.02296875 -16.57226562 23.6484375 C-15.05473967 22.7543912 -13.52819561 21.87568372 -12 21 C-16.625 24 -16.625 24 -20 24 C-20 22.68 -20 21.36 -20 20 C-18 18.25 -18 18.25 -16 17 C-17.64305314 17.98198098 -19.28596768 18.96419452 -20.92822266 19.94750977 C-22.312571 20.7760633 -23.69766664 21.60336949 -25.08349609 22.42944336 C-28.65448303 24.56452032 -32.16448702 26.75103766 -35.625 29.0625 C-38.86226859 30.92093197 -40.36020212 31.56871842 -44 31 C-43.78271484 29.18457031 -43.78271484 29.18457031 -43 27 C-41.04150391 25.47949219 -41.04150391 25.47949219 -38.4765625 24.046875 C-37.54231445 23.51344482 -36.60806641 22.98001465 -35.64550781 22.43041992 C-34.15035645 21.59861206 -34.15035645 21.59861206 -32.625 20.75 C-25.36108369 16.6034463 -18.42264893 12.45158827 -11.828125 7.29296875 C-10 6 -10 6 -8 6 C-8 7.65 -8 9.3 -8 11 C-7.21625 10.21625 -6.4325 9.4325 -5.625 8.625 C-4.08333333 7.08333333 -2.54166667 5.54166667 -1 4 C-0.3574765 1.93125966 -0.3574765 1.93125966 0 0 Z " fill="#D0E4ED" transform="translate(87,28)"/>
<path d="M0 0 C4.59306496 1.4859916 7.43569245 3.85014682 11 7 C8.89928157 12.06383706 6.17663793 14.91270374 1.8125 18.0625 C1.23387207 18.49151611 0.65524414 18.92053223 0.05908203 19.36254883 C-1.61545085 20.59264153 -3.30320818 21.80085751 -5 23 C-5.83402344 23.59039063 -6.66804688 24.18078125 -7.52734375 24.7890625 C-9.625 26.1875 -9.625 26.1875 -13 28 C-13.99 27.67 -14.98 27.34 -16 27 C-15.87890625 25.265625 -15.87890625 25.265625 -15 23 C-12.27734375 20.859375 -12.27734375 20.859375 -8.9375 18.75 C-7.83277344 18.04359375 -6.72804688 17.3371875 -5.58984375 16.609375 C-4.73519531 16.07828125 -3.88054687 15.5471875 -3 15 C-3.90492187 15.46019531 -3.90492187 15.46019531 -4.828125 15.9296875 C-7.17475573 17.08612063 -9.5626303 18.052134 -12 19 C-12 17.68 -12 16.36 -12 15 C-9.8828125 13.10546875 -9.8828125 13.10546875 -7.125 11.1875 C-2.646763 7.88584299 -2.646763 7.88584299 -0.375 3 C-0.25125 2.01 -0.1275 1.02 0 0 Z " fill="#E6EFF5" transform="translate(68,6)"/>
<path d="M0 0 C0.3359375 2.2421875 0.3359375 2.2421875 0 5 C-2.2109375 7.0703125 -2.2109375 7.0703125 -5.375 9.125 C-5.94283203 9.49681396 -6.51066406 9.86862793 -7.09570312 10.25170898 C-9.0519006 11.52068533 -11.02573855 12.7593364 -13 14 C-14.56516354 15.00902249 -16.13026543 16.01814061 -17.6953125 17.02734375 C-19.29545003 18.04131473 -20.89700097 19.05305888 -22.5 20.0625 C-23.64734619 20.79654053 -23.64734619 20.79654053 -24.81787109 21.54541016 C-31.55148705 25.69728675 -31.55148705 25.69728675 -36 25 C-35.78271484 23.18457031 -35.78271484 23.18457031 -35 21 C-33.04150391 19.47949219 -33.04150391 19.47949219 -30.4765625 18.046875 C-29.54231445 17.51344482 -28.60806641 16.98001465 -27.64550781 16.43041992 C-26.15035645 15.59861206 -26.15035645 15.59861206 -24.625 14.75 C-17.36108369 10.6034463 -10.42264893 6.45158827 -3.828125 1.29296875 C-2 0 -2 0 0 0 Z " fill="#F4F7FA" transform="translate(79,34)"/>
<path d="M0 0 C-0.87382675 5.43311587 -4.82695539 7.80696949 -9 11 C-12.53017749 13.43974935 -16.14888527 15.70446401 -19.8125 17.9375 C-20.75287109 18.52595703 -21.69324219 19.11441406 -22.66210938 19.72070312 C-29.61534553 24 -29.61534553 24 -33 24 C-33 22.68 -33 21.36 -33 20 C-31.30688477 18.57128906 -31.30688477 18.57128906 -28.94140625 17.265625 C-28.08417969 16.77739258 -27.22695313 16.28916016 -26.34375 15.78613281 C-25.4259375 15.27920898 -24.508125 14.77228516 -23.5625 14.25 C-16.90745635 10.44878467 -10.9857616 6.88346336 -5.65625 1.328125 C-4 0 -4 0 0 0 Z " fill="#F0F5F8" transform="translate(67,8)"/>
<path d="M0 0 C0.66 0.33 1.32 0.66 2 1 C1.34 2.32 0.68 3.64 0 5 C3.45925163 3.7508258 6.14693203 2.32472205 9 0 C9.66 0.33 10.32 0.66 11 1 C2.70097357 7.59944367 2.70097357 7.59944367 -1.0625 9.75 C-1.701875 10.1625 -2.34125 10.575 -3 11 C-3 11.99 -3 12.98 -3 14 C0.71154817 12.65935182 3.67710575 10.99141423 6.875 8.6875 C7.73609375 8.07132813 8.5971875 7.45515625 9.484375 6.8203125 C10.31453125 6.21960938 11.1446875 5.61890625 12 5 C13.37458111 4.02024538 14.74951981 3.04099201 16.125 2.0625 C17.07375 1.381875 18.0225 0.70125 19 0 C15.84966345 8.26963346 4.32776603 13.69127907 -3.234375 17.22265625 C-3.81703125 17.47917969 -4.3996875 17.73570313 -5 18 C-7.40814077 14.48812804 -8.36629408 12.27343092 -8 8 C-8.66 7.67 -9.32 7.34 -10 7 C-6.7 4.69 -3.4 2.38 0 0 Z " fill="#4296BB" transform="translate(56,19)"/>
<path d="M0 0 C0.33 0 0.66 0 1 0 C1.1080924 5.08034268 -0.08398399 7.59591065 -3.5625 11.3125 C-9.26589201 16.65655067 -19.91975744 26 -28 26 C-27.87109375 24.234375 -27.87109375 24.234375 -27 22 C-24.41015625 20.140625 -24.41015625 20.140625 -21.0625 18.25 C-12.80920785 13.41819283 -4.86415645 8.45940252 0 0 Z " fill="#F7FAFB" transform="translate(89,35)"/>
<path d="M0 0 C0.33 0.66 0.66 1.32 1 2 C-3.32828179 9.56079604 -8.7901735 16.0273552 -16 21 C-19.13315869 21.79189725 -20.77518984 21.60845475 -24 21 C-22.31008103 16.90551971 -20.40402985 16.27057303 -16.4296875 14.47265625 C-12.12945721 11.86624657 -8.85686539 8.08243042 -5.41796875 4.4609375 C-3 2 -3 2 0 0 Z " fill="#2F8FB8" transform="translate(64,71)"/>
<path d="M0 0 C1.32 0.66 2.64 1.32 4 2 C4 5.83138431 3.8905575 7.97835577 1.328125 10.91796875 C-2.14021676 13.97558583 -5.77727537 17.0696116 -10 19 C-10.99 18.67 -11.98 18.34 -13 18 C-11.54140869 14.36144884 -9.70671192 12.86868879 -6.5 10.6875 C-3.38644801 8.3785738 -1.473449 6.85330598 -0.4375 3.0625 C-0.293125 2.051875 -0.14875 1.04125 0 0 Z " fill="#EEF4F8" transform="translate(68,6)"/>
<path d="M0 0 C0 0.66 0 1.32 0 2 C-2.97511271 4.87594228 -6.09704754 6.5497082 -9.8125 8.25 C-15.27664527 10.86328687 -19.00962762 14.5080445 -23 19 C-24.13643966 15.59068103 -23.86747764 14.99664544 -22.5625 11.8125 C-22.27503906 11.09707031 -21.98757812 10.38164062 -21.69140625 9.64453125 C-21.34916016 8.83048828 -21.34916016 8.83048828 -21 8 C-19.205625 7.87625 -19.205625 7.87625 -17.375 7.75 C-13.09014813 7.24098391 -10.47799261 5.56708979 -7 3 C-6.34 3 -5.68 3 -5 3 C-5 2.34 -5 1.68 -5 1 C-3 0 -3 0 0 0 Z M-11 2 C-10.34 2.33 -9.68 2.66 -9 3 C-10.32 3.99 -11.64 4.98 -13 6 C-12.34 4.68 -11.68 3.36 -11 2 Z " fill="#2C8FB7" transform="translate(25,19)"/>
<path d="M0 0 C2.48144231 2.15777592 3.70683556 3.67746968 4 7 C2.79265672 11.96352238 -0.63557481 15.32875616 -4 19 C-4.66 18.67 -5.32 18.34 -6 18 C-5.67 16.35 -5.34 14.7 -5 13 C-5.99 12.67 -6.98 12.34 -8 12 C-7.59007813 11.55269531 -7.18015625 11.10539062 -6.7578125 10.64453125 C-3.74359926 7.26255515 -1.33949455 4.420332 0 0 Z " fill="#0F77A4" transform="translate(84,21)"/>
<path d="M0 0 C0.66 0.33 1.32 0.66 2 1 C1.34 2.32 0.68 3.64 0 5 C3.45925163 3.7508258 6.14693203 2.32472205 9 0 C9.66 0.33 10.32 0.66 11 1 C1.77448747 8.66742597 1.77448747 8.66742597 -4 10 C-4.66 8.02 -5.32 6.04 -6 4 C-4.02 2.68 -2.04 1.36 0 0 Z " fill="#2D8FB6" transform="translate(56,19)"/>
<path d="M0 0 C0.33 0.66 0.66 1.32 1 2 C-3.48810199 9.83997564 -9.19302169 15.19832276 -16 21 C-16.99 20.67 -17.98 20.34 -19 20 C-18.50371094 19.5875 -18.00742187 19.175 -17.49609375 18.75 C-10.86596681 13.11376306 -5.35094038 6.84920369 0 0 Z " fill="#238CB5" transform="translate(64,71)"/>
<path d="M0 0 C0 1.32 0 2.64 0 4 C-3 6.25 -3 6.25 -6 8 C-7.32 7.34 -8.64 6.68 -10 6 C-8.20404732 1.26521567 -5.07984355 -1.69328118 0 0 Z " fill="#EDF3F8" transform="translate(40,60)"/>
<path d="M0 0 C0.66 0.33 1.32 0.66 2 1 C-2.75 5 -2.75 5 -5 5 C-5 6.32 -5 7.64 -5 9 C-3.88625 8.319375 -2.7725 7.63875 -1.625 6.9375 C0.2734375 5.77734375 0.2734375 5.77734375 2 5 C2.66 5.33 3.32 5.66 4 6 C2.58833114 6.98635837 1.17043816 7.96381255 -0.25 8.9375 C-1.03890625 9.48277344 -1.8278125 10.02804688 -2.640625 10.58984375 C-4.82636993 11.89622441 -6.5153801 12.54980511 -9 13 C-8.72387317 9.04218214 -8.25946652 7.30043492 -5.625 4.25 C-3 2 -3 2 0 0 Z " fill="#4397BD" transform="translate(72,43)"/>
<path d="M0 0 C2.31 1.65 4.62 3.3 7 5 C6.01 6.98 5.02 8.96 4 11 C3.67 9.68 3.34 8.36 3 7 C1.68 7 0.36 7 -1 7 C-0.67 4.69 -0.34 2.38 0 0 Z " fill="#0D77A4" transform="translate(72,8)"/>
<path d="M0 0 C0.66 0.33 1.32 0.66 2 1 C-3.94 6.445 -3.94 6.445 -10 12 C-10 9 -10 9 -7.8125 6.5625 C-5.28225355 4.25716434 -2.70944196 2.09014094 0 0 Z " fill="#4997BE" transform="translate(14,29)"/>
<path d="M0 0 C0 0.66 0 1.32 0 2 C-3 4 -3 4 -7 4 C-6.625 2.0625 -6.625 2.0625 -6 0 C-3.50907189 -1.24546405 -2.58919267 -0.7767578 0 0 Z " fill="#F0F5F8" transform="translate(59,62)"/>
<path d="M0 0 C-0.33 1.32 -0.66 2.64 -1 4 C-2.65 4.33 -4.3 4.66 -6 5 C-5.625 3.0625 -5.625 3.0625 -5 1 C-3 0 -3 0 0 0 Z " fill="#F4F7FA" transform="translate(32,31)"/>
<path d="M0 0 C0.66 0 1.32 0 2 0 C2.66 1.32 3.32 2.64 4 4 C2.02 4.99 2.02 4.99 0 6 C-0.66 4.68 -1.32 3.36 -2 2 C-1.34 1.34 -0.68 0.68 0 0 Z " fill="#CBDEEB" transform="translate(32,62)"/>
<path d="M0 0 C0.99 0 1.98 0 3 0 C3.33 1.32 3.66 2.64 4 4 C2.35 4.33 0.7 4.66 -1 5 C-0.67 3.35 -0.34 1.7 0 0 Z " fill="#E6EFF5" transform="translate(34,47)"/>
<path d="M0 0 C3.24271506 0.5590888 4.93057424 1.4132178 7 4 C7 4.66 7 5.32 7 6 C4.50638429 4.79618552 2.31856917 3.54571278 0 2 C0 1.34 0 0.68 0 0 Z " fill="#2E8FB8" transform="translate(34,19)"/>
</svg>
