<?xml version="1.0" standalone="no"?><!DOCTYPE svg PUBLIC "-//W3C//DTD SVG 1.1//EN" "http://www.w3.org/Graphics/SVG/1.1/DTD/svg11.dtd"><svg t="1783188823150" class="icon" viewBox="0 0 1024 1024" version="1.1" xmlns="http://www.w3.org/2000/svg" p-id="4518" xmlns:xlink="http://www.w3.org/1999/xlink" width="16" height="16"><path d="M947.2 275.2c25.6 0 44.8-19.2 44.8-44.8V140.8c0-25.6-19.2-44.8-44.8-44.8H220.8c-32 0-60.8 12.8-86.4 35.2L41.6 224c-19.2 19.2-6.4 51.2 22.4 51.2h211.2v326.4c0 73.6-25.6 140.8-67.2 198.4-12.8 16-9.6 41.6 6.4 57.6l64 64c19.2 19.2 51.2 16 67.2-3.2 73.6-89.6 112-198.4 112-316.8V275.2h121.6v438.4c0 102.4 70.4 198.4 172.8 217.6 80 16 156.8-16 204.8-76.8l32-41.6c16-19.2 12.8-48-6.4-64l-70.4-57.6c-19.2-16-48-12.8-64 6.4l-32 41.6c-6.4 6.4-16 12.8-25.6 12.8-16 0-32-12.8-32-32v-448h188.8z" fill="#d81e06" p-id="4519"></path></svg>