<?xml version="1.0" standalone="no"?><!DOCTYPE svg PUBLIC "-//W3C//DTD SVG 1.1//EN" "http://www.w3.org/Graphics/SVG/1.1/DTD/svg11.dtd"><svg t="1782897774433" class="icon" viewBox="0 0 1024 1024" version="1.1" xmlns="http://www.w3.org/2000/svg" p-id="21207" xmlns:xlink="http://www.w3.org/1999/xlink" width="16" height="16"><path d="M768.364 742.545l10.909 1.819c81.818 10.909 112.727 29.09 125.454 41.818C912 793.455 912 798.909 912 802.545c0 23.637-32.727 41.819-94.545 54.546h-9.091C746.545 868 655.636 873.455 522.909 875.273V731.636h20c94.546 0 167.273 3.637 225.455 10.91v-0.001z m-505.455 0V868h-3.636c-50.91-9.09-116.364-25.455-140-50.91-5.455-5.454-7.273-10.908-7.273-14.545 0-3.636 1.818-7.272 7.273-12.727L121.09 788c10.909-9.09 27.273-16.364 40-20 23.636-10.91 58.182-18.182 101.819-25.455zM112 333.455c3.636 1.818 5.455 3.636 9.09 3.636l5.455 1.818 16.364 5.455c32.727 10.909 67.273 20 120 27.272v278.182c-52.727 5.455-87.273 14.546-118.182 25.455-3.636 1.818-5.454 1.818-9.09 3.636-1.819 1.818-5.455 1.818-7.273 3.636l-5.455 1.819-3.636 1.818-3.637 1.818-3.636 1.818V333.455z m800 0V688l-3.636-1.818-3.637-1.818c-1.818-1.819-3.636-1.819-5.454-1.819h-1.818l-7.273-3.636-3.637-1.818-5.454-1.818-5.455-1.818-3.636-1.819-5.455-1.818c-1.818 0-5.454-1.818-7.272-1.818h-1.818c-3.637 0-5.455-1.818-9.091-1.818l-3.637-1.818-5.454-1.819-7.273-1.818-9.09-1.818h-3.637l-5.455-1.818H802.91l-9.09-1.818c-3.637 0-5.455 0-9.092-1.818h-3.636l-10.91-1.819h-9.09l-7.273-1.818h-7.273c-40-3.636-87.272-7.273-140-9.09h-81.818V384.363h20c114.546-1.819 201.818-7.273 267.273-18.182l14.545-1.818h3.637l7.273-1.819 9.09-1.818L852 358.91l7.273-1.818 7.272-1.818 7.273-1.818c3.637-1.819 9.091-3.637 12.727-3.637 1.819 0 3.637-1.818 7.273-1.818l3.637-1.818 3.636-1.818 3.636-1.819 3.637-1.818L912 338.91v-5.455zM350.182 644.364V378.909c18.182 1.818 47.273 1.818 87.273 3.636v258.182c-32.728 0-60 1.818-87.273 3.637zM817.455 168l9.09 1.818c40 9.091 85.455 23.637 85.455 50.91 0 20-36.364 38.181-98.182 50.908l-5.454 1.819c-65.455 12.727-158.182 18.181-281.819 18.181V148h27.273c120 1.818 205.455 9.09 263.637 20z m-554.546-12.727v125.454c-45.454-5.454-72.727-12.727-98.182-21.818l-3.636-1.818-7.273-1.818c-12.727-5.455-30.909-14.546-38.182-25.455-1.818-1.818-3.636-3.636-3.636-5.454v-3.637c0-7.272 9.09-16.363 23.636-25.454 18.182-10.91 41.819-20 74.546-27.273 18.182-5.455 32.727-9.09 52.727-12.727z" fill="#FF6A00" p-id="21208"></path></svg>