<?xml version="1.0" standalone="no"?><!DOCTYPE svg PUBLIC "-//W3C//DTD SVG 1.1//EN" "http://www.w3.org/Graphics/SVG/1.1/DTD/svg11.dtd"><svg t="1783188533516" class="icon" viewBox="0 0 1024 1024" version="1.1" xmlns="http://www.w3.org/2000/svg" p-id="1724" xmlns:xlink="http://www.w3.org/1999/xlink" width="16" height="16"><path d="M458.752 916.48v-43.008c-75.776-4.096-144.384-32.768-198.656-78.848l-30.72 30.72c62.464 53.248 142.336 87.04 229.376 91.136zM144.384 567.296H101.376c6.144 90.112 45.056 172.032 103.424 234.496l30.72-30.72C184.32 716.8 150.528 645.12 144.384 567.296zM100.352 532.48H143.36c2.048-78.848 31.744-151.552 79.872-206.848l-30.72-30.72C137.216 358.4 102.4 441.344 100.352 532.48zM458.752 164.864c-94.208 4.096-179.2 43.008-242.688 104.448l30.72 30.72c56.32-53.248 130.048-87.04 211.968-91.136v-44.032zM851.968 567.296H808.96c-6.144 77.824-39.936 149.504-91.136 202.752l30.72 30.72c58.368-61.44 97.28-143.36 103.424-233.472zM493.568 873.472v43.008c87.04-4.096 166.912-37.888 229.376-92.16l-30.72-30.72c-54.272 47.104-122.88 75.776-198.656 79.872zM730.112 324.608c48.128 56.32 77.824 128 79.872 206.848h43.008c-2.048-91.136-36.864-174.08-92.16-237.568l-30.72 30.72zM493.568 164.864v43.008c81.92 4.096 156.672 37.888 211.968 91.136l30.72-30.72c-63.488-60.416-148.48-99.328-242.688-103.424z" fill="#333333" opacity=".6" p-id="1725"></path><path d="M436.224 885.76V849.92c-62.464-3.072-118.784-27.648-163.84-65.536l-25.6 25.6c52.224 45.056 117.76 72.704 189.44 75.776zM177.152 598.016h-35.84c5.12 74.752 36.864 142.336 84.992 192.512l25.6-25.6c-41.984-44.032-69.632-102.4-74.752-166.912zM141.312 569.344h35.84c2.048-64.512 25.6-123.904 65.536-171.008l-25.6-25.6c-46.08 54.272-73.728 121.856-75.776 196.608zM436.224 267.264c-77.824 3.072-147.456 35.84-199.68 86.016l25.6 25.6c46.08-44.032 107.52-71.68 175.104-75.776v-35.84zM759.808 598.016h-35.84c-5.12 64.512-32.768 122.88-74.752 167.936l25.6 25.6c48.128-51.2 79.872-118.784 84.992-193.536zM464.896 850.944v35.84c71.68-3.072 137.216-31.744 188.416-75.776l-25.6-25.6c-44.032 37.888-100.352 61.44-162.816 65.536zM659.456 399.36c38.912 46.08 63.488 105.472 65.536 171.008h35.84c-2.048-74.752-29.696-143.36-75.776-195.584L659.456 399.36zM464.896 267.264v35.84c67.584 3.072 129.024 31.744 175.104 75.776l25.6-25.6c-53.248-50.176-122.88-82.944-200.704-86.016z" fill="#333333" opacity=".3" p-id="1726"></path><path d="M494.592 957.44v-51.2c-89.088-4.096-171.008-38.912-235.52-94.208l-35.84 35.84c72.704 64.512 167.936 105.472 271.36 109.568zM121.856 543.744h-51.2c7.168 107.52 52.224 203.776 122.88 277.504l35.84-35.84c-60.416-64.512-100.352-148.48-107.52-241.664zM69.632 502.784h51.2c2.048-93.184 37.888-179.2 94.208-245.76l-35.84-35.84C112.64 296.96 71.68 395.264 69.632 502.784zM494.592 67.584c-111.616 5.12-211.968 51.2-287.744 123.904l35.84 35.84c66.56-63.488 153.6-103.424 250.88-108.544v-51.2zM958.464 543.744h-51.2c-7.168 93.184-47.104 177.152-107.52 240.64l35.84 35.84c70.656-72.704 115.712-168.96 122.88-276.48zM535.552 906.24v51.2c103.424-5.12 197.632-45.056 271.36-108.544l-35.84-35.84c-64.512 54.272-146.432 89.088-235.52 93.184zM814.08 257.024c56.32 66.56 92.16 151.552 94.208 244.736h51.2c-2.048-106.496-43.008-204.8-108.544-280.576l-36.864 35.84zM535.552 67.584v51.2c97.28 5.12 185.344 45.056 250.88 108.544l35.84-35.84C747.52 118.784 646.144 72.704 535.552 67.584z" fill="#333333" p-id="1727"></path></svg>