<?xml version="1.0" encoding="utf-8"?>
<!-- Generator: Adobe Illustrator 24.0.1, SVG Export Plug-In . SVG Version: 6.00 Build 0)  -->
<svg width="16" height="16" version="1.1" id="图层_1" xmlns="http://www.w3.org/2000/svg" xmlns:xlink="http://www.w3.org/1999/xlink" x="0px" y="0px"
	 viewBox="0 0 250 250"  xml:space="preserve">
<style type="text/css">
	.st0{fill-rule:evenodd;clip-rule:evenodd;fill:#FFFFFF;}
	.st1{fill:#052A62;}
	.st2{fill:#F4500B;}
	.st3{fill-rule:evenodd;clip-rule:evenodd;fill:#052A62;}
</style>
<g id="画板备份-7">
	<rect y="0" class="st0" width="250" height="250"/>
	<g id="编组-3" >
		<path id="形状" class="st3" d="M124.5,0c48.1,0,89.9,27.3,110.6,67.3L236,69c0.4,0.7,0.7,1.5,1.1,2.2l0.7,1.4l0.4,0.8l0.4,0.9
			l0.3,0.8l0.5,1.1l0.3,0.8l0.4,0.9c0.3,0.8,0.6,1.5,0.9,2.3l0.5,1.3l0.3,0.8l0.4,1c0.3,0.8,0.5,1.6,0.8,2.3l0.4,1.3l0.3,0.8
			l0.3,1.1l0.2,0.8l0.3,1.1l0.2,0.8l0.3,1.1l0.2,0.8l0.3,1l0.2,0.9l0.3,1.1l0.2,0.9l0.2,1c0.2,0.8,0.3,1.6,0.5,2.5l0.3,1.5l0.2,0.9
			l0.2,1.1l0.1,0.9l0.2,1l0.1,0.9l0.1,1.1l0.1,0.9l0.1,1.1c0.3,2.8,0.5,5.6,0.7,8.5l0.1,1.4l0,1l0,1.3l0,0.9l0,1.1
			c0,68.8-55.7,124.5-124.5,124.5l-1.6,0l-0.6,0l-0.9,0l-1.1,0l-0.9,0l-1.1,0l-0.8,0l-1.2-0.1l-0.9-0.1l-1.3-0.1l-0.8-0.1l-1.2-0.1
			l-0.8-0.1l-1-0.1l-0.9-0.1l-1.2-0.2l-0.9-0.1l-1.1-0.2c-0.8-0.1-1.6-0.2-2.4-0.4l-1.4-0.2l-1-0.2l-1.1-0.2l-0.9-0.2l-1-0.2
			l-0.9-0.2l-1.2-0.3C41.1,233,0,183.6,0,124.5C0,55.7,55.7,0,124.5,0z M124.5,9C60.7,9,9,60.7,9,124.5c0,49.1,30.7,91.1,73.9,107.8
			c4.2,1.6,8.6,3,13.1,4.2c8,1.5,15.1-0.9,21.4-7.3c13.4-14.7,21.6-34.2,21.6-55.7c0-24.5-10.7-46.5-27.6-61.6
			c13.2,8.9,29,14.1,46.1,14.1c26.4,0,49.9-12.4,65-31.7c6.2-8.8,7.4-17.1,3.6-24.9C206.5,33.4,168.4,9,124.5,9z M124.5,25
			c23.5,0,45,8.1,62,21.7l0.7,0.6l1,0.8l1.1,0.9l0.4,0.4l0.6,0.5l0.4,0.4l0.5,0.5l0.5,0.4l0.5,0.5C198.9,59,203,68.8,203,79.5
			c0,13-6,24.6-15.3,32.2c-4.4-21.8-19.8-39.6-40.1-47.4L147,64c-0.8-0.3-1.6-0.6-2.5-0.9l-1-0.3l-0.7-0.2l-0.9-0.2l-0.9-0.2
			l-0.8-0.2l-1-0.2l-0.8-0.2l-0.9-0.2l-0.9-0.2l-0.9-0.2l-1.2-0.2l-0.5-0.1l-0.9-0.1l-0.7-0.1l-0.4-0.1l-0.5-0.1l-0.9-0.1l-0.3,0
			l-0.9-0.1l-0.9-0.1l-1-0.1l-1,0l-1,0c-0.4,0-0.8,0-1.2,0C88.9,60,60,88.9,60,124.5c0,6.5,1,12.8,2.8,18.7l0.2,0.6l0.3,1l0.2,0.6
			l0.2,0.6c0.2,0.5,0.4,1.1,0.6,1.6l0.4,1l0.2,0.5c0.2,0.5,0.4,1,0.7,1.5l0.4,1l0.2,0.5l0.4,0.9l0.5,0.9l0.5,1l0.5,0.8
			c0.3,0.5,0.5,0.9,0.8,1.4l0.4,0.7l0.4,0.7l0.5,0.7l0.5,0.7l0.4,0.6c0.4,0.6,0.8,1.2,1.3,1.8l0.6,0.9c0.3,0.4,0.7,0.9,1,1.3
			l0.7,0.8l0.3,0.4c11.8,14.3,29.7,23.4,49.7,23.4c2.2,0,4.3-0.1,6.4-0.3c-6.2,15.1-21.1,25.7-38.4,25.7c-7.4,0-14.4-1.9-20.4-5.4
			l0,0.1l-0.6-0.4l-0.7-0.4l-0.6-0.4l-1-0.7l-0.9-0.6c-26.2-17.9-43.3-48-43.3-82.1C25,69.5,69.5,25,124.5,25z"/>
	</g>
</g>
</svg>
