<?xml version="1.0" encoding="UTF-8"?>
<svg version="1.1" xmlns="http://www.w3.org/2000/svg" viewBox="0 0 2277 2061" width="16" height="16">
<path d="M0 0 C1.02453781 -0.0071553 2.04907562 -0.01431061 3.10466003 -0.02168274 C4.19340927 -0.02437164 5.28215851 -0.02706055 6.40390015 -0.02983093 C7.57981216 -0.03640213 8.75572418 -0.04297333 9.9672699 -0.04974365 C13.84377124 -0.06937606 17.72023359 -0.08113019 21.59677124 -0.09111023 C22.95236605 -0.09516957 24.30796068 -0.09928679 25.66355515 -0.10346031 C32.06335622 -0.12250389 38.4631461 -0.1367154 44.86296999 -0.14507228 C51.41432196 -0.15377729 57.965435 -0.17284877 64.51669312 -0.20951843 C96.9529798 -0.38709023 129.0369864 -0.23268487 161.24520874 4.14717102 C163.48291984 4.43321261 165.72070603 4.71866776 167.95858765 5.00337219 C173.4014723 5.71875455 178.82381128 6.53534845 184.24520874 7.39717102 C185.18160187 7.54301636 186.117995 7.68886169 187.08276367 7.83912659 C266.72283888 20.27129078 345.44917869 43.310787 418.24520874 78.14717102 C419.58414556 78.76762152 420.92402841 79.38603366 422.26473999 80.00263977 C431.38077857 84.20873559 440.29276678 88.72149611 449.15145874 93.44404602 C452.74161686 95.35748194 456.34683961 97.23832933 459.96395874 99.10029602 C470.87800027 104.72342167 481.61354295 110.51473751 492.1187439 116.86982727 C494.331675 118.19911034 496.55816784 119.50301396 498.78817749 120.80342102 C512.23527489 128.69033009 525.16510963 137.29854216 538.08016968 146.01728821 C541.21465408 148.12660955 544.36160382 150.21619854 547.51083374 152.30342102 C552.41408115 155.56956974 557.23224531 158.93028958 561.99520874 162.39717102 C562.75543335 162.94872864 563.51565796 163.50028625 564.29891968 164.06855774 C576.81313109 173.17239979 589.15532003 182.48636068 601.24520874 192.14717102 C601.87926636 192.65361145 602.51332397 193.16005188 603.16659546 193.68183899 C613.96990619 202.33354137 624.47409205 211.29509358 634.85458374 220.44795227 C635.56098999 221.07056946 636.26739624 221.69318665 636.99520874 222.33467102 C637.56755249 222.84385071 638.13989624 223.3530304 638.72958374 223.87763977 C640.43170653 225.35025984 640.43170653 225.35025984 643.24520874 227.14717102 C643.24520874 227.80717102 643.24520874 228.46717102 643.24520874 229.14717102 C643.81755249 229.40498352 644.38989624 229.66279602 644.97958374 229.92842102 C647.45649869 231.26083044 649.37932535 232.7977322 651.49520874 234.64717102 C652.20161499 235.25560852 652.90802124 235.86404602 653.63583374 236.49092102 C655.24520874 238.14717102 655.24520874 238.14717102 655.24520874 240.14717102 C655.81054321 240.38653381 656.37587769 240.62589661 656.95834351 240.87251282 C659.73073591 242.41779527 661.60539661 244.28230239 663.83505249 246.54170227 C665.13539429 247.85171204 665.13539429 247.85171204 666.46200562 249.18818665 C667.35983765 250.10277649 668.25766968 251.01736633 669.18270874 251.95967102 C670.07667358 252.8626593 670.97063843 253.76564758 671.89169312 254.69599915 C673.56513897 256.3868379 675.23651779 258.0797268 676.90512085 259.77534485 C681.00840492 263.93428118 685.15325115 268.05107261 689.29989624 272.16670227 C690.74609148 273.6055156 692.19180019 275.04481583 693.63729858 276.48432922 C694.62142074 277.46342869 695.60643936 278.44162797 696.59237671 279.41889954 C709.95303682 292.66572843 709.95303682 292.66572843 713.24520874 297.14717102 C713.24520874 297.80717102 713.24520874 298.46717102 713.24520874 299.14717102 C713.84333374 299.41013977 714.44145874 299.67310852 715.05770874 299.94404602 C717.37219342 301.21701259 718.56147376 302.38019682 720.24520874 304.39717102 C720.84591187 305.10744446 721.44661499 305.8177179 722.06552124 306.54951477 C722.78481812 307.40674133 723.50411499 308.2639679 724.24520874 309.14717102 C725.17855406 310.23314097 726.1135654 311.3176804 727.04989624 312.40107727 C732.37995078 318.5730362 737.64386691 324.78902884 742.78036499 331.12373352 C744.67103579 333.44287646 746.57477165 335.74798396 748.49130249 338.04560852 C755.86474955 346.90111435 762.94557395 355.90853889 769.78622437 365.18086243 C771.23362128 367.13155432 772.69706764 369.06895037 774.16708374 371.00263977 C827.13039767 440.7411866 870.10261321 518.33018063 935.61038208 686.18275452 C936.19824184 688.00183599 936.78921735 689.81990977 937.38046265 691.63789368 C943.83183751 711.57933254 949.11016816 731.83471085 954.24520874 752.14717102 C954.53941711 753.3066626 954.53941711 753.3066626 954.83956909 754.48957825 C972.18508876 822.96638877 981.8447179 892.8998812 986.06748962 963.34309387 C986.19980034 965.43071097 986.34620077 967.51744448 986.49995422 969.60359192 C987.27534281 980.62236758 987.40880946 991.59599986 987.41317749 1002.63935852 C987.41640613 1004.59770225 987.41977128 1006.55604576 987.42326355 1008.51438904 C987.42921372 1012.60732071 987.43110811 1016.70023143 987.43051147 1020.79316711 C987.43043083 1024.91365507 987.43728057 1029.0340304 987.45101929 1033.15449524 C987.53335567 1058.23684303 987.12272181 1083.13038695 985.24520874 1108.14717102 C985.1174555 1109.95799285 984.99033312 1111.76885941 984.86410522 1113.57978821 C984.56575033 1117.75131976 984.22738906 1121.91773967 983.87020874 1126.08467102 C983.80796112 1126.812659 983.7457135 1127.54064697 983.68157959 1128.29069519 C983.22622458 1133.57843217 982.74550135 1138.86350305 982.24520874 1144.14717102 C982.17944641 1144.84185486 982.11368408 1145.5365387 982.04592896 1146.25227356 C976.06724902 1208.66755096 963.88359628 1270.71636539 947.24520874 1331.14717102 C947.01221069 1332.00020813 946.77921265 1332.85324524 946.53915405 1333.73213196 C933.5220935 1380.96948127 916.42584895 1426.95940693 897.43270874 1472.08467102 C897.0131189 1473.08337219 896.59352905 1474.08207336 896.16122437 1475.11103821 C890.42557282 1488.61540087 884.0154305 1501.82072303 877.62020874 1515.02217102 C877.27715698 1515.73040009 876.93410522 1516.43862915 876.58065796 1517.1683197 C868.04375669 1534.7668147 859.27309462 1552.2491809 849.40145874 1569.14375305 C847.39196251 1572.62557866 845.43541888 1576.13724327 843.46810913 1579.64302063 C838.24645837 1588.93721862 832.96255905 1598.14785289 827.24520874 1607.14717102 C826.72813354 1607.96572571 826.21105835 1608.7842804 825.67831421 1609.62763977 C818.98997432 1620.21548901 812.29861569 1630.79751844 805.24520874 1641.14717102 C804.64942017 1642.02236389 804.64942017 1642.02236389 804.04159546 1642.91523743 C789.77496051 1663.84642134 775.01136913 1684.31698443 759.24520874 1704.14717102 C758.53622437 1705.04049133 757.82723999 1705.93381165 757.09677124 1706.85420227 C746.50248339 1720.1494054 735.72346053 1733.29877676 724.29208374 1745.88545227 C721.84928769 1748.58464867 719.45909112 1751.32678871 717.06942749 1754.07295227 C714.20257672 1757.33269051 711.2793239 1760.54127886 708.35848999 1763.75263977 C706.8769027 1765.43140688 705.46189481 1767.17018757 704.10067749 1768.94795227 C703.4883728 1769.67369446 702.87606812 1770.39943665 702.24520874 1771.14717102 C701.58520874 1771.14717102 700.92520874 1771.14717102 700.24520874 1771.14717102 C699.98921906 1771.72815048 699.73322937 1772.30912994 699.46948242 1772.90771484 C698.12474489 1775.36752495 696.63946606 1777.00020379 694.65682983 1778.97846985 C693.92201385 1779.71636246 693.18719788 1780.45425507 692.43011475 1781.21450806 C691.63433014 1782.00310715 690.83854553 1782.79170624 690.01864624 1783.60420227 C688.78617661 1784.83598457 688.78617661 1784.83598457 687.52880859 1786.09265137 C685.78771357 1787.83072526 684.04418875 1789.56636801 682.2984314 1791.29975891 C679.64606985 1793.93398672 677.00167517 1796.57600476 674.35848999 1799.21943665 C672.66234412 1800.91066206 670.96574376 1802.60143181 669.26864624 1804.29170227 C668.48500702 1805.07422867 667.7013678 1805.85675507 666.89398193 1806.66299438 C662.72207982 1810.79958391 658.47575776 1814.78874061 654.01557922 1818.61367798 C651.07323534 1821.16233314 648.26373838 1823.85139605 645.43270874 1826.52217102 C640.41311571 1831.22421307 635.26507477 1835.6671903 629.89364624 1839.96748352 C627.06695039 1842.29387922 624.37461972 1844.72889032 621.68270874 1847.20967102 C616.71286912 1851.77237688 611.56252451 1855.99874794 606.24520874 1860.14717102 C605.15098261 1861.00984869 604.05726127 1861.8731669 602.96395874 1862.73701477 C599.39935471 1865.55107079 595.8236452 1868.35073728 592.24520874 1871.14717102 C591.71556519 1871.56224915 591.18592163 1871.97732727 590.64022827 1872.40498352 C581.76086968 1879.35380312 572.66618424 1885.98393465 563.49325562 1892.53877258 C561.4012955 1894.03549644 559.31506889 1895.53988411 557.22958374 1897.04560852 C487.15680448 1947.36667713 409.2780276 1985.89109814 327.84140015 2013.90937805 C324.88335963 2014.92752234 321.92891703 2015.9550741 318.97567749 2016.98701477 C253.812275 2039.51821103 183.81096871 2051.30154648 115.24520874 2056.14717102 C113.56880034 2056.2686648 113.56880034 2056.2686648 111.8585251 2056.39261299 C102.36940773 2057.03817867 92.93162819 2057.29515299 83.41822815 2057.29193115 C81.89336011 2057.29507552 80.36849292 2057.29865272 78.8436268 2057.30261856 C74.70191772 2057.31219915 70.56022241 2057.31584754 66.41850388 2057.31846154 C61.93219431 2057.3223919 57.4458965 2057.33202728 52.95959473 2057.34101868 C45.19676647 2057.35589345 37.43393912 2057.36746699 29.67110252 2057.37696648 C18.41820191 2057.390914 7.1653232 2057.41211325 -4.08756157 2057.43539501 C-22.38735887 2057.4732426 -40.68716014 2057.50821858 -58.98696899 2057.53999329 C-60.08035667 2057.54189378 -61.17374434 2057.54379427 -62.30026498 2057.54575235 C-77.79528741 2057.57254904 -93.29031297 2057.59643761 -108.78534188 2057.61913735 C-109.87539445 2057.62073466 -110.96544703 2057.62233196 -112.08853149 2057.62397766 C-113.17723739 2057.62557113 -114.26594329 2057.62716459 -115.38764028 2057.62880635 C-133.60974339 2057.65567295 -151.83182307 2057.69011161 -170.0539009 2057.73063141 C-181.26230509 2057.75525671 -192.47068424 2057.77366628 -203.67911109 2057.78378702 C-211.37657872 2057.79123859 -219.0740126 2057.80585449 -226.77145777 2057.82585125 C-231.19608387 2057.83711959 -235.62065589 2057.84538478 -240.04529762 2057.84484291 C-257.80868703 2057.84466347 -275.38325962 2058.12324352 -293.09156036 2059.69350052 C-302.01206654 2060.46962721 -310.94371295 2060.45596493 -319.89151001 2060.44795227 C-321.79733874 2060.45187007 -323.70316664 2060.45621058 -325.60899353 2060.4609375 C-329.56395315 2060.46829492 -333.5188234 2060.46818883 -337.4737854 2060.46284485 C-341.42963101 2060.45823826 -345.38516731 2060.4650585 -349.3409729 2060.48335266 C-397.59295544 2060.7042586 -445.17637245 2056.82790754 -492.72195435 2048.50141907 C-494.79101468 2048.14085862 -496.86114763 2047.78705192 -498.93154907 2047.4342804 C-579.39261839 2033.64723242 -657.59386439 2007.19550537 -730.75479126 1971.14717102 C-731.48730103 1970.78848938 -732.21981079 1970.42980774 -732.97451782 1970.06025696 C-737.59006516 1967.79852646 -742.17643753 1965.48312672 -746.75479126 1963.14717102 C-747.6506897 1962.69293762 -748.54658813 1962.23870422 -749.46963501 1961.77070618 C-764.24507368 1954.26406494 -778.68552818 1946.32218332 -792.92080688 1937.83613586 C-795.66814818 1936.19880755 -798.42172084 1934.57244438 -801.17666626 1932.94795227 C-810.58346398 1927.37940331 -819.79100052 1921.6013539 -828.82705688 1915.45088196 C-830.90336891 1914.04668918 -832.99153413 1912.66162476 -835.08291626 1911.27998352 C-850.30710668 1901.21832134 -865.17993545 1890.73963567 -879.71035767 1879.69892883 C-881.82937397 1878.09056155 -883.9540461 1876.48985718 -886.07901001 1874.88935852 C-893.85978423 1869.00792423 -901.45136154 1862.98046663 -908.84854126 1856.62373352 C-911.42426249 1854.42883129 -914.03589855 1852.30546137 -916.69229126 1850.20967102 C-926.50765326 1842.41465095 -935.87908468 1834.11489942 -945.07901001 1825.60810852 C-949.38435439 1821.64844873 -953.8021935 1817.82082625 -958.24307251 1814.01435852 C-959.48637329 1812.93541321 -959.48637329 1812.93541321 -960.75479126 1811.83467102 C-961.51791626 1811.17853821 -962.28104126 1810.5224054 -963.06729126 1809.84638977 C-964.75479126 1808.14717102 -964.75479126 1808.14717102 -964.75479126 1806.14717102 C-965.35091721 1805.87603485 -965.94704315 1805.60489868 -966.56123352 1805.32554626 C-968.7244338 1804.16347899 -970.1271677 1803.02260069 -971.85171509 1801.29316711 C-972.42944168 1800.71851715 -973.00716827 1800.14386719 -973.60240173 1799.55180359 C-974.21601059 1798.93100922 -974.82961945 1798.31021484 -975.46182251 1797.67060852 C-976.10544235 1797.02653046 -976.74906219 1796.38245239 -977.41218567 1795.71885681 C-978.77363424 1794.35438965 -980.13265401 1792.98749534 -981.4894104 1791.61836243 C-983.54423141 1789.54543408 -985.60679113 1787.48047123 -987.67080688 1785.41670227 C-988.99744851 1784.08513887 -990.3236347 1782.75312153 -991.64932251 1781.42060852 C-992.25685867 1780.81195953 -992.86439484 1780.20331055 -993.49034119 1779.57621765 C-997.23190801 1775.79399802 -1000.78872944 1771.89336901 -1004.25971985 1767.8611908 C-1006.00481942 1765.86052705 -1007.84527264 1763.99084417 -1009.75479126 1762.14717102 C-1020.19374475 1751.83031056 -1020.19374475 1751.83031056 -1021.75479126 1747.14717102 C-1022.41479126 1747.14717102 -1023.07479126 1747.14717102 -1023.75479126 1747.14717102 C-1025.16917532 1745.57430418 -1026.51083527 1743.93577106 -1027.81729126 1742.27217102 C-1030.81933493 1738.51363149 -1033.86650202 1734.86843109 -1037.12979126 1731.33467102 C-1041.19105293 1726.87787778 -1044.90892648 1722.21754134 -1048.60025024 1717.45600891 C-1051.5512326 1713.65558682 -1054.57992661 1709.94316522 -1057.69229126 1706.27217102 C-1063.18548935 1699.73264948 -1068.26632111 1692.90626647 -1073.34707642 1686.04414368 C-1075.38566166 1683.29703869 -1077.44603266 1680.56668974 -1079.50479126 1677.83467102 C-1100.50267923 1649.79985643 -1119.96599533 1620.50213496 -1137.55020142 1590.20918274 C-1138.73450602 1588.1818952 -1139.93485559 1586.16512908 -1141.14151001 1584.15107727 C-1148.39185097 1572.02120696 -1155.09944836 1559.61139031 -1161.75479126 1547.14717102 C-1162.20354614 1546.30895813 -1162.65230103 1545.47074524 -1163.11465454 1544.60713196 C-1166.03622125 1539.14170012 -1168.90869893 1533.65224235 -1171.75479126 1528.14717102 C-1172.19581177 1527.29912903 -1172.63683228 1526.45108704 -1173.09121704 1525.5773468 C-1182.81308883 1506.80821003 -1191.34575053 1487.53075287 -1199.75479126 1468.14717102 C-1200.46997925 1466.50047424 -1200.46997925 1466.50047424 -1201.19961548 1464.82051086 C-1218.25472166 1425.30066274 -1232.6882472 1384.79552954 -1244.62979126 1343.45967102 C-1244.94303345 1342.37690887 -1245.25627563 1341.29414673 -1245.57901001 1340.17857361 C-1252.21273475 1317.16412345 -1257.96549523 1293.9708469 -1263.12979126 1270.58467102 C-1263.36368561 1269.52655212 -1263.59757996 1268.46843323 -1263.83856201 1267.37825012 C-1273.81244533 1222.00258901 -1280.29218523 1176.17022697 -1284.49898911 1129.92286015 C-1284.66565108 1128.11442415 -1284.83638048 1126.30635694 -1285.0117836 1124.49874783 C-1286.68429334 1107.15754516 -1287.08290422 1089.89404657 -1287.0893054 1072.48617506 C-1287.09075453 1070.25594235 -1287.09507461 1068.02573243 -1287.10029984 1065.79550552 C-1287.1186804 1057.92166393 -1287.12698782 1050.04788882 -1287.12539673 1042.17402649 C-1287.12433725 1035.77874123 -1287.13832801 1029.38370223 -1287.16641235 1022.98847961 C-1287.32111746 986.93568607 -1287.06176214 951.22156621 -1283.00130463 915.34138489 C-1282.6378763 912.10651172 -1282.30117227 908.86886849 -1281.96035767 905.63154602 C-1281.33824452 899.89748066 -1280.63108995 894.17807985 -1279.87979126 888.45967102 C-1279.75439972 887.48397156 -1279.62900818 886.50827209 -1279.49981689 885.50300598 C-1277.0713158 866.63049343 -1274.25532353 847.85112922 -1270.75479126 829.14717102 C-1270.60372925 828.33836487 -1270.45266724 827.52955872 -1270.29702759 826.69624329 C-1260.89971438 776.64986171 -1248.5053223 727.05894951 -1232.02383423 678.86885071 C-1230.78628516 675.23953214 -1229.56756239 671.60436565 -1228.35244751 667.96748352 C-1219.1179786 640.51782263 -1208.25285621 613.7206607 -1196.75479126 587.14717102 C-1196.2879895 586.06403625 -1195.82118774 584.98090149 -1195.34024048 583.86494446 C-1190.17266797 571.89589577 -1184.88913492 560.04313856 -1178.9256897 548.44941711 C-1177.5268381 545.69896453 -1176.15985786 542.93361469 -1174.79385376 540.16670227 C-1156.38415856 502.92208793 -1135.65154473 466.81578572 -1112.75479126 432.14717102 C-1111.88103289 430.81648155 -1111.00733112 429.4857549 -1110.13369751 428.15498352 C-1101.3890126 414.88748392 -1092.1534771 401.95759623 -1082.75479126 389.14717102 C-1081.70646169 387.7032713 -1080.65829967 386.25924993 -1079.61026001 384.81513977 C-1072.39821399 374.91274157 -1064.94659863 365.28001393 -1057.1444397 355.83662415 C-1055.24037531 353.52177426 -1053.37087993 351.18018958 -1051.50479126 348.83467102 C-1040.74616486 335.36961262 -1029.61066245 322.27564526 -1017.96182251 309.57295227 C-1015.96220758 307.37514542 -1014.00760807 305.14725016 -1012.06729126 302.89717102 C-1009.36444807 299.782888 -1006.51191911 296.88026341 -1003.56924438 293.99385071 C-1001.94250771 292.33822151 -1000.45286946 290.64274565 -998.96182251 288.86592102 C-993.58419633 282.68343158 -987.73798531 276.944349 -981.94644165 271.15351868 C-979.92459024 269.12945059 -977.91090799 267.09747368 -975.89736938 265.06513977 C-974.61465466 263.77949604 -973.33146884 262.49432213 -972.04776001 261.20967102 C-971.44570236 260.60042786 -970.84364471 259.99118469 -970.2233429 259.36347961 C-965.98365204 255.14717102 -965.98365204 255.14717102 -963.75479126 255.14717102 C-963.75479126 254.48717102 -963.75479126 253.82717102 -963.75479126 253.14717102 C-962.27944946 251.67988586 -962.27944946 251.67988586 -960.24307251 249.98310852 C-957.38142553 247.55004778 -954.58268297 245.08694763 -951.86026001 242.49873352 C-950.90035156 241.58619812 -950.90035156 241.58619812 -949.92105103 240.65522766 C-949.2680603 240.03381897 -948.61506958 239.41241028 -947.94229126 238.77217102 C-942.52208729 233.64913702 -937.02867126 228.77016029 -931.19619751 224.11982727 C-928.81393571 222.19495973 -926.5296124 220.19731846 -924.25479126 218.14717102 C-919.74800214 214.10139384 -915.08549952 210.27225007 -910.37686157 206.46455383 C-908.59812771 205.01993494 -906.82851345 203.56458649 -905.05947876 202.10810852 C-895.81755045 194.51713875 -886.39868373 187.21981513 -876.75479126 180.14717102 C-876.06723755 179.64250305 -875.37968384 179.13783508 -874.67129517 178.61787415 C-855.80099066 164.80374862 -836.68062826 151.39901277 -816.75479126 139.14717102 C-815.99859497 138.67972473 -815.24239868 138.21227844 -814.46328735 137.73066711 C-798.56103342 127.903203 -782.47578062 118.44511179 -766.09365845 109.44013977 C-763.71579565 108.12561353 -761.34792134 106.79441129 -758.98135376 105.45967102 C-747.50222704 99.01494653 -735.81337654 93.1763837 -723.88418579 87.61250305 C-720.62399455 86.08592575 -717.37471746 84.53760462 -714.12588501 82.98701477 C-698.46029009 75.55445762 -682.62133926 68.84136468 -666.45889282 62.58369446 C-662.87277903 61.192929 -659.29417296 59.78409097 -655.71572876 58.37373352 C-610.7063638 40.79401156 -564.03605987 27.94436192 -516.75479126 18.14717102 C-515.30532104 17.83924622 -515.30532104 17.83924622 -513.8265686 17.52510071 C-488.45555046 12.15378083 -462.51905288 8.73551136 -436.75479126 5.89717102 C-435.73578735 5.78188049 -435.73578735 5.78188049 -434.69619751 5.66426086 C-407.11972882 2.58005055 -379.53910659 1.84175007 -351.82183266 1.84515584 C-347.31226196 1.84348357 -342.802721 1.83029333 -338.29316711 1.81861877 C-330.51857752 1.7999538 -322.74400316 1.78810897 -314.96939468 1.78108025 C-303.71839547 1.77081109 -292.46744216 1.74868622 -281.21646713 1.72369433 C-262.93823592 1.6833148 -244.66000029 1.65076109 -226.38174438 1.62397766 C-224.74854599 1.62158171 -224.74854599 1.62158171 -223.0823537 1.61913735 C-221.44702422 1.61673901 -221.44702422 1.61673901 -219.77865779 1.6142922 C-204.27232618 1.59153443 -188.76599908 1.56689469 -173.25967407 1.53999329 C-172.1655599 1.53809714 -171.07144572 1.536201 -169.94417657 1.53424739 C-151.69792817 1.50246529 -133.45168876 1.46672828 -115.20545185 1.4289518 C-103.9790495 1.40596251 -92.75265322 1.38699082 -81.52623563 1.37328506 C-73.84961382 1.36375281 -66.17300237 1.35091136 -58.49639018 1.33547621 C-54.07174517 1.32672306 -49.64711292 1.31961413 -45.22245979 1.3168354 C-41.16953789 1.31427504 -37.11664964 1.30718173 -33.06374107 1.29656316 C-31.60154399 1.29353568 -30.1393423 1.29216146 -28.67714216 1.29265147 C-21.66810213 1.29417407 -14.77457824 1.17867361 -7.80862439 0.3743946 C-5.20139509 0.08594664 -2.62211937 0.01280095 0 0 Z " fill="#DB0A00" transform="translate(1286.7547912597656,-0.1471710205078125)"/>
<path d="M0 0 C2.31653924 -0.00646095 4.63307774 -0.01319144 6.94961548 -0.02017212 C11.78185914 -0.03205016 16.61403188 -0.03586338 21.44628906 -0.03466797 C26.30939776 -0.03450644 31.17212567 -0.04824922 36.03515625 -0.07568359 C65.75696414 -0.24066714 94.92486465 0.48961037 124.4140625 4.3359375 C125.58120789 4.48323303 126.74835327 4.63052856 127.9508667 4.7822876 C134.45669872 5.61125034 140.93722055 6.55633423 147.4140625 7.5859375 C148.35045563 7.73178284 149.28684875 7.87762817 150.25161743 8.02789307 C229.89169264 20.46005726 308.61803245 43.49955348 381.4140625 78.3359375 C382.75299932 78.956388 384.09288217 79.57480014 385.43359375 80.19140625 C394.54963233 84.39750207 403.46162054 88.91026259 412.3203125 93.6328125 C415.91047062 95.54624842 419.51569337 97.42709581 423.1328125 99.2890625 C434.04685403 104.91218815 444.78239671 110.70350399 455.28759766 117.05859375 C457.50052876 118.38787682 459.7270216 119.69178044 461.95703125 120.9921875 C475.40412865 128.87909656 488.33396339 137.48730864 501.24902344 146.20605469 C504.38350784 148.31537603 507.53045758 150.40496502 510.6796875 152.4921875 C515.58293491 155.75833622 520.40109907 159.11905606 525.1640625 162.5859375 C525.92428711 163.13749512 526.68451172 163.68905273 527.46777344 164.25732422 C539.98198485 173.36116627 552.32417379 182.67512716 564.4140625 192.3359375 C565.04812012 192.84237793 565.68217773 193.34881836 566.33544922 193.87060547 C577.13875995 202.52230785 587.64294581 211.48386006 598.0234375 220.63671875 C598.72984375 221.25933594 599.43625 221.88195312 600.1640625 222.5234375 C600.73640625 223.03261719 601.30875 223.54179687 601.8984375 224.06640625 C603.60056029 225.53902632 603.60056029 225.53902632 606.4140625 227.3359375 C606.4140625 227.9959375 606.4140625 228.6559375 606.4140625 229.3359375 C606.98640625 229.59375 607.55875 229.8515625 608.1484375 230.1171875 C610.62535245 231.44959692 612.5481791 232.98649868 614.6640625 234.8359375 C615.37046875 235.444375 616.076875 236.0528125 616.8046875 236.6796875 C618.4140625 238.3359375 618.4140625 238.3359375 618.4140625 240.3359375 C618.97939697 240.57530029 619.54473145 240.81466309 620.12719727 241.0612793 C622.89958967 242.60656175 624.77425037 244.47106887 627.00390625 246.73046875 C628.30424805 248.04047852 628.30424805 248.04047852 629.63085938 249.37695312 C630.52869141 250.29154297 631.42652344 251.20613281 632.3515625 252.1484375 C633.24552734 253.05142578 634.13949219 253.95441406 635.06054688 254.88476562 C636.73399273 256.57560438 638.40537155 258.26849328 640.07397461 259.96411133 C644.17725868 264.12304766 648.32210491 268.23983909 652.46875 272.35546875 C653.91494524 273.79428208 655.36065395 275.23358231 656.80615234 276.6730957 C657.7902745 277.65219517 658.77529312 278.63039445 659.76123047 279.60766602 C673.12189058 292.85449491 673.12189058 292.85449491 676.4140625 297.3359375 C676.4140625 297.9959375 676.4140625 298.6559375 676.4140625 299.3359375 C677.0121875 299.59890625 677.6103125 299.861875 678.2265625 300.1328125 C680.54104718 301.40577907 681.73032752 302.5689633 683.4140625 304.5859375 C684.01476563 305.29621094 684.61546875 306.00648438 685.234375 306.73828125 C685.95367188 307.59550781 686.67296875 308.45273437 687.4140625 309.3359375 C688.34740782 310.42190745 689.28241916 311.50644688 690.21875 312.58984375 C695.54880454 318.76180268 700.81272067 324.97779532 705.94921875 331.3125 C707.83988955 333.63164294 709.74362541 335.93675044 711.66015625 338.234375 C719.03360331 347.08988083 726.11442771 356.09730537 732.95507812 365.36962891 C734.40247504 367.3203208 735.8659214 369.25771685 737.3359375 371.19140625 C790.29925143 440.92995308 833.27146697 518.51894711 898.77923584 686.371521 C899.3670956 688.19060247 899.95807111 690.00867625 900.54931641 691.82666016 C907.00069127 711.76809902 912.27902192 732.02347733 917.4140625 752.3359375 C917.70827087 753.49542908 917.70827087 753.49542908 918.00842285 754.67834473 C935.35394252 823.15515525 945.01357166 893.08864768 949.23634338 963.53186035 C949.3686541 965.61947745 949.51505453 967.70621096 949.66880798 969.7923584 C950.44419657 980.81113406 950.57766322 991.78476634 950.58203125 1002.828125 C950.58525989 1004.78646873 950.58862504 1006.74481224 950.59211731 1008.70315552 C950.59806748 1012.79608719 950.59996187 1016.88899791 950.59936523 1020.98193359 C950.59928459 1025.10242155 950.60613432 1029.22279688 950.61987305 1033.34326172 C950.70220943 1058.42560951 950.29157557 1083.31915343 948.4140625 1108.3359375 C948.28630926 1110.14675933 948.15918688 1111.95762589 948.03295898 1113.76855469 C947.73460409 1117.94008624 947.39624282 1122.10650615 947.0390625 1126.2734375 C946.97681488 1127.00142548 946.91456726 1127.72941345 946.85043335 1128.47946167 C946.39507834 1133.76719865 945.91435511 1139.05226953 945.4140625 1144.3359375 C945.34830017 1145.03062134 945.28253784 1145.72530518 945.21478271 1146.44104004 C939.23610277 1208.85631744 927.05245004 1270.90513187 910.4140625 1331.3359375 C910.18106445 1332.18897461 909.94806641 1333.04201172 909.70800781 1333.92089844 C896.69094725 1381.15824775 879.59470271 1427.14817341 860.6015625 1472.2734375 C860.18197266 1473.27213867 859.76238281 1474.27083984 859.33007812 1475.29980469 C853.59442658 1488.80416735 847.18428426 1502.00948951 840.7890625 1515.2109375 C840.44601074 1515.91916656 840.10295898 1516.62739563 839.74951172 1517.35708618 C831.21261044 1534.95558118 822.44194838 1552.43794738 812.5703125 1569.33251953 C810.56081627 1572.81434514 808.60427264 1576.32600975 806.63696289 1579.83178711 C801.41531213 1589.1259851 796.13141281 1598.33661937 790.4140625 1607.3359375 C789.8969873 1608.15449219 789.37991211 1608.97304687 788.84716797 1609.81640625 C782.15882808 1620.40425549 775.46746945 1630.98628492 768.4140625 1641.3359375 C768.01687012 1641.91939941 767.61967773 1642.50286133 767.21044922 1643.10400391 C752.94381427 1664.03518782 738.18022289 1684.50575091 722.4140625 1704.3359375 C721.70507812 1705.22925781 720.99609375 1706.12257813 720.265625 1707.04296875 C709.67133715 1720.33817188 698.89231429 1733.48754324 687.4609375 1746.07421875 C685.01814145 1748.77341515 682.62794488 1751.51555519 680.23828125 1754.26171875 C677.37143048 1757.52145699 674.44817766 1760.73004534 671.52734375 1763.94140625 C670.04575646 1765.62017336 668.63074857 1767.35895405 667.26953125 1769.13671875 C666.65722656 1769.86246094 666.04492188 1770.58820313 665.4140625 1771.3359375 C664.7540625 1771.3359375 664.0940625 1771.3359375 663.4140625 1771.3359375 C663.15807281 1771.91691696 662.90208313 1772.49789642 662.63833618 1773.09648132 C661.29359865 1775.55629143 659.80831982 1777.18897027 657.82568359 1779.16723633 C657.09086761 1779.90512894 656.35605164 1780.64302155 655.59896851 1781.40327454 C654.8031839 1782.19187363 654.00739929 1782.98047272 653.1875 1783.79296875 C651.95503036 1785.02475105 651.95503036 1785.02475105 650.69766235 1786.28141785 C648.95656733 1788.01949174 647.21304251 1789.75513449 645.46728516 1791.48852539 C642.81492361 1794.1227532 640.17052893 1796.76477124 637.52734375 1799.40820312 C635.83119788 1801.09942854 634.13459752 1802.79019829 632.4375 1804.48046875 C631.65386078 1805.26299515 630.87022156 1806.04552155 630.06283569 1806.85176086 C625.89093358 1810.98835039 621.64461152 1814.97750709 617.18443298 1818.80244446 C614.2420891 1821.35109962 611.43259214 1824.04016253 608.6015625 1826.7109375 C603.58196947 1831.41297954 598.43392853 1835.85595678 593.0625 1840.15625 C590.23580415 1842.4826457 587.54347348 1844.9176568 584.8515625 1847.3984375 C579.88172288 1851.96114336 574.73137827 1856.18751442 569.4140625 1860.3359375 C568.31983637 1861.19861517 567.22611503 1862.06193338 566.1328125 1862.92578125 C562.56820847 1865.73983727 558.99249896 1868.53950376 555.4140625 1871.3359375 C554.88441895 1871.75101563 554.35477539 1872.16609375 553.80908203 1872.59375 C544.92972344 1879.5425696 535.835038 1886.17270113 526.66210938 1892.72753906 C524.57014926 1894.22426292 522.48392265 1895.72865059 520.3984375 1897.234375 C450.32565824 1947.55544361 372.44688136 1986.07986462 291.01025391 2014.09814453 C288.05221339 2015.11628882 285.09777079 2016.14384058 282.14453125 2017.17578125 C237.79832928 2032.50912699 190.75154753 2042.36384821 144.4140625 2049.3359375 C143.13934082 2049.52816895 141.86461914 2049.72040039 140.55126953 2049.91845703 C124.68115233 2052.26027425 109.03211921 2053.76153926 92.99521542 2054.09951973 C86.07523607 2054.28033844 79.19039613 2054.72351879 72.28603172 2055.20630635 C54.59749944 2056.41655296 36.97098796 2056.61476345 19.24747956 2056.56806874 C15.01284702 2056.55922719 10.7782183 2056.56236861 6.5435791 2056.56387329 C-0.75030068 2056.56490941 -8.04414399 2056.5587685 -15.3380146 2056.54739761 C-25.8830228 2056.53096925 -36.42801382 2056.52591714 -46.97303342 2056.52342163 C-64.09197687 2056.51907131 -81.21090099 2056.50583551 -98.32983398 2056.48681641 C-114.93465073 2056.46838796 -131.53946217 2056.4542658 -148.14428711 2056.44580078 C-149.1721047 2056.44527533 -150.19992229 2056.44474989 -151.25888587 2056.44420852 C-156.41642762 2056.44159797 -161.57396942 2056.43907067 -166.73151124 2056.43658471 C-209.34966669 2056.41593537 -251.96780109 2056.38078365 -294.5859375 2056.3359375 C-291.91762094 2053.66762094 -290.24110776 2053.86937287 -286.5078125 2053.4765625 C-285.22108643 2053.3336377 -283.93436035 2053.19071289 -282.60864258 2053.04345703 C-281.91477448 2052.96951721 -281.22090637 2052.89557739 -280.50601196 2052.81939697 C-247.57579816 2049.27672114 -214.4364893 2044.19277665 -182.32275391 2036.01196289 C-178.59878173 2035.09209858 -174.85824595 2034.33876995 -171.0859375 2033.6484375 C-170.41046875 2033.51888672 -169.735 2033.38933594 -169.0390625 2033.25585938 C-165.79954626 2032.65323283 -162.8985731 2032.3359375 -159.5859375 2032.3359375 C-159.5859375 2031.6759375 -159.5859375 2031.0159375 -159.5859375 2030.3359375 C-157.80703125 2029.88154297 -157.80703125 2029.88154297 -155.9921875 2029.41796875 C-154.3567164 2028.99500209 -152.72130291 2028.57181263 -151.0859375 2028.1484375 C-149.92771484 2027.85356445 -149.92771484 2027.85356445 -148.74609375 2027.55273438 C-141.32662487 2025.62367247 -134.02826403 2023.33170737 -126.72375488 2021.01327515 C-124.61236182 2020.34430968 -122.49931718 2019.68083481 -120.38574219 2019.01879883 C-85.86546205 2008.18692863 -51.61564515 1995.96768269 -18.97631836 1980.25390625 C-16.5859375 1979.3359375 -16.5859375 1979.3359375 -12.5859375 1979.3359375 C-12.5859375 1978.6759375 -12.5859375 1978.0159375 -12.5859375 1977.3359375 C12.52085862 1965.3359375 12.52085862 1965.3359375 16.4140625 1965.3359375 C16.4140625 1964.6759375 16.4140625 1964.0159375 16.4140625 1963.3359375 C17.166875 1962.9548584 17.9196875 1962.5737793 18.6953125 1962.18115234 C34.94588218 1953.93014253 50.94760725 1945.4192555 66.58154297 1936.03466797 C69.33257999 1934.38480453 72.0932354 1932.75212203 74.85546875 1931.12109375 C86.62414753 1924.11745352 98.08292552 1916.678816 109.4765625 1909.0859375 C110.16748993 1908.62598389 110.85841736 1908.16603027 111.57028198 1907.69213867 C132.45008106 1893.76999166 152.85041821 1879.05923086 172.4140625 1863.3359375 C173.0544043 1862.8217627 173.69474609 1862.30758789 174.35449219 1861.77783203 C182.93642172 1854.87371328 191.42668725 1847.86988683 199.79882812 1840.71289062 C201.46240793 1839.29472404 203.13302126 1837.88518433 204.8046875 1836.4765625 C211.68134453 1830.66053256 218.36773363 1824.68172461 224.91357422 1818.49487305 C228.25875043 1815.33376155 231.64508166 1812.23177876 235.08422852 1809.17285156 C240.02413382 1804.73171623 244.7669629 1800.12838047 249.45703125 1795.42578125 C250.26972977 1794.61403946 251.08242828 1793.80229767 251.91975403 1792.96595764 C253.62082601 1791.26556032 255.32065939 1789.56392304 257.01928711 1787.86108398 C259.60222766 1785.27277095 262.19048591 1782.68986189 264.77929688 1780.10742188 C266.44302915 1778.44302896 268.10645129 1776.77832596 269.76953125 1775.11328125 C270.53323532 1774.35160141 271.29693939 1773.58992157 272.08378601 1772.80516052 C276.18266517 1768.68853325 280.12306901 1764.48941173 283.90901184 1760.08253479 C286.18352065 1757.44298847 288.54954823 1754.89517648 290.9140625 1752.3359375 C310.22202734 1731.34802253 328.17493922 1709.04380138 345.4140625 1686.3359375 C345.87780273 1685.72669434 346.34154297 1685.11745117 346.81933594 1684.48974609 C383.28472015 1636.51474662 414.92973897 1584.92350113 442.4140625 1531.3359375 C443.0740625 1531.3359375 443.7340625 1531.3359375 444.4140625 1531.3359375 C444.6409375 1530.3665625 444.8678125 1529.3971875 445.1015625 1528.3984375 C446.20255451 1524.50982742 448.04430173 1521.30309518 450.06787109 1517.82617188 C451.31927401 1515.51128074 452.2924546 1513.25480276 453.22265625 1510.796875 C455.12253489 1505.95520578 457.28532034 1501.28093958 459.5234375 1496.58764648 C483.9079998 1445.37780224 503.11494377 1391.71469909 518.71600342 1337.22662354 C519.68016504 1333.86161604 520.65949792 1330.50219113 521.66625977 1327.1496582 C524.5704517 1317.46236031 527.13672243 1307.7364868 529.4765625 1297.8984375 C529.82420585 1296.44974625 530.17202678 1295.0010976 530.52001953 1293.55249023 C533.51785143 1281.03836485 536.45748329 1268.5119286 538.89038086 1255.8737793 C539.45289078 1253.1477697 540.11766091 1250.45706248 540.78125 1247.75390625 C542.83438626 1238.90259389 544.12580049 1229.94130677 545.4765625 1220.9609375 C545.98305453 1217.59813645 546.49568944 1214.23634908 547.01171875 1210.875 C547.12322769 1210.12070709 547.23473663 1209.36641418 547.34962463 1208.58926392 C548.04754826 1204.04382242 549.11856199 1199.75713854 550.4140625 1195.3359375 C550.62663681 1192.98685678 550.7683668 1190.6306491 550.8515625 1188.2734375 C551.13341883 1181.93115269 551.86384529 1175.73062022 552.7890625 1169.453125 C555.98034201 1146.86747271 557.61172981 1124.06663898 559.4140625 1101.3359375 C559.48729736 1100.41552673 559.56053223 1099.49511597 559.63598633 1098.54681396 C561.61578341 1073.21285694 561.61165652 1047.82817527 561.65859604 1022.43204498 C561.66401064 1019.79866159 561.67213573 1017.16529663 561.68057251 1014.53192139 C561.69250551 1010.32404228 561.69220315 1006.11631449 561.68301582 1001.9084301 C561.68084076 1000.34728036 561.68179871 998.78612228 561.68629265 997.22497749 C561.70844451 987.97467992 561.18682902 979.03290383 559.88685608 969.8692627 C559.15446599 964.39589658 558.90674694 958.90871216 558.6015625 953.3984375 C557.65313282 938.51217085 555.44154912 923.92022167 553.04003906 909.21533203 C552.46022599 905.62202873 551.91048824 902.02591795 551.375 898.42578125 C549.61111175 886.69933866 547.38184312 875.22996197 544.46484375 863.734375 C543.75992343 860.93045291 543.206927 858.17917854 542.83203125 855.3125 C542.73551954 852.45675797 542.73551954 852.45675797 541.4140625 851.3359375 C541.11332935 849.6953042 540.84910279 848.04793496 540.6015625 846.3984375 C539.92420714 842.45144199 539.0007219 839.01061709 537.4140625 835.3359375 C535.17691081 830.11314471 534.24609534 824.9324531 533.4140625 819.3359375 C533.1046875 817.510625 533.1046875 817.510625 532.7890625 815.6484375 C532.6034375 814.50375 532.6034375 814.50375 532.4140625 813.3359375 C531.7540625 813.3359375 531.0940625 813.3359375 530.4140625 813.3359375 C530.26372559 812.78357422 530.11338867 812.23121094 529.95849609 811.66210938 C527.34321689 802.11821821 524.70054397 792.60874463 521.2265625 783.3359375 C520.98921387 782.69720703 520.75186523 782.05847656 520.50732422 781.40039062 C519.12050806 777.79912659 517.41146514 774.62610351 515.4140625 771.3359375 C514.67578125 769.30078125 514.67578125 769.30078125 514.1015625 767.2734375 C512.57210092 762.46316195 510.39302675 758.13259912 508.09375 753.6484375 C503.77434442 745.13016789 499.7614216 736.4715137 496.32421875 727.55859375 C495.37909841 725.25055308 494.30292197 723.05413417 493.1640625 720.8359375 C491.4140625 717.3359375 491.4140625 717.3359375 491.4140625 715.3359375 C490.7540625 715.3359375 490.0940625 715.3359375 489.4140625 715.3359375 C486.66883367 710.90814906 484.92931853 707.61731179 484.4140625 702.3359375 C483.7540625 702.3359375 483.0940625 702.3359375 482.4140625 702.3359375 C481.7540625 700.0259375 481.0940625 697.7159375 480.4140625 695.3359375 C479.7540625 695.3359375 479.0940625 695.3359375 478.4140625 695.3359375 C477.95515625 694.37171875 477.49625 693.4075 477.0234375 692.4140625 C476.40407975 691.13781017 475.78426378 689.86178013 475.1640625 688.5859375 C474.86371094 687.95171875 474.56335937 687.3175 474.25390625 686.6640625 C472.87452264 683.8465981 471.61290758 681.53174677 469.3671875 679.3203125 C467.264392 677.18387227 466.49161205 675.21692397 465.40185547 672.46435547 C463.16005589 667.63390348 459.94963923 663.30029769 456.9765625 658.8984375 C456.26733643 657.84253418 455.55811035 656.78663086 454.82739258 655.69873047 C450.54148487 649.36119687 446.17357386 643.09563539 441.6015625 636.9609375 C440.8746521 635.98169312 440.8746521 635.98169312 440.13305664 634.98266602 C438.03609449 632.22188487 436.32566671 630.27700697 433.4140625 628.3359375 C432.55659232 626.75819238 431.6994385 625.18027462 430.84375 623.6015625 C426.35672193 616.49097157 420.35665005 610.23021133 414.4140625 604.3359375 C412.66580636 602.38026114 410.9622245 600.39227795 409.2578125 598.3984375 C407.91354121 596.89467639 406.51609106 595.43796606 405.08984375 594.01171875 C402.59677708 591.51865208 400.19793708 588.96659387 397.80908203 586.375 C392.00208384 580.07813494 386.0874428 573.90144191 380.0390625 567.8359375 C379.39799561 567.19035889 378.75692871 566.54478027 378.09643555 565.87963867 C374.26715077 562.06220468 370.31866445 558.43722777 366.2265625 554.90332031 C363.98160762 552.96196655 361.79201539 550.96341807 359.6015625 548.9609375 C354.35007958 544.2338084 348.94395755 539.73247467 343.4140625 535.3359375 C342.76405273 534.81870117 342.11404297 534.30146484 341.44433594 533.76855469 C316.30393805 513.83358962 289.32531995 494.43685247 260.4140625 480.3359375 C260.4140625 479.6759375 260.4140625 479.0159375 260.4140625 478.3359375 C259.77082031 478.25472656 259.12757812 478.17351562 258.46484375 478.08984375 C254.2288455 477.04304777 250.51584265 475.17315938 246.6015625 473.2734375 C245.81330078 472.89638672 245.02503906 472.51933594 244.21289062 472.13085938 C242.27753777 471.20423589 240.34546701 470.27076283 238.4140625 469.3359375 C238.4140625 468.6759375 238.4140625 468.0159375 238.4140625 467.3359375 C237.24617188 467.22185547 237.24617188 467.22185547 236.0546875 467.10546875 C231.11274892 466.06087444 226.76668089 464.0694094 222.1640625 462.0234375 C209.6057928 456.50761282 196.98659001 451.72709853 183.9765625 447.3984375 C183.17980103 447.13236694 182.38303955 446.86629639 181.56213379 446.59216309 C169.95357428 442.72342257 158.34066566 439.10806688 146.4140625 436.3359375 C146.4140625 435.6759375 146.4140625 435.0159375 146.4140625 434.3359375 C145.31707031 434.38234375 144.22007813 434.42875 143.08984375 434.4765625 C137.7487375 434.4718804 132.78578492 433.27429301 127.6015625 432.0859375 C117.11477814 429.77682984 106.608299 428.06367511 95.97338867 426.59277344 C94.3391394 426.36509277 94.3391394 426.36509277 92.671875 426.1328125 C91.7039502 426.00229492 90.73602539 425.87177734 89.73876953 425.73730469 C87.4140625 425.3359375 87.4140625 425.3359375 85.4140625 424.3359375 C41.58820317 418.86052166 -21.05939704 415.75540934 -63.5859375 430.3359375 C-65.26195626 430.76733687 -66.94449835 431.17424088 -68.6328125 431.5546875 C-69.5609375 431.76480469 -70.4890625 431.97492188 -71.4453125 432.19140625 C-72.39921875 432.40410156 -73.353125 432.61679687 -74.3359375 432.8359375 C-75.74359375 433.15498047 -75.74359375 433.15498047 -77.1796875 433.48046875 C-82.57385302 434.69490104 -87.97381824 435.82596003 -93.40942383 436.83984375 C-95.5614133 437.33034769 -97.48001325 438.0083777 -99.5234375 438.8359375 C-102.49633698 440.03148825 -105.23758639 440.65403991 -108.40625 441.12109375 C-115.02160908 442.27948289 -121.2666059 444.37439498 -127.58618164 446.59448242 C-129.54126982 447.27968724 -131.50156073 447.9481336 -133.46289062 448.61523438 C-140.95709876 451.15898665 -140.95709876 451.15898665 -147.5859375 455.3359375 C-150.18372977 456.4552435 -152.74841497 457.48706034 -155.3984375 458.4609375 C-156.08486328 458.72519531 -156.77128906 458.98945313 -157.47851562 459.26171875 C-161.8619521 460.89565818 -165.93359781 461.83725534 -170.5859375 462.3359375 C-170.5859375 462.9959375 -170.5859375 463.6559375 -170.5859375 464.3359375 C-171.11058594 464.531875 -171.63523437 464.7278125 -172.17578125 464.9296875 C-188.19580779 471.11379092 -203.05355961 479.18926549 -217.88964844 487.77685547 C-220.28541929 489.1621681 -222.68803948 490.53440135 -225.09375 491.90234375 C-259.83643843 511.81221715 -291.75999183 536.71181667 -321.05761719 563.92089844 C-322.66806869 565.41198101 -324.28632332 566.89421966 -325.90625 568.375 C-334.14102791 575.91252142 -342.24377813 583.49491656 -349.515625 591.984375 C-351.71276745 594.47999718 -353.97483541 596.90355838 -356.25097656 599.3269043 C-361.44629366 604.86120768 -366.47880961 610.45083608 -371.22265625 616.3828125 C-372.99711773 618.6001561 -374.78956796 620.79363598 -376.60546875 622.9765625 C-384.44628326 632.43481762 -391.67746084 642.17978826 -398.5859375 652.3359375 C-399.26849609 653.33592773 -399.95105469 654.33591797 -400.65429688 655.36621094 C-410.86330645 670.36656549 -420.65843943 685.52777527 -429.5859375 701.3359375 C-430.35550781 702.68776123 -430.35550781 702.68776123 -431.140625 704.06689453 C-460.9758225 756.75162295 -481.64947673 814.28107732 -494.5859375 873.3359375 C-494.84407227 874.5022168 -495.10220703 875.66849609 -495.36816406 876.87011719 C-500.15419661 898.62966293 -504.37963651 920.58583683 -505.375 942.88671875 C-505.65860718 947.5242213 -506.38031451 952.05964739 -507.08512878 956.64862061 C-508.58716121 967.70767243 -508.74299804 978.86431476 -508.75390625 990.0078125 C-508.7581189 991.37031619 -508.76253919 992.73281926 -508.76715088 994.09532166 C-508.77900792 998.42554379 -508.77810748 1002.7557048 -508.7734375 1007.0859375 C-508.77272877 1007.82595127 -508.77202003 1008.56596504 -508.77128983 1009.32840347 C-508.69325575 1074.41112977 -501.50752423 1140.37359186 -480.57763672 1202.39208984 C-479.59762656 1205.30123866 -478.63393554 1208.21556953 -477.67089844 1211.13037109 C-466.1087688 1246.03265039 -452.29259287 1280.05811665 -434.5859375 1312.3359375 C-433.79098877 1313.79217529 -433.79098877 1313.79217529 -432.97998047 1315.27783203 C-422.1854318 1334.99644948 -410.56324125 1353.9813937 -397.5859375 1372.3359375 C-397.05822754 1373.08294922 -396.53051758 1373.82996094 -395.98681641 1374.59960938 C-390.0994717 1382.90586604 -384.15713527 1391.10250121 -377.6171875 1398.91015625 C-375.62424956 1401.29018406 -373.69521971 1403.71076704 -371.7734375 1406.1484375 C-368.52933031 1410.20838947 -365.20708086 1414.19396408 -361.8359375 1418.1484375 C-361.17501099 1418.92828003 -361.17501099 1418.92828003 -360.50073242 1419.72387695 C-351.0691146 1430.72221964 -340.98736323 1441.09945532 -330.72998047 1451.32226562 C-328.82010756 1453.22672255 -326.91571601 1455.13654569 -325.01171875 1457.046875 C-319.04066672 1463.02146665 -313.06647994 1468.90826706 -306.5859375 1474.3359375 C-305.57580109 1475.21236534 -304.56663798 1476.0899166 -303.55859375 1476.96875 C-294.82841688 1484.44506254 -285.77902979 1491.44013569 -276.5859375 1498.3359375 C-275.42819824 1499.20919678 -275.42819824 1499.20919678 -274.24707031 1500.10009766 C-263.31782147 1508.33190529 -252.22149977 1516.13431522 -240.5859375 1523.3359375 C-239.43254883 1524.05064209 -239.43254883 1524.05064209 -238.25585938 1524.77978516 C-222.98726334 1534.19087146 -207.43639762 1543.17743192 -191.2265625 1550.875 C-190.60608536 1551.17005936 -189.98560822 1551.46511871 -189.34632874 1551.76911926 C-186.2908221 1553.21791206 -183.22894944 1554.64857789 -180.15600586 1556.06030273 C-179.05393799 1556.57536377 -177.95187012 1557.0904248 -176.81640625 1557.62109375 C-175.83051514 1558.07363525 -174.84462402 1558.52617676 -173.82885742 1558.99243164 C-171.5859375 1560.3359375 -171.5859375 1560.3359375 -170.5859375 1563.3359375 C-173.5559375 1563.9959375 -176.5259375 1564.6559375 -179.5859375 1565.3359375 C-179.5859375 1565.9959375 -179.5859375 1566.6559375 -179.5859375 1567.3359375 C-181.0709375 1567.82513672 -181.0709375 1567.82513672 -182.5859375 1568.32421875 C-189.30157903 1570.54432883 -195.98236743 1572.79912048 -202.5859375 1575.3359375 C-204.52107754 1576.07134439 -206.45873226 1576.80015758 -208.3984375 1577.5234375 C-209.76935547 1578.03970703 -209.76935547 1578.03970703 -211.16796875 1578.56640625 C-213.5859375 1579.3359375 -213.5859375 1579.3359375 -216.5859375 1579.3359375 C-216.5859375 1579.9959375 -216.5859375 1580.6559375 -216.5859375 1581.3359375 C-217.76349609 1581.62597656 -217.76349609 1581.62597656 -218.96484375 1581.921875 C-226.08008446 1583.68540705 -233.13433357 1585.49926391 -240.0859375 1587.8359375 C-245.84922492 1589.76349077 -251.44503302 1591.3455736 -257.4609375 1592.2734375 C-261.07399532 1592.84438985 -264.40416622 1593.5111768 -267.8359375 1594.7734375 C-277.9068976 1598.34817469 -288.53552255 1599.49789031 -299.14453125 1599.99487305 C-303.11750931 1600.19440878 -306.64655611 1600.69154573 -310.44921875 1601.796875 C-329.9264012 1606.71067971 -351.6046676 1605.57464047 -371.5234375 1605.5859375 C-372.60765991 1605.58661224 -373.69188232 1605.58728699 -374.80895996 1605.58798218 C-406.77417251 1605.55668044 -440.7153131 1604.54573966 -471.5859375 1595.3359375 C-473.55920451 1594.96929176 -475.53869994 1594.63431415 -477.5234375 1594.3359375 C-483.85260731 1593.32043637 -489.84116651 1591.96561405 -495.8984375 1589.8359375 C-499.04183635 1588.75538318 -502.02321953 1588.06575403 -505.30859375 1587.5859375 C-513.35778963 1586.16379438 -520.98825515 1583.45423659 -528.7109375 1580.8359375 C-529.50284485 1580.5696051 -530.2947522 1580.30327271 -531.11065674 1580.02886963 C-552.831824 1572.71273168 -573.82449625 1564.04980576 -594.5859375 1554.3359375 C-594.5859375 1553.6759375 -594.5859375 1553.0159375 -594.5859375 1552.3359375 C-595.18164551 1552.18825928 -595.77735352 1552.04058105 -596.39111328 1551.88842773 C-603.38379893 1549.99398145 -609.2314743 1547.05070976 -615.4609375 1543.3984375 C-616.45834961 1542.82287109 -617.45576172 1542.24730469 -618.48339844 1541.65429688 C-621.52450363 1539.89309862 -624.55580303 1538.11592906 -627.5859375 1536.3359375 C-628.47764648 1535.81757324 -629.36935547 1535.29920898 -630.28808594 1534.76513672 C-655.50423558 1520.09801436 -679.22606608 1503.05868101 -701.5859375 1484.3359375 C-702.49617676 1483.57434326 -702.49617676 1483.57434326 -703.42480469 1482.79736328 C-719.16417923 1469.57645854 -733.73774109 1455.31329801 -748.20507812 1440.73266602 C-749.871842 1439.05479266 -751.54929332 1437.38749953 -753.23461914 1435.72827148 C-755.00982417 1433.92210036 -756.56743103 1432.21546013 -758.05078125 1430.1796875 C-758.66276367 1429.35791016 -758.66276367 1429.35791016 -759.28710938 1428.51953125 C-760.10996174 1427.39899612 -760.93028691 1426.27660068 -761.74804688 1425.15234375 C-763.86483728 1422.31884479 -765.93215117 1419.9348864 -768.703125 1417.72265625 C-771.41359564 1415.47862162 -772.96892144 1413.62563627 -774.7734375 1410.6484375 C-776.63005834 1407.60521601 -777.53900318 1406.36722705 -780.5859375 1404.3359375 C-780.9159375 1403.3459375 -781.2459375 1402.3559375 -781.5859375 1401.3359375 C-782.5759375 1400.6759375 -783.5659375 1400.0159375 -784.5859375 1399.3359375 C-785.54403378 1397.68404736 -786.4974543 1396.02896068 -787.41015625 1394.3515625 C-791.06875337 1387.91459133 -791.06875337 1387.91459133 -796.5859375 1383.3359375 C-797.30141697 1382.13452822 -797.95782081 1380.89774313 -798.5859375 1379.6484375 C-800.86503161 1375.41200375 -803.50723555 1371.53021892 -806.3359375 1367.6484375 C-809.92521198 1362.70793067 -813.39285284 1357.71321917 -816.7109375 1352.5859375 C-817.29633301 1351.69128784 -817.29633301 1351.69128784 -817.89355469 1350.77856445 C-820.5859375 1346.57920534 -820.5859375 1346.57920534 -820.5859375 1344.3359375 C-821.5759375 1344.0059375 -822.5659375 1343.6759375 -823.5859375 1343.3359375 C-824.71004806 1340.99778753 -825.68003208 1338.75338174 -826.5859375 1336.3359375 C-826.9778125 1335.3665625 -827.3696875 1334.3971875 -827.7734375 1333.3984375 C-828.0415625 1332.7178125 -828.3096875 1332.0371875 -828.5859375 1331.3359375 C-829.2459375 1331.3359375 -829.9059375 1331.3359375 -830.5859375 1331.3359375 C-831.2459375 1329.0259375 -831.9059375 1326.7159375 -832.5859375 1324.3359375 C-833.2459375 1324.3359375 -833.9059375 1324.3359375 -834.5859375 1324.3359375 C-835.5759375 1321.3659375 -836.5659375 1318.3959375 -837.5859375 1315.3359375 C-838.2459375 1315.3359375 -838.9059375 1315.3359375 -839.5859375 1315.3359375 C-842.77412854 1309.92646582 -845.36987223 1304.53828809 -847.62109375 1298.6796875 C-848.98823534 1295.35869577 -850.75447333 1292.42653328 -852.5859375 1289.3359375 C-855.17159906 1284.43781636 -857.4273302 1279.43500986 -859.5859375 1274.3359375 C-859.94260498 1273.49836914 -860.29927246 1272.66080078 -860.66674805 1271.79785156 C-870.014541 1249.79626863 -870.014541 1249.79626863 -873.6965332 1238.60205078 C-874.60815735 1235.87243166 -875.53321166 1233.42194431 -877.04101562 1230.96240234 C-878.59512758 1228.32031378 -879.58653355 1225.8511006 -880.55859375 1222.94921875 C-880.90083984 1221.92763672 -881.24308594 1220.90605469 -881.59570312 1219.85351562 C-882.11680664 1218.26700195 -882.11680664 1218.26700195 -882.6484375 1216.6484375 C-883.1753418 1215.09092773 -883.1753418 1215.09092773 -883.71289062 1213.50195312 C-885.57235032 1207.89545367 -887.03288329 1202.41041328 -888.0949707 1196.60375977 C-888.69313081 1193.8408014 -889.70374857 1191.29099482 -890.74707031 1188.66894531 C-892.7327221 1183.14656799 -894.03704035 1177.3988435 -895.4609375 1171.7109375 C-895.63546448 1171.01994965 -895.80999146 1170.32896179 -895.98980713 1169.61703491 C-898.96282208 1157.77202829 -901.21711031 1145.89260404 -903.03857422 1133.81982422 C-903.21662598 1132.64564941 -903.39467773 1131.47147461 -903.578125 1130.26171875 C-903.72620605 1129.23473877 -903.87428711 1128.20775879 -904.02685547 1127.1496582 C-904.48171494 1124.35819667 -904.48171494 1124.35819667 -905.58642578 1121.98486328 C-906.93875208 1118.4009013 -907.23361789 1114.81140152 -907.5859375 1111.02734375 C-907.66714844 1110.22417221 -907.74835938 1109.42100067 -907.83203125 1108.5934906 C-908.09028371 1106.02910886 -908.33868715 1103.46390138 -908.5859375 1100.8984375 C-908.91525097 1097.54516447 -909.24923082 1094.19238203 -909.5859375 1090.83984375 C-909.70819199 1089.60945877 -909.70819199 1089.60945877 -909.83291626 1088.35421753 C-910.32290409 1083.53687934 -910.93702747 1078.76017791 -911.671875 1073.97265625 C-912.67901602 1067.17248343 -913.03982332 1060.45385871 -913.2109375 1053.5859375 C-913.22895416 1052.92339966 -913.24697083 1052.26086182 -913.26553345 1051.57824707 C-914.63583253 999.98331274 -913.54825617 949.64354634 -904.4609375 898.7734375 C-904.31479004 897.95496338 -904.16864258 897.13648926 -904.01806641 896.29321289 C-903.24520387 892.18914982 -902.27900128 888.21917918 -901.10546875 884.2109375 C-899.34895959 877.91148679 -898.51541291 871.52897424 -897.67959595 865.05819702 C-895.69334998 849.80055962 -893.15443228 834.65926508 -890.3984375 819.5234375 C-890.22422272 818.55769806 -890.05000793 817.59195862 -889.87051392 816.59695435 C-889.37106939 813.8357165 -888.86475283 811.07584451 -888.35546875 808.31640625 C-888.13225952 807.08574936 -888.13225952 807.08574936 -887.90454102 805.83023071 C-887.09654164 801.51835879 -886.0385785 797.48671837 -884.5859375 793.3359375 C-884.0483234 790.66937157 -883.54428085 788.01548323 -883.0859375 785.3359375 C-882.45682217 781.65803247 -881.8391233 778.06834053 -880.61621094 774.53076172 C-879.52225618 771.13846504 -878.90819771 767.85848368 -878.3203125 764.34375 C-876.62256192 754.79351632 -874.14175687 745.47116906 -871.6171875 736.11132812 C-870.84318418 733.23784082 -870.08109406 730.36138743 -869.3203125 727.484375 C-865.80631289 714.29934868 -861.83201939 701.30210839 -857.5859375 688.3359375 C-857.08544168 686.79676761 -856.58510828 685.25754488 -856.08496094 683.71826172 C-824.18994559 585.85786117 -824.18994559 585.85786117 -804.04931641 552.81494141 C-802.70447328 550.53674036 -801.76059758 548.4132965 -800.8515625 545.9375 C-798.13847461 538.97390775 -794.71036348 532.36946392 -791.3359375 525.7109375 C-790.67931108 524.40774168 -790.02305846 523.10435744 -789.3671875 521.80078125 C-787.77773309 518.64365351 -786.18326319 515.4890916 -784.5859375 512.3359375 C-783.9259375 512.3359375 -783.2659375 512.3359375 -782.5859375 512.3359375 C-782.460979 511.59617676 -782.33602051 510.85641602 -782.20727539 510.09423828 C-781.62092287 507.4912478 -780.86672471 505.55844294 -779.64453125 503.203125 C-779.02904419 502.01517334 -779.02904419 502.01517334 -778.40112305 500.80322266 C-777.94648682 499.94776855 -777.49185059 499.09231445 -777.0234375 498.2109375 C-776.54237549 497.30005371 -776.06131348 496.38916992 -775.56567383 495.45068359 C-769.59424217 484.29016112 -763.08892984 473.44144508 -756.55419922 462.60498047 C-754.74249055 459.59595305 -752.94539009 456.57876436 -751.15234375 453.55859375 C-737.99181636 431.5165982 -723.62165057 410.14138273 -708.5859375 389.3359375 C-707.86535156 388.33304687 -707.14476562 387.33015625 -706.40234375 386.296875 C-698.76285992 375.72371024 -690.88001402 365.33056817 -682.890625 355.02001953 C-682.01446662 353.88908006 -681.13948244 352.75723003 -680.265625 351.62451172 C-674.66740214 344.37505865 -668.92189914 337.29439452 -662.921875 330.37304688 C-659.94405032 326.93620518 -657.04973701 323.45219393 -654.2109375 319.8984375 C-649.95025873 314.64256369 -645.37278371 309.72087247 -640.72119141 304.81274414 C-637.15871664 301.05088093 -633.7098022 297.21326919 -630.31054688 293.3034668 C-620.08220823 281.63441511 -609.04243048 270.6889819 -598.0859375 259.7109375 C-597.47811432 259.10052612 -596.87029114 258.49011475 -596.24404907 257.86120605 C-590.35338066 251.95076463 -584.48635503 246.08009486 -578.12939453 240.66552734 C-576.23215163 239.03117353 -574.49642896 237.27673647 -572.7734375 235.4609375 C-568.93122739 231.55880989 -564.77512001 228.17836158 -560.5078125 224.75390625 C-557.43366412 222.20992517 -554.50463261 219.55433462 -551.5859375 216.8359375 C-547.08480615 212.65739322 -542.4649762 208.68616979 -537.6796875 204.8359375 C-535.3296175 202.93689103 -532.99950128 201.02135054 -530.6796875 199.0859375 C-521.82450096 191.70798224 -512.81367864 184.62798793 -503.5390625 177.78613281 C-501.62686252 176.36632433 -499.7293137 174.92916363 -497.8359375 173.484375 C-467.82447133 150.6242147 -435.90683948 130.17357609 -403.02490234 111.70751953 C-400.79720278 110.45474514 -398.57564425 109.19182305 -396.35546875 107.92578125 C-387.12309249 102.69297463 -377.74609427 97.73032537 -368.33807373 92.82214355 C-366.92625736 92.08461726 -365.51579905 91.34448511 -364.10675049 90.60168457 C-362.1170246 89.55429918 -360.12191822 88.51796743 -358.125 87.484375 C-356.96178223 86.87770996 -355.79856445 86.27104492 -354.60009766 85.64599609 C-351.5859375 84.3359375 -351.5859375 84.3359375 -347.5859375 84.3359375 C-347.5859375 83.6759375 -347.5859375 83.0159375 -347.5859375 82.3359375 C-326.81144989 72.74921437 -305.88195598 63.70310873 -284.5859375 55.3359375 C-283.26722656 54.81725098 -283.26722656 54.81725098 -281.921875 54.28808594 C-276.51715905 52.18345291 -271.06781745 50.22967785 -265.5859375 48.3359375 C-264.35552734 47.90990234 -263.12511719 47.48386719 -261.85742188 47.04492188 C-230.94545896 36.38372198 -199.7937984 27.16695163 -167.86816406 20.07080078 C-164.52724038 19.3227957 -161.19326819 18.54821884 -157.859375 17.76953125 C-123.94697543 9.93870192 -89.20190081 4.68963159 -54.4609375 2.828125 C-50.24907093 2.59608145 -46.06429529 2.29964514 -41.8687439 1.86218262 C-27.88789731 0.41272971 -14.04886905 0.00944655 0 0 Z " fill="#2F0092" transform="translate(1323.5859375,-0.3359375)"/>
<path d="M0 0 C1.65140991 0.79748657 1.65140991 0.79748657 3.33618164 1.61108398 C40.84263639 19.83187689 76.66827628 41.60815382 108.5625 68.625 C109.62855475 69.51734718 110.69498115 70.40925048 111.76171875 71.30078125 C117.61454924 76.20671743 123.38735425 81.1848412 129.03222656 86.33032227 C130.59820371 87.75049008 132.17152664 89.16265951 133.75634766 90.56176758 C140.42643146 96.46497009 146.75695603 102.66560754 153.04077148 108.97290039 C154.75457233 110.6920867 156.47369082 112.40582583 158.19335938 114.11914062 C163.86492731 119.78733111 169.36405358 125.51435067 174.5625 131.625 C175.9757355 133.1698126 177.39190409 134.71195325 178.8125 136.25 C183.36052765 141.29053826 187.52942095 146.57378466 191.68359375 151.9375 C193.58026232 154.38281307 195.50797275 156.79651105 197.47265625 159.1875 C204.8578748 168.19446024 211.51077117 177.57466128 217.97753906 187.25927734 C219.47958257 189.50123693 220.99843403 191.73064842 222.5234375 193.95703125 C258.4664501 246.70276966 283.88250131 304.7913239 302.5625 365.625 C302.85608398 366.58083984 303.14966797 367.53667969 303.45214844 368.52148438 C313.99905387 403.48662699 319.97505818 440.25531747 323.8125 476.5 C323.89576538 477.28479736 323.97903076 478.06959473 324.06481934 478.87817383 C326.14967684 498.79176002 326.80274885 518.54503313 326.8125 538.5625 C326.81351212 540.44057846 326.81351212 540.44057846 326.81454468 542.3565979 C326.75412454 613.44399635 315.87658035 683.39534777 292.5625 750.625 C291.91909668 752.48511719 291.91909668 752.48511719 291.26269531 754.3828125 C282.90872201 778.31146545 273.4617001 802.08799047 261.64941406 824.54541016 C260.36988006 826.99353923 259.11904551 829.45557535 257.8671875 831.91796875 C247.86246178 851.48730526 236.77959386 870.35544209 224.5625 888.625 C224.12760254 889.27597656 223.69270508 889.92695312 223.24462891 890.59765625 C211.85288382 907.56928981 199.68536682 923.9528516 186.5625 939.625 C186.05477051 940.23182617 185.54704102 940.83865234 185.02392578 941.46386719 C179.10110087 948.51493983 173.01837078 955.39481268 166.73266602 962.12451172 C163.32928426 965.76924793 160.04922051 969.49301133 156.8671875 973.33203125 C155.5625 974.625 155.5625 974.625 153.5625 974.625 C153.19125 975.553125 153.19125 975.553125 152.8125 976.5 C151.35621361 978.97568687 150.18437494 979.57625002 147.5625 980.625 C147.5625 981.285 147.5625 981.945 147.5625 982.625 C146.09375 984.0703125 146.09375 984.0703125 144.0625 985.75 C141.09572639 988.26757902 138.28675751 990.84668976 135.5625 993.625 C131.72662421 997.50530678 127.70687713 1001.07948196 123.5625 1004.625 C122.50862512 1005.54240678 121.45528238 1006.46042505 120.40234375 1007.37890625 C112.67208609 1014.09830923 104.76928832 1020.49596037 96.5625 1026.625 C95.84400879 1027.16415039 95.12551758 1027.70330078 94.38525391 1028.25878906 C71.85874157 1045.13600454 48.35171325 1060.26876703 23.5625 1073.625 C22.8514209 1074.01139648 22.1403418 1074.39779297 21.40771484 1074.79589844 C13.44243442 1079.12016672 5.40211619 1083.28827304 -2.75 1087.25 C-3.8174646 1087.78294678 -3.8174646 1087.78294678 -4.90649414 1088.32666016 C-9.86838122 1090.69152038 -9.86838122 1090.69152038 -12.20458984 1090.41845703 C-15.46895832 1089.25847479 -18.5619951 1087.77358515 -21.67578125 1086.265625 C-22.38468506 1085.92511612 -23.09358887 1085.58460724 -23.82397461 1085.23377991 C-26.13547948 1084.11992696 -28.44323464 1082.99863341 -30.75 1081.875 C-31.93340469 1081.29943863 -31.93340469 1081.29943863 -33.14071655 1080.71224976 C-74.00574391 1060.78973867 -112.34707741 1035.77299277 -146.4375 1005.625 C-147.8539721 1004.39560912 -149.27060869 1003.16640771 -150.6875 1001.9375 C-151.93768647 1000.83354447 -153.1876601 999.72934789 -154.4375 998.625 C-155.0982251 998.04911133 -155.7589502 997.47322266 -156.43969727 996.87988281 C-163.93509391 990.25812288 -170.99305622 983.22158881 -178.05200195 976.14086914 C-180.12794426 974.05954811 -182.20920422 971.98365187 -184.29101562 969.90820312 C-185.63573752 968.56282062 -186.98014929 967.21712806 -188.32421875 965.87109375 C-188.93480637 965.26253036 -189.54539398 964.65396698 -190.17448425 964.02696228 C-194.45776137 959.72071696 -198.48066307 955.23154785 -202.4375 950.625 C-203.45798977 949.44892055 -204.47876897 948.2730921 -205.5 947.09765625 C-210.99231851 940.73393386 -216.3526017 934.32162946 -221.4375 927.625 C-222.159375 926.69945312 -222.88125 925.77390625 -223.625 924.8203125 C-242.16947111 900.98591213 -258.60448976 875.92864306 -273.4375 849.625 C-273.98647949 848.65481934 -274.53545898 847.68463867 -275.10107422 846.68505859 C-300.25686498 801.98107543 -320.35203195 752.51996417 -332.4375 702.625 C-332.72286621 701.47612305 -333.00823242 700.32724609 -333.30224609 699.14355469 C-338.18354704 679.44297483 -342.13496928 659.64337296 -345.4375 639.625 C-345.5550061 638.9166803 -345.67251221 638.2083606 -345.7935791 637.47857666 C-351.26265524 604.34423047 -352.6074887 571.61052906 -352.68203354 538.07841873 C-352.687418 535.90805215 -352.69553971 533.73770876 -352.70401001 531.56735229 C-352.7674329 512.51518508 -352.6487903 493.4587373 -349.4375 474.625 C-349.2936706 473.04497278 -349.17339978 471.46260308 -349.078125 469.87890625 C-343.02955931 380.08774827 -310.02813898 289.02929862 -242.4375 180.625 C-241.64110107 179.48635498 -241.64110107 179.48635498 -240.82861328 178.32470703 C-233.36144033 167.67904757 -225.45925625 157.50435897 -217.07470703 147.56640625 C-215.54128618 145.74807005 -214.01729963 143.92230685 -212.49609375 142.09375 C-206.83536422 135.31300967 -200.98394706 128.72841398 -194.96337891 122.26416016 C-193.28826896 120.46469005 -191.61877799 118.66008935 -189.94921875 116.85546875 C-173.67843518 99.30274466 -173.67843518 99.30274466 -164.72265625 91.62890625 C-162.37305959 89.56849072 -160.0877745 87.45098758 -157.80444336 85.31787109 C-152.48908732 80.35563582 -147.09767983 75.57165796 -141.421875 71.01953125 C-139.20722458 69.24259315 -137.01257619 67.45004198 -134.828125 65.63671875 C-107.209408 42.78655128 -76.88494879 23.72491629 -45.4375 6.625 C-44.76847656 6.25890625 -44.09945313 5.8928125 -43.41015625 5.515625 C-39.11183405 3.16644296 -34.78770971 0.87676053 -30.4375 -1.375 C-29.84001953 -1.69049805 -29.24253906 -2.00599609 -28.62695312 -2.33105469 C-26.88747058 -3.24234712 -25.13141758 -4.12179121 -23.375 -5 C-21.87259766 -5.76183594 -21.87259766 -5.76183594 -20.33984375 -6.5390625 C-13.62572667 -8.4728728 -5.98818009 -2.89623498 0 0 Z " fill="#FBEBB6" transform="translate(1166.4375,471.375)"/>
<path d="M0 0 C1.65140991 0.79748657 1.65140991 0.79748657 3.33618164 1.61108398 C40.84263639 19.83187689 76.66827628 41.60815382 108.5625 68.625 C109.62855475 69.51734718 110.69498115 70.40925048 111.76171875 71.30078125 C117.61454924 76.20671743 123.38735425 81.1848412 129.03222656 86.33032227 C130.59820371 87.75049008 132.17152664 89.16265951 133.75634766 90.56176758 C140.42643146 96.46497009 146.75695603 102.66560754 153.04077148 108.97290039 C154.75457233 110.6920867 156.47369082 112.40582583 158.19335938 114.11914062 C163.86492731 119.78733111 169.36405358 125.51435067 174.5625 131.625 C175.9757355 133.1698126 177.39190409 134.71195325 178.8125 136.25 C183.36052765 141.29053826 187.52942095 146.57378466 191.68359375 151.9375 C193.58026232 154.38281307 195.50797275 156.79651105 197.47265625 159.1875 C204.8578748 168.19446024 211.51077117 177.57466128 217.97753906 187.25927734 C219.47958257 189.50123693 220.99843403 191.73064842 222.5234375 193.95703125 C258.4664501 246.70276966 283.88250131 304.7913239 302.5625 365.625 C302.85608398 366.58083984 303.14966797 367.53667969 303.45214844 368.52148438 C313.99905387 403.48662699 319.97505818 440.25531747 323.8125 476.5 C323.89576538 477.28479736 323.97903076 478.06959473 324.06481934 478.87817383 C326.14967684 498.79176002 326.80274885 518.54503313 326.8125 538.5625 C326.81351212 540.44057846 326.81351212 540.44057846 326.81454468 542.3565979 C326.75412454 613.44399635 315.87658035 683.39534777 292.5625 750.625 C291.91909668 752.48511719 291.91909668 752.48511719 291.26269531 754.3828125 C282.90872201 778.31146545 273.4617001 802.08799047 261.64941406 824.54541016 C260.36988006 826.99353923 259.11904551 829.45557535 257.8671875 831.91796875 C247.86246178 851.48730526 236.77959386 870.35544209 224.5625 888.625 C224.12760254 889.27597656 223.69270508 889.92695312 223.24462891 890.59765625 C211.85288382 907.56928981 199.68536682 923.9528516 186.5625 939.625 C186.05477051 940.23182617 185.54704102 940.83865234 185.02392578 941.46386719 C179.10110087 948.51493983 173.01837078 955.39481268 166.73266602 962.12451172 C163.32928426 965.76924793 160.04922051 969.49301133 156.8671875 973.33203125 C155.5625 974.625 155.5625 974.625 153.5625 974.625 C153.19125 975.553125 153.19125 975.553125 152.8125 976.5 C151.35621361 978.97568687 150.18437494 979.57625002 147.5625 980.625 C147.5625 981.285 147.5625 981.945 147.5625 982.625 C146.09375 984.0703125 146.09375 984.0703125 144.0625 985.75 C141.09572639 988.26757902 138.28675751 990.84668976 135.5625 993.625 C131.72662421 997.50530678 127.70687713 1001.07948196 123.5625 1004.625 C122.50862512 1005.54240678 121.45528238 1006.46042505 120.40234375 1007.37890625 C112.67208609 1014.09830923 104.76928832 1020.49596037 96.5625 1026.625 C95.84400879 1027.16415039 95.12551758 1027.70330078 94.38525391 1028.25878906 C72.53144656 1044.63200344 49.76356604 1059.4878935 25.71679688 1072.46191406 C23.57211372 1073.61980964 21.4344908 1074.79005795 19.296875 1075.9609375 C9.28130651 1081.39980212 -0.96687331 1086.13059065 -11.4375 1090.625 C-10.17735933 1086.84457799 -8.7456005 1086.18165294 -5.5 1083.9375 C7.36952805 1074.82779546 19.405578 1064.51138487 31.05078125 1053.890625 C32.41732859 1052.65796954 33.79013739 1051.43159174 35.19262695 1050.23999023 C41.24219618 1045.07453436 46.85264793 1039.48677776 52.46264648 1033.85522461 C54.1217732 1032.19073723 55.78618051 1030.53166553 57.45117188 1028.87304688 C63.03114646 1023.29687531 68.47586153 1017.66056711 73.5625 1011.625 C74.41972656 1010.63757812 75.27695313 1009.65015625 76.16015625 1008.6328125 C114.18818094 964.15629551 143.74734932 913.78753757 163.46386719 858.67944336 C164.18809669 856.6659244 164.92289791 854.65617216 165.66894531 852.65063477 C167.60316034 847.44584609 169.27666182 842.33916842 170.5625 836.9375 C170.89672482 835.54547427 171.23137149 834.15354977 171.56640625 832.76171875 C171.73156738 832.06868652 171.89672852 831.3756543 172.06689453 830.66162109 C172.53100549 828.75442226 173.0280089 826.85531233 173.52734375 824.95703125 C176.58491612 813.30387392 178.80900267 801.50211726 180.99951172 789.65893555 C181.35806951 787.72667289 181.72353632 785.7956703 182.09814453 783.86645508 C189.27549819 746.25561378 189.14010825 705.4136209 183.5625 667.625 C183.31837657 665.80624839 183.07612554 663.98724426 182.8359375 662.16796875 C181.39841924 651.62848141 179.3899796 641.23497004 177.06103516 630.85839844 C176.59374666 628.76498259 176.14484904 626.66842422 175.69921875 624.5703125 C169.58831416 596.52256356 159.31295637 569.73094489 147.5625 543.625 C147.19398926 542.8 146.82547852 541.975 146.44580078 541.125 C129.87316373 504.23286882 106.8594037 469.57222693 80.44799805 438.98168945 C78.59369418 436.8327591 76.75891493 434.6699024 74.94262695 432.48876953 C67.79283117 423.94727951 60.19158915 415.97219887 52.27929688 408.13598633 C50.29488887 406.17005282 48.3188186 404.1960152 46.34375 402.22070312 C40.25343424 396.14717587 34.15660651 390.15631659 27.5625 384.625 C26.44388681 383.65267943 25.32667713 382.67874163 24.2109375 381.703125 C16.85636987 375.33323684 9.37214511 369.17609971 1.65820312 363.24487305 C0.03495358 361.99018284 -1.57916758 360.72367816 -3.18945312 359.45239258 C-11.10765016 353.23327018 -19.29824785 347.5206517 -27.69335938 341.96557617 C-29.80749922 340.565811 -31.91574617 339.15749815 -34.0234375 337.74804688 C-73.27978919 311.59523285 -115.31096152 291.13838798 -159.4375 274.625 C-160.47886108 274.23103027 -160.47886108 274.23103027 -161.54125977 273.82910156 C-179.83527874 266.91401399 -198.21194431 261.07511865 -217.21044922 256.42480469 C-220.26430676 255.66792488 -223.30654979 254.87670907 -226.34765625 254.0703125 C-239.47227521 250.62397947 -252.66914237 247.94819134 -266.01635742 245.54077148 C-266.68645844 245.41961975 -267.35655945 245.29846802 -268.04696655 245.17364502 C-269.87753902 244.84415176 -271.70888822 244.5189822 -273.5402832 244.1940918 C-276.4375 243.625 -276.4375 243.625 -279.4375 242.625 C-277.46697873 236.25135885 -274.39200796 230.87714605 -271.0625 225.125 C-270.40910645 223.99513672 -269.75571289 222.86527344 -269.08251953 221.70117188 C-253.88118162 195.67710574 -236.50460867 170.59608127 -217.07470703 147.56640625 C-215.54128618 145.74807005 -214.01729963 143.92230685 -212.49609375 142.09375 C-206.83536422 135.31300967 -200.98394706 128.72841398 -194.96337891 122.26416016 C-193.28826896 120.46469005 -191.61877799 118.66008935 -189.94921875 116.85546875 C-173.67843518 99.30274466 -173.67843518 99.30274466 -164.72265625 91.62890625 C-162.37305959 89.56849072 -160.0877745 87.45098758 -157.80444336 85.31787109 C-152.48908732 80.35563582 -147.09767983 75.57165796 -141.421875 71.01953125 C-139.20722458 69.24259315 -137.01257619 67.45004198 -134.828125 65.63671875 C-107.209408 42.78655128 -76.88494879 23.72491629 -45.4375 6.625 C-44.76847656 6.25890625 -44.09945313 5.8928125 -43.41015625 5.515625 C-39.11183405 3.16644296 -34.78770971 0.87676053 -30.4375 -1.375 C-29.84001953 -1.69049805 -29.24253906 -2.00599609 -28.62695312 -2.33105469 C-26.88747058 -3.24234712 -25.13141758 -4.12179121 -23.375 -5 C-21.87259766 -5.76183594 -21.87259766 -5.76183594 -20.33984375 -6.5390625 C-13.62572667 -8.4728728 -5.98818009 -2.89623498 0 0 Z " fill="#F4BE0F" transform="translate(1166.4375,471.375)"/>
<path d="M0 0 C0.66 0.33 1.32 0.66 2 1 C-16.81 19.81 -35.62 38.62 -55 58 C-55.66 57.67 -56.32 57.34 -57 57 C-48.93332665 48.1124482 -40.6451979 39.4861737 -32.14404297 31.01367188 C-30.23417006 29.10921495 -28.32977851 27.19939181 -26.42578125 25.2890625 C-20.94392961 19.80449593 -15.47733911 14.36900354 -9.56542969 9.34277344 C-7.43790542 7.51785399 -5.46363093 5.56119577 -3.5 3.5625 C-2.49453125 2.54349609 -2.49453125 2.54349609 -1.46875 1.50390625 C-0.9840625 1.00761719 -0.499375 0.51132813 0 0 Z " fill="#673197" transform="translate(755,231)"/>
<path d="M0 0 C0.33 0 0.66 0 1 0 C0.44028323 9.22713801 -0.67719494 18.25782121 -2.1875 27.375 C-2.29438141 28.02754761 -2.40126282 28.68009521 -2.51138306 29.35241699 C-4.259935 40.01139142 -6.17165594 50.63852656 -8.1875 61.25 C-8.3136972 61.92488464 -8.43989441 62.59976929 -8.56991577 63.29510498 C-8.92844947 65.20336632 -9.29796109 67.1095552 -9.66796875 69.015625 C-9.87703857 70.10133789 -10.0861084 71.18705078 -10.30151367 72.30566406 C-11 75 -11 75 -13 78 C-11.69209609 65.37899422 -9.75382362 52.90779896 -7.59594727 40.40600586 C-7.06162177 37.30740707 -6.53521304 34.2075372 -6.00976562 31.10742188 C-4.23120935 20.68311462 -2.36031067 10.31106709 0 0 Z " fill="#C194C4" transform="translate(438,795)"/>
<path d="M0 0 C0.66 0.33 1.32 0.66 2 1 C-10.54 13.54 -23.08 26.08 -36 39 C-36.66 38.67 -37.32 38.34 -38 38 C-15.96973985 14.44453679 -15.96973985 14.44453679 -6.796875 6.57421875 C-4.41401353 4.48662489 -2.20473601 2.27363401 0 0 Z " fill="#E3B744" transform="translate(1009,556)"/>
<path d="M0 0 C0.33 0 0.66 0 1 0 C0.50096389 8.44289548 -0.74364702 16.49638143 -2.5625 24.75 C-2.79646484 25.84054687 -3.03042969 26.93109375 -3.27148438 28.0546875 C-3.84099267 30.70464448 -4.41722202 33.3529357 -5 36 C-5.33 36 -5.66 36 -6 36 C-5.58431353 29.36335044 -4.71513123 22.85556735 -3.5625 16.3125 C-3.37917114 15.26267944 -3.37917114 15.26267944 -3.19213867 14.19165039 C-2.32628055 9.40214411 -1.22146156 4.71135173 0 0 Z " fill="#C5B7E0" transform="translate(2257,1218)"/>
<path d="M0 0 C0.66 0.33 1.32 0.66 2 1 C0.515 2.485 0.515 2.485 -1 4 C-0.34 4.66 0.32 5.32 1 6 C-5.93 8.97 -5.93 8.97 -13 12 C-11.69311714 8.07935143 -9.85695653 7.2196784 -6.5 4.875 C-3.10369507 2.61767474 -3.10369507 2.61767474 0 0 Z " fill="#F3B940" transform="translate(1168,1550)"/>
<path d="M0 0 C-1.57297914 1.86562642 -2.45510217 2.90238443 -4.90112305 3.34057617 C-5.59761963 3.32486572 -6.29411621 3.30915527 -7.01171875 3.29296875 C-7.76904297 3.28330078 -8.52636719 3.27363281 -9.30664062 3.26367188 C-10.09232422 3.23853516 -10.87800781 3.21339844 -11.6875 3.1875 C-12.88342773 3.16719727 -12.88342773 3.16719727 -14.10351562 3.14648438 C-16.06929967 3.11117089 -18.03473582 3.05736447 -20 3 C-15.50798566 -1.49201434 -6.05797722 -0.11218476 0 0 Z " fill="#75328C" transform="translate(1049,2053)"/>
<path d="M0 0 C5.74120286 -0.35882518 9.74884177 0.74793423 15 3 C16.485 3.5878125 16.485 3.5878125 18 4.1875 C18.66 4.455625 19.32 4.72375 20 5 C16.75812614 6.08062462 16.10290139 5.96405231 12.98828125 5.00390625 C12.23095703 4.77509766 11.47363281 4.54628906 10.69335938 4.31054688 C9.90767578 4.06369141 9.12199219 3.81683594 8.3125 3.5625 C7.51521484 3.31951172 6.71792969 3.07652344 5.89648438 2.82617188 C3.92860466 2.22520262 1.96397505 1.6136095 0 1 C0 0.67 0 0.34 0 0 Z " fill="#F5C0BD" transform="translate(684,2021)"/>
<path d="M0 0 C5.98993047 -0.3152595 9.63560356 0.31780178 15 3 C11.34142468 4.31534494 8.91973519 3.65468309 5.25 2.5625 C4.26515625 2.27503906 3.2803125 1.98757813 2.265625 1.69140625 C1.51796875 1.46324219 0.7703125 1.23507812 0 1 C0 0.67 0 0.34 0 0 Z " fill="#F4B4B1" transform="translate(711,2029)"/>
<path d="M0 0 C-4.96993194 2.43425238 -8.34605369 3.34615998 -14 3 C-9.7368213 0.15788087 -5.03577274 -2.0143091 0 0 Z " fill="#F4B6B3" transform="translate(708,35)"/>
<path d="M0 0 C-0.99 0 -1.98 0 -3 0 C-3 0.66 -3 1.32 -3 2 C-6.47325181 3.1577506 -9.36067448 3.06866652 -13 3 C-8.8341563 0.22277086 -4.9360889 -1.89849573 0 0 Z " fill="#F2ACA9" transform="translate(694,39)"/>
<path d="M0 0 C0.66 0.33 1.32 0.66 2 1 C0.515 2.485 0.515 2.485 -1 4 C-0.34 4.66 0.32 5.32 1 6 C-0.65 6.66 -2.3 7.32 -4 8 C-3.50168276 4.31245243 -2.89932357 2.39509338 0 0 Z " fill="#F2B132" transform="translate(1168,1550)"/>
<path d="M0 0 C0.33 0 0.66 0 1 0 C0.67 3.3 0.34 6.6 0 10 C-0.66 9.34 -1.32 8.68 -2 8 C-1.69347955 5.0574037 -1.32728846 2.65457692 0 0 Z " fill="#8668DA" transform="translate(435,817)"/>
</svg>
