<?xml version="1.0" standalone="no"?><!DOCTYPE svg PUBLIC "-//W3C//DTD SVG 1.1//EN" "http://www.w3.org/Graphics/SVG/1.1/DTD/svg11.dtd"><svg t="1783177773081" class="icon" viewBox="0 0 1024 1024" version="1.1" xmlns="http://www.w3.org/2000/svg" p-id="53296" xmlns:xlink="http://www.w3.org/1999/xlink" width="16" height="16"><path d="M777.142857 162.336508c-123.936508-46.933333-229.587302-69.688889-347.83492-24.990476-118.247619 44.901587-265.955556 161.11746-265.955556 333.206349 0 136.126984 79.238095 190.984127 177.574603 186.514286 112.55873-5.079365 218.412698-168.838095 233.650794-168.838096L566.857143 782.019048s-228.165079 60.139683-361.447619-68.673016c-132.266667-128-121.498413-282.006349-86.146032-368.55873C156.444444 253.968254 210.08254 184.888889 210.08254 184.888889 180.419048 194.234921 0 312.888889 0 497.371429s109.511111 302.933333 279.771429 369.980952 297.853968 36.368254 297.853968 36.368254l8.533333-426.666667 215.568254-30.273016v392.126985h15.44127V454.095238l108.088889 52.622222 11.580952 214.146032S1024 638.171429 1024 498.996825c0.203175-155.022222-107.479365-283.834921-246.857143-336.660317z m22.755556 274.692063l-216.584127 24.380953v-71.111111l85.942857-11.987302v29.663492l65.625397-2.844444v-31.085715l65.015873-11.987301V436.825397z m121.701587 51.2L814.730159 435.2v-65.625397l29.663492 18.692064v23.771428l43.682539 17.269842v-24.380953l33.52381 11.987302v71.314285z" fill="#B5151D" p-id="53297"></path></svg>