<?xml version="1.0" standalone="no"?><!DOCTYPE svg PUBLIC "-//W3C//DTD SVG 1.1//EN" "http://www.w3.org/Graphics/SVG/1.1/DTD/svg11.dtd"><svg t="1783152033335" class="icon" viewBox="0 0 1024 1024" version="1.1" xmlns="http://www.w3.org/2000/svg" p-id="33314" xmlns:xlink="http://www.w3.org/1999/xlink" width="16" height="16"><path d="M254.642 813C324.747 876.35 415.554 912 512 912c90.398 0 175.842-31.32 243.93-87.411l13.382-11.547 42.901 47.492C730.463 934.382 624.431 976 512 976c-105.841 0-206.01-36.882-285.59-102.813l-14.677-12.701L254.642 813z m617.625-141c35.346 0 64 28.654 64 64 0 35.346-28.654 64-64 64-35.347 0-64-28.654-64-64 0-35.346 28.653-64 64-64z m-720.534 0c35.347 0 64 28.654 64 64 0 35.346-28.653 64-64 64-35.346 0-64-28.654-64-64 0-35.346 28.654-64 64-64z m579.258-222.077l0.209 0.203c0.207 0.206 0.41 0.41 0.616 0.568 13.765 10.61 27.53 21.228 41.245 31.915 1.402 1.096 2.848 1.21 4.454 1.21 12.943-0.012 25.886 0.058 38.83-0.05 2.79-0.026 5.028 0.611 7.27 2.364 13.033 10.184 26.174 20.214 39.276 30.309 0.408 0.318 0.727 0.758 1.09 1.134v60.592l0.019 0.007c-0.02 14.613-0.045 29.225-0.064 43.838-3.632-1.625-6.347-4.537-9.444-6.895-10.872-8.298-21.578-16.812-32.418-25.16-1.772-1.364-2.052-2.97-2.052-4.977 0.038-21.107-0.039-42.213 0.095-63.32 0.02-3.116-0.924-3.932-3.945-3.894-12.943 0.153-25.892 0.14-38.842 0.013-2.785-0.025-3.651 0.797-3.639 3.6 0.096 23.02 0.109 46.031-0.012 69.05-0.02 3.059 1.07 3.677 3.862 3.645 11.458-0.134 22.922-0.038 34.387-0.07 1.638 0 3.085 0.21 4.448 1.255 13.377 10.26 26.791 20.476 40.18 30.717 0.402 0.306 0.663 0.79 0.988 1.192h-81.329c-1.166 0-2.326 0.083-3.492 0.127-9.056-6.825-18.112-13.638-27.16-20.47-4.736-3.574-9.426-7.22-14.2-10.75-1.727-1.281-2.65-2.664-2.644-4.99 0.07-46.336 0.05-92.673 0.064-139.016 0-0.917-0.421-2.224 0.407-2.676 0.711-0.387 1.275 0.026 1.801 0.529zM281.51 483.278c3.192-0.006 4.2 0.803 4.116 4.072-0.229 8.693-0.076 17.391-0.076 26.084 0 2.927-1.43 4.386-4.289 4.378-24.828-0.064-49.657-0.134-74.485-0.191-4.397-0.013-4.403 0.006-4.41 4.544 0 3.39 0.16 6.793-0.05 10.177-0.18 2.893 0.796 3.785 3.76 3.773 25.038-0.115 50.083-0.064 75.121-0.064 2.898 0 4.347 1.41 4.347 4.231-0.02 28.735-0.039 57.476-0.064 86.211-1.203 0.726-2.512 0.701-3.812 0.674l-0.557-0.01-0.277-0.001c-13.313 0.045-26.625 0.07-39.938 0.102-16.964-0.038-33.929-0.09-50.887-0.115-9.01-0.019-18.028-0.064-27.04 0.038-2.23 0.026-2.905-0.732-2.893-2.931 0.058-9.852-0.038-19.705-0.076-29.557 1.153-1.147 2.613-0.624 3.926-0.63 25.038-0.04 50.077-0.077 75.115 0.037 3.053 0.013 4.04-0.809 3.913-3.893-0.235-5.608-0.216-11.242 0-16.856 0.102-2.785-0.7-3.588-3.537-3.575-25.146 0.108-50.287 0.07-75.434 0.044-1.326 0-2.772 0.472-3.964-0.573 0.006-28.442 0.02-56.884 0.026-85.32 1.115-0.898 2.44-0.566 3.683-0.566 39.263-0.02 78.519 0.025 117.782-0.083z m254.726-0.007c25.14 0.122 50.287 0.064 75.428 0.09 1.115 0 2.3-0.312 3.843 0.618-4.034 3.18-7.852 6.245-11.733 9.24-8.896 6.864-17.773 13.747-26.759 20.483-1.623 1.216-1.776 2.663-1.785 4.239v0.834c0 34.667 0 69.341-0.012 104.01 0 0.182 0.004 0.366 0.01 0.55l0.02 0.555c0.04 1.108 0.053 2.22-0.483 3.272-14.032 0.007-28.059 0.026-42.092 0.039-0.578-0.866-0.569-1.82-0.528-2.77l0.02-0.475c0.007-0.157 0.011-0.315 0.011-0.47-0.013-45.381 0.02-90.755-0.083-136.136-0.006-3.27 0.956-4.091 4.143-4.079z m183.057-34.107c1.173 0.53 0.625 1.893 0.631 2.881 0.032 35.54 0.032 71.075 0.032 106.616l-0.008 16.073c-0.001 5.357 0.002 10.715 0.021 16.072 0 1.778-0.23 3.243-1.816 4.442-14.046 10.61-28.04 21.285-42.048 31.94-28.448-0.026-56.877-0.058-85.306-0.083 7.412-6.5 15.556-12.07 23.306-18.137 5.678-4.442 11.49-8.711 17.155-13.172 1.695-1.339 3.422-1.83 5.55-1.81 11.465 0.07 22.93-0.032 34.395 0.083 2.574 0.025 3.505-0.676 3.492-3.378-0.09-23.127-0.083-46.254 0-69.38 0.006-2.569-0.701-3.55-3.397-3.53a2367.83 2367.83 0 0 1-39.804 0c-2.747-0.026-3.346 0.993-3.333 3.53 0.083 21.004-0.007 42.009 0.108 63.014 0.02 2.957-0.892 4.766-3.275 6.583-7.382 5.611-14.705 11.296-22.019 16.994l-10.97 8.55a4076.93 4076.93 0 0 1-5.49 4.267c-0.727 0.561-1.396 1.307-2.473 1.377-0.504-0.648-0.495-1.363-0.441-2.072l0.031-0.385c0.015-0.192 0.028-0.382 0.028-0.57-0.013-32.355 0.032-64.716-0.064-97.07-0.006-2.919 0.714-4.837 3.123-6.653 12.956-9.763 25.79-19.692 38.612-29.627 1.778-1.377 3.57-1.963 5.825-1.944 5.307 0.033 10.615 0.043 15.922 0.045h15.922c2.653 0.001 5.307 0.005 7.96 0.012 1.766 0 3.244-0.325 4.697-1.459 13.72-10.68 27.492-21.304 41.264-31.934 0.138-0.107 0.274-0.235 0.411-0.37l0.206-0.206c0.517-0.516 1.057-1.017 1.753-0.699z m-359.577-13.797c0.937 0.434 0.536 1.504 0.536 2.288 0.025 14.103 0.108 28.206-0.051 42.31-0.032 3.115 0.95 3.988 3.976 3.906 7.526-0.21 15.065-0.026 22.598-0.166 2.345-0.045 3.2 0.726 3.18 3.072-0.083 9.33-0.083 18.665-0.006 27.995 0.019 2.377-0.95 3.104-3.238 3.078-7.64-0.095-15.282 0.051-22.916-0.07-2.517-0.038-3.575 0.606-3.55 3.359 0.204 23.324 0.3 46.655 0.35 69.985 0 2.199 0.695 2.957 2.926 2.925 7.64-0.108 15.282 0.045 22.916-0.089 2.371-0.044 3.078 0.676 3.072 3.053-0.02 9.01 0.172 18.022 0.28 27.033 0.013 1.052 0.179 2.129-0.382 3.11-23.745-0.013-47.484-0.032-71.228-0.051-0.039-9.438-0.109-18.87-0.109-28.308 0-25.663-0.038-51.326 0.128-76.983 0.019-3.301-0.95-4.187-4.117-4.06-5.723 0.224-11.458 0-17.188 0.07-2.045 0.026-3.084-0.426-3.053-2.803 0.11-9.54 0.097-19.087 0.007-28.633-0.019-2.129 0.778-2.753 2.792-2.728 6.156 0.077 12.312-0.063 18.461 0.064 2.575 0.051 3.652-0.707 3.429-3.448-0.306-3.69-0.255-7.411-0.395-11.12-0.051-1.364 0.331-2.377 1.485-3.27 12.764-9.839 25.485-19.73 38.224-29.595 0.554-0.433 1.115-1.274 1.873-0.924z m164.09 50.06l-0.093 141.69-124.69 0.013-0.19-87.51c-0.045-2.747 0.656-3.607 3.523-3.595 25.052 0.115 50.103 0.064 75.155 0.064 2.808 0 4.216-1.364 4.225-4.091 0-3.499-0.204-7.017 0.057-10.496 0.23-3.06-1.007-3.728-3.817-3.722h-77.684c-0.904-0.132-1.24-0.484-1.353-1.371l-0.088-29.41c-0.044-2.51 0.733-3.25 3.238-3.237l51.906-0.063 65.595-0.345 0.501-0.001h0.46c2.569 0.01 3.132 0.209 3.255 2.075z m126.06-383.804C833.28 160.888 960 332.22 960 528c0 23.843-1.865 47.456-5.55 70.686l-4.288 23.095-62.595-13.337C893.156 582.214 896 555.301 896 528c0-162.57-101.947-305.488-251.22-360.437l-14.592-5.04 19.678-60.9z m-275.663-0.022l19.668 60.903C236.659 213.274 128 360.164 128 528c0 20.464 1.598 40.71 4.752 60.615l3.672 19.785-62.597 13.33C67.313 591.138 64 559.773 64 528c0-190.047 119.406-357.055 294.165-420.883l16.038-5.516z m69.36 468.187c-2.25-0.019-2.594 0.975-2.568 2.874l-0.026 18.443c-0.07 2.517 0.943 3.008 3.18 2.957l35.006-0.006c1.852 0.024 2.57-0.599 2.593-2.385v-19.276c0.026-1.912-0.599-2.607-2.549-2.594l-35.636-0.013z m275.973-146.433c0.777 0.408 0.325 1.338 0.44 2.033 0.018 0.102 0 0.21 0 0.318-0.02 1.058 0.03 2.144 0.09 3.234l0.054 0.935c0.173 2.962 0.317 5.912-0.686 8.398-0.92 2.284-3.15 3.808-5.487 5.267l-1.004 0.623c-1.005 0.623-1.997 1.253-2.884 1.943a3072.195 3072.195 0 0 1-19.642 15.137l-13.133 10.048c-0.59 0.45-1.25 0.803-2.249 1.413l-0.269 0.166v-14.643c0-1.1 0.746-1.69 1.498-2.26l0.28-0.213a63969.782 63969.782 0 0 1 41.137-31.513c0.555-0.421 1.033-1.313 1.855-0.886z m9.431-0.35c3.161 2.357 5.953 4.384 8.693 6.474 10.948 8.374 21.84 16.824 32.858 25.115 2.345 1.765 3.505 3.652 3.263 6.634-0.242 3.06-0.032 6.15-0.083 9.222-0.013 0.675 0.344 1.612-0.6 1.93-0.675 0.23-1.127-0.446-1.618-0.815-11.28-8.642-22.553-17.29-33.827-25.944-0.42-0.325-0.783-0.77-1.249-0.975-7.541-3.285-8.125-8.95-7.819-15.185l0.031-0.577c0.01-0.193 0.023-0.386 0.035-0.58l0.037-0.583 0.02-0.292 0.04-0.586c0.06-0.88 0.122-1.767 0.168-2.655l0.028-0.592c0.01-0.197 0.017-0.394 0.023-0.592z m-8.973-26.301c0 4.454-0.076 8.903 0.02 13.35 0.038 1.753-0.497 2.964-1.912 4.041-13.727 10.464-27.416 20.98-41.117 31.475-0.568 0.434-1.147 1.256-1.887 0.695-0.363-0.274-0.35-1.154-0.357-1.759-0.031-3.81 0.09-7.628-0.057-11.44-0.064-1.67 0.843-2.5 1.864-3.26l0.294-0.216 0.296-0.216c0.098-0.072 0.196-0.145 0.293-0.22l40.792-31.367c0.414-0.318 0.758-0.72 1.134-1.083h0.637z m11.427 2.103c9.323 7.15 18.627 14.332 27.944 21.489 3.945 3.027 7.89 6.067 11.911 8.998 1.785 1.307 2.62 2.81 2.492 5.08-0.179 3.275-0.026 6.563-0.064 9.845-0.006 0.708 0 1.772-0.414 2.052-0.578 0.391-1.048 0.06-1.482-0.346l-0.184-0.177c-0.152-0.148-0.301-0.293-0.45-0.407-9.674-7.393-19.322-14.81-28.99-22.216-3.275-2.51-6.48-5.136-9.903-7.437-2.753-1.848-4.123-4.053-3.569-7.392 0.173-1.032 0.026-2.116 0.032-3.174v0.013c0-1.695-0.044-3.39 0.02-5.085 0.031-0.79-0.39-1.887 0.522-2.295 0.873-0.395 1.498 0.568 2.135 1.052zM512 48c35.346 0 64 28.654 64 64 0 35.346-28.654 64-64 64-35.346 0-64-28.654-64-64 0-35.346 28.654-64 64-64z" p-id="33315" fill="#d81e06"></path></svg>