<svg width="16" height="16" viewBox="0 0 512 512" version="1.1"
    xmlns="http://www.w3.org/2000/svg"
    xmlns:xlink="http://www.w3.org/1999/xlink" xml:space="preserve"
    xmlnsserif="http://www.serif.com/" style="clip-rule:evenodd;stroke-linejoin:round;stroke-miterlimit:2">
    <g transform="matrix(1,0,0,1,-3872,-512)">
        <g id="透明底色wo文字" transform="matrix(1,0,0,0.984241,266.841,512)">
            <g transform="matrix(1.37501,0,0,1.39702,-249.602,-914.651)">
                <circle cx="2989.62" cy="840.894" r="167.272" style="fill:url(#_Linear1)"></circle>
            </g>
            <g transform="matrix(0.826303,0,0,0.766805,1559.97,-525.251)">
                <path d="M2620.51,1184.29C2620.3,1184.71 2619.89,1184.98 2619.45,1184.98C2615.18,1184.98 2593.34,1184.98 2593.34,1184.98C2588.65,1184.98 2584.31,1182.27 2581.92,1177.85C2579.53,1173.43 2579.45,1167.96 2581.7,1163.46L2773.27,780.32C2775.6,775.661 2780.06,772.764 2784.91,772.764C2789.76,772.764 2794.23,775.661 2796.56,780.32L2988.13,1163.46C2990.38,1167.96 2990.3,1173.43 2987.91,1177.85C2985.51,1182.27 2981.17,1184.98 2976.48,1184.98L2652.48,1184.98C2652.06,1184.98 2651.66,1184.73 2651.44,1184.33C2651.22,1183.92 2651.22,1183.42 2651.42,1183.01C2654.33,1177.2 2662.83,1160.22 2664.64,1156.59C2664.86,1156.17 2665.26,1155.9 2665.71,1155.9C2674.15,1155.9 2754.43,1155.9 2762.88,1155.9C2763.32,1155.9 2763.72,1155.64 2763.94,1155.21C2767.56,1147.97 2798.62,1085.86 2803.32,1076.46C2803.47,1076.15 2803.74,1075.92 2804.05,1075.82C2804.37,1075.73 2804.7,1075.77 2804.98,1075.95C2808.86,1078.4 2822.1,1086.77 2825.89,1089.17C2826.46,1089.53 2826.66,1090.32 2826.35,1090.95C2822.46,1098.71 2799.85,1143.93 2794.85,1153.94C2794.64,1154.35 2794.65,1154.85 2794.87,1155.25C2795.09,1155.66 2795.48,1155.9 2795.91,1155.9C2813.19,1155.9 2934.75,1155.9 2952.04,1155.9C2952.46,1155.9 2952.86,1155.66 2953.08,1155.25C2953.3,1154.85 2953.3,1154.35 2953.1,1153.94C2944.62,1136.99 2883.84,1015.43 2875.04,997.823C2874.83,997.398 2874.42,997.134 2873.98,997.134C2873.53,997.134 2873.13,997.398 2872.91,997.823C2867.64,1008.38 2844.3,1055.05 2840.26,1063.12C2840.11,1063.43 2839.84,1063.66 2839.53,1063.76C2839.22,1063.85 2838.88,1063.81 2838.6,1063.63C2834.72,1061.18 2821.49,1052.81 2817.69,1050.41C2817.12,1050.05 2816.92,1049.26 2817.24,1048.63C2820.1,1042.91 2832.93,1017.24 2836.6,1009.9C2836.81,1009.49 2836.8,1008.99 2836.58,1008.59C2836.36,1008.19 2835.97,1007.94 2835.54,1007.94C2822.83,1007.94 2754.66,1007.94 2741.95,1007.94C2741.52,1007.94 2741.13,1007.7 2740.91,1007.29C2740.69,1006.89 2740.68,1006.39 2740.89,1005.98C2743.8,1000.16 2752.29,983.189 2754.11,979.558C2754.32,979.134 2754.73,978.87 2755.17,978.87C2763.57,978.87 2843.01,978.87 2851.4,978.87C2851.85,978.87 2852.25,978.606 2852.46,978.181C2853.63,975.855 2857.4,968.311 2858.52,966.065C2858.72,965.669 2858.72,965.189 2858.52,964.793C2853.66,955.074 2794.65,837.042 2785.97,819.695C2785.76,819.271 2785.36,819.007 2784.91,819.007C2784.47,819.007 2784.06,819.271 2783.85,819.695C2775.01,837.372 2713.76,959.886 2705.24,976.909C2705.04,977.319 2705.05,977.818 2705.26,978.221C2705.48,978.623 2705.88,978.87 2706.31,978.87C2710.13,978.87 2718.31,978.87 2722.13,978.87C2722.56,978.87 2722.96,979.117 2723.18,979.52C2723.39,979.923 2723.4,980.421 2723.2,980.832C2720.28,986.649 2711.79,1003.62 2709.97,1007.25C2709.76,1007.68 2709.35,1007.94 2708.91,1007.94C2705.81,1007.94 2693.55,1007.94 2690.45,1007.94C2690,1007.94 2689.6,1008.21 2689.38,1008.63C2684.32,1018.75 2625.1,1137.21 2616.73,1153.94C2616.52,1154.35 2616.53,1154.85 2616.75,1155.25C2616.97,1155.66 2617.36,1155.9 2617.79,1155.9C2621.43,1155.9 2629.02,1155.9 2632.67,1155.9C2633.1,1155.9 2633.49,1156.15 2633.71,1156.55C2633.93,1156.96 2633.93,1157.45 2633.73,1157.87C2630.82,1163.68 2622.33,1180.66 2620.51,1184.29Z" style="fill:white"></path>
            </g>
        </g>
    </g>
    <defs>
        <linearGradient id="_Linear1" x1="0.45" y1="0.3" x2="0.9" y2="0.1" gradientUnits="userSpaceOnUse" gradientTransform="matrix(190.274,498.956,-498.956,190.274,2812.87,623.699)">
            <stop offset="0" style="stop-color:rgb(10,46,155);stop-opacity:1"></stop>
            <stop offset="1" style="stop-color:rgb(25,109,250);stop-opacity:1"></stop>
        </linearGradient>
    </defs>
</svg>