<?xml version="1.0" standalone="no"?><!DOCTYPE svg PUBLIC "-//W3C//DTD SVG 1.1//EN" "http://www.w3.org/Graphics/SVG/1.1/DTD/svg11.dtd"><svg t="1783228472406" class="icon" viewBox="0 0 1024 1024" version="1.1" xmlns="http://www.w3.org/2000/svg" p-id="23422" xmlns:xlink="http://www.w3.org/1999/xlink" width="16" height="16"><path d="M447.104 170.752a267.648 267.648 0 0 1 172.8 55.296c44.096 33.472 74.048 75.264 89.92 125.44 9.28-0.96 18.752-1.344 28.352-1.344 153.984 0 281.408 120.32 281.408 271.936 0 151.552-127.36 272-281.408 272a288.96 288.96 0 0 1-107.712-20.8v2.432H236.8l-2.56-0.32c-67.072-8.192-123.072-36.8-167.808-85.76C20.864 739.712-1.28 681.472 0 615.04c1.28-64.64 24.64-120.768 70.016-168.448a261.76 261.76 0 0 1 120.32-73.152c9.92-46.208 33.024-87.424 69.44-123.712 51.2-50.944 113.536-77.312 187.264-79.04z m291.072 252.992c-116.096 0-207.744 90.176-207.744 198.336 0 108.16 91.648 198.4 207.744 198.4s207.744-90.24 207.744-198.4c0-108.16-91.648-198.336-207.744-198.336zM449.088 254.848c-51.264 1.216-94.592 19.392-129.856 54.528-34.688 34.56-51.456 75.648-50.304 123.072 0.768 33.472 11.008 64 30.592 91.712l0.064 0.064a42.368 42.368 0 0 1-25.088 65.408 41.344 41.344 0 0 1-18.432 0 42.304 42.304 0 0 1-21.888-12.8l-3.2-3.968a244.8 244.8 0 0 1-43.712-108.8c-20.928 9.6-39.68 23.04-56.32 40.512a162.432 162.432 0 0 0-46.72 112.128c-0.96 43.968 13.888 82.688 44.416 116.096a181.504 181.504 0 0 0 113.536 58.752h275.968a264.704 264.704 0 0 1-61.376-169.472c0-113.088 70.976-208.832 170.944-250.112a167.808 167.808 0 0 0-58.688-78.912 185.728 185.728 0 0 0-119.936-38.208z m177.856 350.208a33.28 33.28 0 0 1 12.416 4.288 33.92 33.92 0 0 1 11.328 10.624 33.6 33.6 0 0 1 4.736 11.264c1.92 8.448 5.312 16.448 10.304 24 5.312 8 12.032 14.912 20.096 20.608a33.152 33.152 0 0 1 8.96 9.6 32.512 32.512 0 0 1 2.88 5.952l1.088 3.136a34.816 34.816 0 0 1-1.856 22.592 34.24 34.24 0 0 1-15.744 16.32 33.792 33.792 0 0 1-6.144 2.304 35.584 35.584 0 0 1-19.52-0.576 33.28 33.28 0 0 1-8.832-4.48 145.536 145.536 0 0 1-36.928-38.208 137.472 137.472 0 0 1-19.968-46.72 34.112 34.112 0 0 1 5.504-26.88l1.92-2.56a33.024 33.024 0 0 1 16.64-10.304 34.688 34.688 0 0 1 9.792-1.216c1.088 0 2.24 0.128 3.328 0.256z m315.712-432.576a199.872 199.872 0 0 1 45.44 8.384 179.2 179.2 0 0 1-36.864 61.632 188.352 188.352 0 0 1-92.672 56.512 196.928 196.928 0 0 1-109.504-1.984 180.352 180.352 0 0 1 10.88-24.704 179.904 179.904 0 0 1 32.192-43.52 189.056 189.056 0 0 1 43.712-32.832 199.04 199.04 0 0 1 25.152-11.52 194.176 194.176 0 0 1 44.8-10.88 196.8 196.8 0 0 1 36.864-1.088z" fill="#FE7C19" p-id="23423"></path></svg>