<?xml version="1.0" standalone="no"?><!DOCTYPE svg PUBLIC "-//W3C//DTD SVG 1.1//EN" "http://www.w3.org/Graphics/SVG/1.1/DTD/svg11.dtd"><svg t="1783165612268" class="icon" viewBox="0 0 2816 1024" version="1.1" xmlns="http://www.w3.org/2000/svg" p-id="45452" xmlns:xlink="http://www.w3.org/1999/xlink" width="44" height="16"><path d="M2094.250667 554.666667c-47.488 0-101.802667-12.544-130.474667-37.632C1934.592 491.093333 1920 457.728 1920 416.810667V170.666667h82.176v246.186666c0 22.016 5.845333 41.6 22.485333 53.376 43.861333 31.061333 125.44 13.866667 154.453334 0.341334V170.666667H2261.333333v340.778666c-30.890667 14.762667-70.997333 43.221333-167.082666 43.221334M686.250667 896c-47.488 0-101.802667-12.544-130.474667-37.632-29.184-25.898667-43.776-59.306667-43.776-100.224V512h82.176v246.186667c0 22.016 5.845333 41.6 22.485333 53.376 43.861333 31.061333 125.482667 13.866667 154.453334 0.341333V512H853.333333v340.778667c-30.890667 14.762667-70.997333 43.221333-167.082666 43.221333M1397.589333 587.264h-41.941333v233.813333s28.629333-0.341333 41.941333-0.341333c31.744 0 57.386667-11.264 76.928-33.877333 18.986667-21.504 28.501333-49.066667 28.501334-82.858667 0-33.493333-9.642667-61.354667-28.928-83.669333-18.986667-22.058667-44.501333-33.066667-76.501334-33.066667M1389.610667 896H1280v-384h109.653333c56.661333 0 102.784 18.602667 138.282667 55.808 33.834667 35.84 50.730667 81.322667 50.730667 136.448 0 55.466667-16.896 100.949333-50.730667 136.448-35.157333 36.864-81.28 55.296-138.325333 55.296M1827.285333 360.96c-11.52-7.381333-42.88-21.845333-94.165333-43.477333-33.365333-14.208-50.090667-28.501333-50.090667-42.709334 0-26.666667 22.656-39.978667 67.968-39.978666 30.378667 0 65.237333 7.338667 104.576 22.016v-68.266667C1815.04 176.64 1778.304 170.666667 1745.322667 170.666667c-39.04 0-71.765333 8.064-98.261334 24.106666-31.530667 18.858667-47.274667 46.933333-47.274666 84.096 0 31.274667 16.768 57.258667 50.261333 77.909334 3.968 2.773333 34.730667 17.066667 92.288 42.752 33.493333 15.189333 50.218667 31.274667 50.218667 48.256 0 12.373333-6.997333 22.869333-20.992 31.36-14.037333 8.533333-31.488 12.8-52.48 12.8-38.016 0-78.08-9.216-120.064-27.605334L1578.666667 530.474667l30.336 8.576 0.128-0.213334a405.077333 405.077333 0 0 0 112.938666 15.829334c38.485333 0 72.021333-7.594667 100.48-22.784 36.522667-19.754667 54.784-48.938667 54.784-87.552 0-33.536-16.682667-61.354667-50.048-83.413334M1237.333333 778.197333L978.261333 512H896v384h82.261333v-266.666667L1237.333333 896zM2304 288.469333L2563.072 554.666667H2645.333333V170.666667h-82.261333v266.666666L2304 170.666667zM429.824 512v153.642667H252.842667V512H170.666667v384h82.176v-153.6h176.981333V896H512v-384z" fill="#FFFFFF" p-id="45453"></path><path d="M0 1024h597.333333V341.333333H0z" fill="#FCB600" p-id="45454"></path><path d="M554.666667 1024h597.333333V341.333333H554.666667z" fill="#E81D75" p-id="45455"></path><path d="M2261.333333 682.666667h512V0H2261.333333z" fill="#4DC0E8" p-id="45456"></path><path d="M1493.333333 682.666667h768V0H1493.333333z" fill="#1D9ADD" p-id="45457"></path><path d="M1449.386667 0v327.509333H1152V1024h554.666667V0z" fill="#645DC7" p-id="45458"></path><path d="M2112.64 532.053333c-45.909333 0-98.389333-11.776-126.165333-35.413333-28.16-24.362667-42.282667-55.808-42.282667-94.293333V170.666667h79.402667v231.68c0 20.736 5.674667 39.168 21.76 50.261333 42.410667 29.226667 121.301333 13.056 149.333333 0.298667V170.666667H2274.133333v320.768c-29.866667 13.866667-68.650667 40.661333-161.493333 40.661333zM710.314667 853.333333c-45.909333 0-98.389333-11.818667-126.122667-35.413333-28.245333-24.362667-42.325333-55.850667-42.325333-94.293333v-231.68h79.445333v231.68c0 20.736 5.632 39.168 21.76 50.261333 42.368 29.226667 121.258667 13.013333 149.290667 0.298667v-282.282667h79.445333v320.768c-29.866667 13.909333-68.608 40.661333-161.493333 40.661333z m532.693333-110.890666V853.333333l-250.453333-250.965333V853.333333H913.066667v-361.386666h79.530666l250.453334 250.496zM2315.392 281.6V170.666667l250.453333 250.965333V170.666667H2645.333333v361.386666h-79.530666L2315.349333 281.6zM421.12 491.904h79.445333V853.333333H421.162667v-144.64h-171.093334V853.333333H170.666667v-361.386666h79.445333v144.597333h171.093333v-144.64zM1390.250667 853.333333H1284.266667v-361.386666h105.984c54.784 0 99.370667 17.493333 133.717333 52.48 32.64 33.749333 49.024 76.544 49.024 128.426666 0 52.224-16.384 95.018667-49.066667 128.426667-34.005333 34.688-78.549333 52.053333-133.674666 52.053333z m7.68-290.56h-40.533334v220.074667s27.690667-0.341333 40.533334-0.341333c30.72 0 55.466667-10.624 74.368-31.914667 18.346667-20.224 27.52-46.165333 27.52-77.952 0-31.530667-9.301333-57.770667-27.946667-78.762667-18.346667-20.778667-43.008-31.146667-73.941333-31.146666z m456.618666-213.034666c32.256 20.778667 48.384 46.933333 48.384 78.506666 0 36.352-17.664 63.829333-52.906666 82.432-27.605333 14.250667-59.989333 21.418667-97.194667 21.418667-38.016 0-74.368-5.12-109.141333-14.933333l-0.128 0.256-29.354667-8.106667 19.712-62.208c40.618667 17.28 79.274667 25.941333 116.053333 25.941333 20.266667 0 37.162667-4.010667 50.730667-12.032 13.525333-7.978667 20.266667-17.834667 20.266667-29.525333 0-16-16.170667-31.146667-48.554667-45.397333-55.594667-24.234667-85.333333-37.632-89.173333-40.234667-32.426667-19.456-48.64-43.904-48.64-73.344 0-34.986667 15.274667-61.397333 45.738666-79.146667 25.6-15.104 57.258667-22.698667 94.976-22.698666 31.872 0 67.413333 5.632 106.581334 16.853333v64.256c-38.016-13.866667-71.68-20.736-101.077334-20.736-43.818667 0-65.706667 12.544-65.706666 37.589333 0 13.397333 16.128 26.88 48.426666 40.234667 49.578667 20.309333 79.914667 33.962667 91.008 40.874667z" fill="#FFFFFF" p-id="45459"></path></svg>