<?xml version="1.0" standalone="no"?><!DOCTYPE svg PUBLIC "-//W3C//DTD SVG 1.1//EN" "http://www.w3.org/Graphics/SVG/1.1/DTD/svg11.dtd">
<svg t="1783176407303" class="icon" viewBox="400 0 1688 1024" version="1.1" xmlns="http://www.w3.org/2000/svg" p-id="52046" xmlns:xlink="http://www.w3.org/1999/xlink" width="16" height="16">
    <path d="M2075.247936 911.154026c-12.751944 12.751944-62.362249-31.093782-79.131929-56.422986 2.969631 30.919098-8.210156 92.58261-23.582363 92.058557-28.822888-1.048105-47.514094-84.547138-36.508992-140.620757-181.322168-103.937081-365.613967-13.101313-365.613967-13.101312 22.708942 2.794947 75.987614 8.559524 74.590141 32.491255 0 15.721575-69.873668 62.711617-286.13267 45.2432-67.952142 57.296408-342.206288 180.623431-585.191969 139.747336C598.293281 970.022592 503.789145 888.445084 454.178841 803.548578c44.893832 31.617835 233.727419 138.175178 604.232543 20.612732 427.626847-135.380231 564.229868-209.621004 918.664048-117.562446a295.216247 295.216247 0 0 1 20.263364 62.01288c59.043249 38.255833 95.028188 125.423234 77.90914 142.542282z"
          fill="#B7E3FF" p-id="52047"></path>
    <path d="M1899.865029 574.887a576.45776 576.45776 0 0 1 77.734456 131.886548c-354.43418-92.233242-491.037201-17.468417-918.664049 117.562446C688.430313 941.89844 499.596725 835.341097 454.178841 803.548578a408.935641 408.935641 0 0 1-42.098885-279.494672c7.860788-8.035472 17.468417-17.468417 27.250731-25.853257C479.857414 534.534957 678.298631 687.907658 1065.573435 591.132628c0 0 604.93128-153.372701 834.291594-16.245628z" fill="#52AAFF" p-id="52048"></path>
    <path d="M1697.580761 397.931936a718.825358 718.825358 0 0 1 202.284268 176.955064c-229.360315-137.127073-834.291594 16.245628-834.291594 16.245628-387.274804 96.77503-585.716021-56.597671-626.417432-93.281347A991.507347 991.507347 0 0 1 786.078763 307.794904a529.991771 529.991771 0 0 0 298.535246 40.526728c180.798116-25.678573 393.563434-29.696309 612.966752 49.610304z" fill="#0175F2" p-id="52049"></path>
    <path d="M1612.50957 353.038104a939.451464 939.451464 0 0 1 85.071191 44.893832c-219.403317-79.306613-432.168636-75.288877-612.617383-49.610304A530.690507 530.690507 0 0 1 786.078763 307.794904c180.448747-58.519197 413.302745-82.625612 683.015104-8.38484a1074.831696 1074.831696 0 0 1 143.415703 53.62804zM1066.62154 43.497756a43.845727 43.845727 0 0 1-26.726678 40.352043 186.562693 186.562693 0 0 0-84.547138 84.372454 196.869059 196.869059 0 0 1-4.19242-39.653307 185.863957 185.863957 0 0 1 34.936834-107.954817 66.379984 66.379984 0 0 1 5.065841-6.637998 42.448253 42.448253 0 0 1 31.617834-13.974734 43.496358 43.496358 0 0 1 43.845727 43.496359zM915.869102 212.592032a194.074112 194.074112 0 0 1-1.22279 20.263364A182.719641 182.719641 0 0 0 838.484014 186.040038h-2.09621A46.465989 46.465989 0 1 1 890.889265 119.136001a184.815851 184.815851 0 0 1 24.979837 93.456031z"
          fill="#015BCB" p-id="52050"></path>
    <path d="M1098.239375 815.951154m-39.827991 0a39.827991 39.827991 0 1 0 79.655981 0 39.827991 39.827991 0 1 0-79.655981 0Z" fill="#0175F2" p-id="52051"></path>
</svg>
