<?xml version="1.0" standalone="no"?><!DOCTYPE svg PUBLIC "-//W3C//DTD SVG 1.1//EN" "http://www.w3.org/Graphics/SVG/1.1/DTD/svg11.dtd"><svg t="1783094323052" class="icon" viewBox="0 0 1024 1024" version="1.1" xmlns="http://www.w3.org/2000/svg" p-id="11031" xmlns:xlink="http://www.w3.org/1999/xlink" width="16" height="16"><path d="M867.2 595.2c3.2 16 9.6 32 12.8 48 0 3.2 0 6.4 3.2 6.4-3.2 3.2-3.2 6.4-3.2 9.6-3.2 3.2 0 6.4 0 6.4 0 3.2 0 6.4 3.2 9.6 3.2-3.2 0-6.4 0-9.6v-6.4c3.2-3.2 3.2-9.6 0-12.8v-3.2c-9.6-41.6-16-83.2-32-124.8-19.2-48-41.6-92.8-80-124.8-25.6-19.2-48-38.4-80-44.8h-12.8c-3.2 0-3.2 0-3.2 3.2s0 3.2 3.2 6.4 9.6 6.4 16 6.4c19.2 6.4 35.2 9.6 48 25.6 3.2 3.2 6.4 3.2 9.6 6.4 19.2 16 38.4 32 51.2 54.4 25.6 38.4 41.6 80 57.6 121.6 3.2 6.4 6.4 12.8 6.4 22.4zM672 188.8c6.4-3.2 12.8 0 19.2 0 6.4-3.2 9.6-3.2 16-6.4 22.4-12.8 41.6-22.4 67.2-32 6.4-3.2 6.4 0 6.4 6.4-3.2 25.6-3.2 51.2-6.4 76.8-3.2 3.2-3.2 9.6 0 12.8 3.2-3.2 3.2-3.2 3.2-6.4 3.2-6.4 3.2-12.8 6.4-19.2 9.6-22.4 16-48 16-73.6 0-9.6-6.4-16-16-12.8-35.2 12.8-67.2 25.6-99.2 44.8-6.4 3.2-9.6 3.2-12.8 9.6zM809.6 329.6c-3.2 6.4-9.6 12.8-19.2 19.2-9.6 6.4-16 9.6-25.6 16 9.6 0 19.2 0 25.6-3.2 22.4-6.4 44.8-38.4 25.6-67.2-6.4-9.6-6.4-22.4-6.4-32V227.2c0-12.8-3.2-25.6-12.8-38.4v38.4c0 28.8-3.2 57.6 12.8 83.2 6.4 3.2 3.2 9.6 0 19.2zM742.4 118.4c0 3.2 0 3.2 3.2 6.4 0 0 0-3.2-3.2-6.4 3.2-3.2 6.4-9.6 6.4-12.8 0-6.4-3.2-6.4-6.4-6.4-12.8 6.4-25.6 12.8-35.2 25.6 12.8-3.2 25.6-16 38.4-19.2-3.2 3.2-3.2 6.4-3.2 12.8zM886.4 691.2c3.2-6.4 3.2-9.6 0-12.8-3.2 3.2-3.2 9.6 0 12.8zM620.8 880c-3.2 0-6.4 0-9.6 3.2 3.2 0 6.4 0 9.6-3.2zM419.2 883.2c-3.2 0-3.2 3.2 0 0 0 6.4 0 6.4 3.2 6.4v-3.2c-3.2 0-3.2-3.2-3.2-3.2zM518.4 816c-3.2 0-6.4-3.2-9.6-3.2-3.2-3.2-6.4-3.2-9.6-6.4l-3.2-3.2c-3.2 3.2 0 3.2 3.2 3.2 3.2 3.2 6.4 3.2 9.6 6.4 3.2 3.2 6.4 3.2 9.6 3.2 3.2 3.2 6.4 3.2 9.6 3.2 3.2 0 6.4 3.2 9.6 3.2 0-3.2-3.2-3.2-6.4-3.2-3.2-3.2-6.4-6.4-12.8-3.2zM473.6 806.4c-3.2-3.2-6.4-3.2-9.6-6.4 3.2 6.4 6.4 9.6 9.6 6.4 0 3.2 0 3.2 0 0zM592 844.8h-6.4c3.2 3.2 6.4 3.2 6.4 0 0 3.2 0 3.2 0 0 3.2 3.2 6.4 6.4 9.6 3.2-3.2-3.2-6.4 0-9.6-3.2zM672 908.8h12.8c-3.2-3.2-6.4-3.2-12.8 0zM476.8 873.6c3.2 3.2 6.4 3.2 9.6 3.2 0 0-3.2-3.2-9.6-3.2zM537.6 873.6c3.2 3.2 6.4 3.2 9.6 3.2-3.2-6.4-6.4-3.2-9.6-3.2zM323.2 246.4c3.2 0 6.4 0 9.6-3.2-3.2 0-6.4-3.2-9.6 3.2-3.2 0-6.4 0-9.6 3.2 6.4 0 9.6-3.2 9.6-3.2zM585.6 899.2c3.2 0 6.4 3.2 9.6 0 0-3.2-3.2-3.2-9.6 0zM294.4 304c-3.2 3.2-6.4 3.2-6.4 6.4 3.2 0 6.4 0 6.4-6.4zM288 310.4zM281.6 793.6c3.2 3.2 6.4 6.4 9.6 6.4-3.2-3.2-3.2-6.4-9.6-6.4zM832 832c-3.2 0 0 3.2-3.2 6.4l-3.2 3.2c3.2 0 3.2 0 3.2-3.2 3.2 0 6.4 0 3.2-6.4 3.2 3.2 0 0 0 0zM646.4 140.8c3.2 0 6.4 0 6.4-3.2-3.2-3.2-3.2 0-6.4 3.2 0-3.2 0-3.2 0 0-3.2 0-6.4 0-9.6 3.2 6.4 0 6.4-3.2 9.6-3.2zM304 806.4c0 3.2 0 6.4 3.2 9.6 0-3.2 0-6.4-3.2-9.6zM489.6 880c3.2 3.2 3.2 3.2 6.4 3.2 0-3.2-3.2-3.2-6.4-3.2zM755.2 883.2c3.2 0 6.4 0 6.4-3.2-3.2 0-6.4 0-6.4 3.2zM662.4 876.8c-3.2 0-9.6 0-12.8 3.2h-12.8c6.4 6.4 9.6 3.2 12.8 0h6.4s6.4 3.2 6.4-3.2c3.2 3.2 3.2 3.2 0 0zM633.6 880h-9.6c3.2 3.2 6.4 3.2 9.6 0z" fill="#E96001" p-id="11032"></path><path d="M582.4 880H576c-3.2-6.4-9.6-3.2-16-3.2-3.2 0-3.2 0-6.4-3.2-3.2-6.4-6.4 0-9.6 0 3.2 3.2 6.4 0 9.6 3.2h6.4c3.2 3.2 9.6 3.2 12.8 3.2 3.2 6.4 6.4 3.2 9.6 0 3.2 3.2 3.2 3.2 6.4 3.2-3.2-3.2-3.2 0-6.4-3.2zM307.2 646.4c0 3.2 0 3.2 3.2 3.2h3.2c0-3.2-3.2-3.2-6.4-3.2 3.2 0 0 0 0 0zM688 908.8h9.6c6.4 0 9.6 0 16-6.4-6.4 0-12.8 0-16 3.2-3.2 0-6.4-3.2-9.6 3.2zM672 880c3.2 0 3.2 0 6.4-3.2-3.2-3.2-3.2-3.2-6.4 3.2zM531.2 876.8c0 3.2 3.2 3.2 6.4 3.2-3.2-3.2-3.2-3.2-6.4-3.2zM860.8 784l-3.2 3.2c3.2 3.2 6.4 0 3.2-3.2 3.2 3.2 3.2 3.2 0 0 3.2 0 6.4-3.2 6.4-6.4-3.2 3.2-3.2 6.4-6.4 6.4zM758.4 854.4s3.2 0 0 0c3.2 0 6.4 0 6.4-3.2-3.2 0-3.2 0-6.4 3.2zM313.6 275.2c3.2-3.2 9.6-3.2 6.4-6.4l-6.4 6.4c-3.2 0-9.6 0-9.6 3.2 6.4 3.2 9.6 0 9.6-3.2zM304 278.4c-3.2 0-6.4 0-9.6 3.2 6.4 3.2 9.6 3.2 9.6-3.2zM297.6 284.8zM304 278.4h3.2-3.2zM297.6 284.8zM297.6 284.8c-3.2 0-6.4 3.2-6.4 3.2 3.2 3.2 6.4 0 6.4-3.2zM755.2 803.2c3.2 0 3.2 0 6.4-3.2-3.2 0-3.2 0-6.4 3.2zM732.8 864c3.2 0 6.4 0 6.4-3.2-3.2 0-6.4 0-6.4 3.2zM582.4 838.4h3.2c0-3.2-3.2-3.2-3.2 0 0-3.2 0 0 0 0zM505.6 860.8c0 3.2 3.2 3.2 6.4 3.2 0-3.2-3.2-3.2-6.4-3.2zM681.6 832h-6.4c-3.2 0-6.4 0-9.6 3.2h9.6s3.2 0 6.4-3.2zM880 716.8l-3.2 3.2c3.2 0 6.4-3.2 3.2-3.2 3.2 0 3.2 0 0 0 3.2-3.2 3.2-3.2 3.2-6.4 0 0-3.2 3.2-3.2 6.4zM502.4 924.8c3.2 3.2 6.4 3.2 6.4 0-3.2-3.2-3.2 0-6.4 0zM688 828.8c-3.2 0-3.2 0 0 0-3.2 3.2-3.2 3.2 0 0 0 3.2 0 3.2 0 0zM608 876.8c-3.2 0-3.2 3.2 0 6.4v-6.4s0-3.2 0 0zM857.6 822.4s-3.2 3.2-3.2 6.4c0 0 3.2 0 3.2-3.2 3.2-3.2 3.2-3.2 0-3.2zM265.6 416s0 3.2 0 0c3.2 3.2 3.2 0 0 0 0-3.2 0 0 0 0zM892.8 675.2l-3.2-3.2 3.2 3.2c-3.2 0-3.2 0 0 0 0 3.2 0 0 0 0zM508.8 848c0 3.2 3.2 0 0 0v-3.2s-3.2 0 0 3.2zM441.6 787.2c-3.2-3.2-3.2-3.2 0 0-3.2-3.2-6.4-6.4-6.4-3.2 0 0 0 3.2 6.4 3.2zM569.6 854.4c3.2 0 3.2 0 0 0 3.2 0 3.2-3.2 0 0 0-3.2 0 0 0 0zM668.8 908.8c3.2 3.2 3.2 0 3.2 0s-3.2-3.2-3.2 0zM889.6 684.8s0 3.2 0 0c3.2 3.2 3.2 3.2 0 0 3.2 0 3.2 0 0 0 3.2 0 0 0 0 0zM537.6 908.8c-3.2 0-3.2 0 0 0-3.2 0-3.2 3.2 0 0 0 3.2 0 3.2 0 0zM675.2 134.4c0-3.2 0 0 0 0 9.6 0 19.2-3.2 25.6-3.2h16c6.4 0 9.6 0 16-3.2-9.6 0-16-3.2-25.6 0h-12.8c-6.4 0-16 0-22.4 3.2h-6.4c-3.2 0-9.6 0-12.8 3.2 3.2 0 9.6-3.2 12.8-3.2 6.4 3.2 9.6 3.2 9.6 3.2zM630.4 147.2c-3.2 0-3.2 0-6.4 3.2-3.2 0-3.2 3.2-6.4 3.2 0 0-3.2 0-3.2 3.2-9.6 6.4-19.2 12.8-25.6 22.4-6.4 0-9.6 3.2-9.6 9.6L576 192c-3.2 0-6.4 3.2-6.4 6.4 0 0 0 3.2-3.2 3.2l-3.2 3.2s-3.2 0-3.2 3.2V217.6c-6.4 0-6.4 3.2-6.4 9.6h-3.2c-3.2 0-3.2 3.2-6.4 6.4v3.2c-3.2 0-6.4 3.2-6.4 6.4-3.2 0-3.2 3.2-3.2 6.4l-6.4 6.4c-16 22.4-32 44.8-38.4 70.4-6.4 19.2-16 41.6-22.4 60.8-3.2 9.6-9.6 19.2-9.6 25.6-3.2 19.2-3.2 38.4-3.2 57.6 3.2 44.8 12.8 89.6 19.2 137.6 6.4 35.2 16 70.4 25.6 105.6 3.2 6.4 6.4 12.8 6.4 19.2 0 16 9.6 32 19.2 44.8 3.2 6.4 9.6 9.6 19.2 9.6 0-6.4-6.4-12.8-6.4-19.2 0-3.2 0-6.4-3.2-12.8-9.6-22.4-22.4-44.8-28.8-70.4-6.4-19.2-12.8-38.4-19.2-60.8-9.6-35.2-16-73.6-19.2-108.8-3.2-41.6-3.2-83.2 6.4-121.6 19.2-64 48-121.6 89.6-172.8 3.2-3.2 6.4-6.4 6.4-12.8 16-12.8 28.8-32 44.8-44.8 0 0 3.2 0 3.2-3.2 3.2 0 3.2-3.2 6.4-3.2 3.2-6.4 6.4-9.6 6.4-9.6h3.2c0-3.2-3.2-3.2-3.2 0z m-76.8 70.4z" fill="#E96001" p-id="11033"></path><path d="M524.8 844.8c-3.2 3.2-3.2 3.2 0 3.2 3.2 3.2 9.6 3.2 6.4 9.6l6.4-6.4c3.2 0 6.4 0 6.4 3.2h3.2l-3.2-3.2c-3.2-6.4-9.6-3.2-16-6.4 0-3.2-3.2-3.2-6.4-3.2s-3.2 0-6.4-3.2-6.4-3.2-9.6-3.2c-3.2 0-3.2-6.4-9.6-3.2-3.2-3.2-6.4-3.2-9.6-3.2 0-3.2-3.2-3.2-6.4-6.4-3.2 0-3.2-3.2-6.4-3.2-19.2-9.6-35.2-19.2-51.2-32 0-3.2 3.2-3.2 0-6.4l-3.2 3.2c-3.2-3.2-6.4-3.2-9.6-6.4l-9.6-9.6c-3.2-3.2-3.2-9.6-9.6-3.2l-28.8-28.8s3.2-3.2 0-3.2h-3.2c-6.4-6.4-9.6-12.8-16-19.2-6.4-3.2-9.6-6.4-12.8-12.8-9.6-12.8-16-25.6-25.6-35.2-16-22.4-28.8-44.8-35.2-70.4 0-3.2 0-6.4 3.2-3.2 9.6 9.6 16 16 19.2 25.6 0 3.2 0 6.4 3.2 6.4l3.2 3.2c0 3.2 0 6.4 3.2 3.2 3.2 0 0-3.2-3.2-3.2 0-3.2-3.2-3.2-3.2-6.4-9.6-25.6-16-51.2-32-73.6l3.2-3.2 3.2 3.2c0 3.2 0 6.4 6.4 6.4 0-3.2 0-6.4-3.2-9.6l-3.2-3.2c-6.4-6.4-3.2 3.2-6.4 3.2-3.2-9.6-6.4-9.6-6.4-16 0 0 3.2 0 3.2-3.2 0-12.8 3.2-25.6 3.2-38.4 0-3.2 0-6.4-3.2-6.4-3.2 6.4-3.2 9.6-3.2 9.6h-3.2c0-3.2 0-3.2-3.2-3.2 3.2-3.2 3.2-9.6 3.2-12.8 3.2-3.2 3.2-6.4 0-6.4s-3.2 3.2-3.2 3.2 0 3.2-3.2 3.2h-3.2c0-6.4 3.2-9.6 3.2-12.8 3.2 0 3.2-3.2 3.2-6.4v-3.2c3.2 0 6.4-3.2 6.4-3.2v-6.4s-3.2-3.2-3.2 0c-3.2 0-3.2 3.2-3.2 6.4h-3.2c0-6.4-3.2-16 3.2-19.2 6.4-9.6 6.4-12.8 9.6-19.2 3.2 3.2 6.4 0 9.6-3.2 0 0 0-3.2-3.2-3.2 0-3.2 0-3.2 3.2-3.2h3.2c3.2 3.2 3.2 0 6.4-3.2 3.2 0 3.2 0 3.2-3.2s-3.2-3.2-3.2-3.2c0-3.2-3.2-3.2-3.2-3.2-3.2-3.2-3.2 0-6.4 0v-6.4c0-6.4 6.4-3.2 6.4-9.6h3.2v3.2c-3.2 3.2-3.2 3.2 0 6.4 3.2 0 6.4 0 6.4-6.4 0-3.2 3.2-3.2 0-6.4 0 0 0-3.2-3.2-3.2 3.2-3.2 6.4 0 6.4-3.2 3.2 0 0-12.8 9.6-6.4V352c-3.2-6.4-3.2-12.8-6.4-16-3.2-3.2 0-3.2 0-6.4 3.2-3.2 6.4-3.2 6.4-6.4l28.8-19.2c3.2 0 3.2 0 3.2-3.2s-3.2-3.2-6.4-3.2c-3.2 9.6-6.4 9.6-12.8 12.8-6.4 3.2-12.8 9.6-19.2 9.6v-3.2c0-3.2-3.2 0-3.2 0-3.2 0 0-3.2 0-6.4-3.2 0-3.2 3.2-6.4 3.2 0 0-3.2 0-3.2-3.2v-6.4l3.2-3.2s3.2 0 3.2-3.2c3.2-3.2 0-3.2 0-6.4 3.2 0 3.2-3.2 6.4-3.2H288s0-3.2-3.2-3.2-6.4-3.2-9.6 3.2c0 0 0 3.2-3.2 3.2s-6.4 3.2-12.8 0H256c-3.2 0-9.6 0-9.6 6.4 0 3.2-3.2 3.2-3.2 6.4l-3.2 3.2c-3.2 0 0-9.6-3.2-6.4 0 3.2-6.4 3.2-3.2 9.6 0 6.4-3.2 6.4-6.4 6.4-3.2 3.2-9.6 3.2-6.4 9.6-3.2 3.2-9.6 6.4-6.4 16-3.2 3.2-3.2 9.6-9.6 9.6v-6.4h3.2c3.2-3.2 0-3.2 0-6.4s-3.2 0-3.2 0c-3.2 3.2-3.2 6.4 0 9.6-6.4 0-6.4 9.6-6.4 12.8-6.4 0-9.6 3.2-12.8 9.6-3.2 3.2-6.4 0-9.6 3.2-3.2 3.2 0 6.4-3.2 6.4s0-3.2-3.2-6.4c0-3.2 3.2-6.4-3.2-6.4-3.2 0-3.2 3.2-3.2 6.4s-6.4 3.2-3.2 6.4c-3.2 3.2-6.4 9.6-6.4 16-3.2 3.2-3.2 9.6-3.2 12.8-6.4 19.2-12.8 38.4-12.8 57.6-3.2 9.6-3.2 16-3.2 25.6v19.2c0 3.2-3.2 6.4 0 9.6v16c3.2-3.2 0-6.4 3.2-6.4 3.2 12.8 3.2 28.8 6.4 41.6 0 3.2 0 3.2-3.2 6.4s0 6.4 0 9.6c0 3.2 3.2 3.2 3.2 6.4s0 9.6 6.4 9.6v3.2c0 3.2 0 9.6 6.4 9.6 0 0 0 3.2 3.2 3.2 0 3.2 3.2 6.4 3.2 12.8 0 3.2 0 3.2 3.2 6.4s0 9.6 6.4 9.6c0 3.2 3.2 9.6 6.4 9.6 0 3.2 3.2 6.4 6.4 6.4-3.2 6.4 3.2 9.6 6.4 16v3.2c0 3.2 3.2 6.4 6.4 6.4 0 0 0 3.2 3.2 3.2 0 3.2 3.2 6.4 6.4 6.4 3.2 3.2 6.4 6.4 6.4 9.6-3.2 3.2 0 6.4 0 9.6l3.2 3.2c3.2 3.2 3.2 0 6.4 0 12.8 12.8 25.6 28.8 38.4 41.6l-3.2 3.2c-3.2 6.4 0 6.4 3.2 6.4 3.2 3.2 0 9.6 6.4 6.4 3.2 3.2 3.2 0 6.4-3.2 3.2 0 3.2 0 6.4 3.2 0 3.2 3.2 3.2 6.4 6.4l3.2 3.2c0 3.2 6.4 9.6 12.8 9.6 6.4 3.2 9.6 9.6 16 9.6 0 3.2 3.2 3.2 6.4 6.4 0-3.2-3.2-6.4-6.4-6.4l-12.8-12.8c0-3.2 0-3.2-3.2-6.4s0-3.2 3.2-6.4c9.6 6.4 19.2 16 28.8 22.4 3.2 3.2 3.2 6.4 6.4 6.4s6.4 0 6.4 6.4c0 3.2 3.2 6.4 0 9.6 0 0 0 6.4 3.2 3.2s9.6 0 12.8-3.2c0 0 3.2 0 3.2 3.2s3.2 3.2 6.4 3.2l6.4 6.4c3.2 3.2 3.2 6.4 9.6 3.2 0 6.4 3.2 6.4 9.6 6.4l6.4 6.4c3.2 0 6.4 3.2 6.4 0 3.2-3.2 6.4 0 9.6-3.2h6.4c3.2 3.2 3.2 6.4 9.6 6.4 0 3.2-3.2 6.4 3.2 6.4h6.4c6.4 3.2 3.2 0 3.2-3.2v-3.2s3.2 0 3.2 3.2 3.2 3.2 6.4 3.2l3.2 3.2v3.2l3.2 3.2c3.2 3.2 3.2 6.4 9.6 6.4 3.2 0 6.4 3.2 6.4-3.2 0-3.2 9.6-3.2 0-6.4 0 0-3.2 0-3.2-3.2 0-6.4-3.2-6.4-6.4-6.4h-6.4v-3.2l-3.2-3.2c0-6.4-6.4-3.2-9.6-6.4l-3.2-3.2c-3.2 0-3.2-9.6-9.6-6.4l-6.4-6.4s-3.2-3.2-3.2 0c0-3.2-3.2-3.2-6.4-6.4v-6.4-6.4l3.2 3.2c3.2 3.2 6.4 6.4 12.8 6.4 3.2 0 3.2 6.4 6.4 3.2 3.2 0 3.2 6.4 9.6 6.4 3.2 3.2 6.4 3.2 9.6 6.4 3.2 6.4 12.8 3.2 16 9.6 3.2 0 3.2 3.2 6.4 3.2 3.2 3.2 6.4 3.2 12.8 3.2 0 0 0 3.2 3.2 3.2 0-3.2-3.2-3.2-3.2-3.2 0-3.2-3.2-3.2 0-6.4 0 0 3.2 0 3.2 3.2 3.2 0 3.2 0 6.4 3.2-3.2 3.2-3.2 6.4 3.2 9.6 3.2-3.2 0-6.4 3.2-6.4h3.2v-3.2c-3.2 0-3.2 0-6.4-3.2v-3.2c0-6.4-3.2-9.6-6.4-9.6 0 0-3.2-3.2-3.2 0-6.4-3.2-12.8-3.2-16-9.6l3.2-3.2c3.2 0 3.2 3.2 6.4 0 3.2 0 9.6 3.2 12.8 3.2 3.2 3.2 9.6 6.4 16 3.2h6.4c3.2 0 3.2 3.2 6.4 3.2-19.2 3.2-16 3.2-16 6.4zM137.6 476.8z m108.8-166.4z m32 86.4z m-32-86.4z m-89.6 304c0-3.2 0-3.2 0 0z m272 240z m-9.6-48z m-51.2 12.8z m0 0z m0-3.2z m-3.2-6.4z m-3.2 0c3.2 0 3.2 0 0 0 3.2 0 0 0 0 0z m9.6-22.4z m-6.4 0zM384 832z m-83.2-105.6z m105.6 105.6z m35.2-12.8z m-35.2 12.8zM515.2 896c-3.2 0-3.2 3.2 0 0-3.2 3.2 0 3.2 0 0 0 3.2 0 3.2 0 0 0 3.2 0 3.2 0 0zM348.8 236.8c3.2 0 9.6-3.2 12.8-3.2h12.8-12.8c-6.4 0-12.8 0-19.2 3.2 0 0-3.2 3.2 0 3.2s6.4 0 6.4-3.2zM534.4 867.2h-3.2c-3.2 0-6.4-3.2-9.6 0 3.2 3.2 6.4 0 9.6 0 0 3.2 3.2 3.2 3.2 0z" fill="#E96001" p-id="11034"></path><path d="M291.2 371.2c3.2-3.2 0-3.2 0-3.2s-3.2 3.2 0 3.2z" fill="#E96001" p-id="11035"></path></svg>