<?xml version="1.0" standalone="no"?><!DOCTYPE svg PUBLIC "-//W3C//DTD SVG 1.1//EN" "http://www.w3.org/Graphics/SVG/1.1/DTD/svg11.dtd"><svg t="1783149375901" class="icon" viewBox="0 0 4126 1024" version="1.1" xmlns="http://www.w3.org/2000/svg" p-id="31755" xmlns:xlink="http://www.w3.org/1999/xlink" width="64.46875" height="16"><path d="M3564.84788 584.778055h192.798005c161.483012 0 292.389027-130.906015 292.389028-292.389028S3919.128898 0 3757.645885 0H3564.84788v584.778055z m153.216958-431.561097h39.581047c76.86384 0 139.17207 62.308229 139.17207 139.172069s-62.308229 139.17207-139.17207 139.17207H3718.064838V153.216958z m-153.216958 870.783042h264.299252c164.302204 0 297.496259-132.622045 297.49626-296.219451s-133.194055-296.219451-297.49626-296.219452H3564.84788v592.438903z m153.216958-439.221945h111.082294c79.831142 0 144.279302 64.172369 144.279302 143.002494s-64.44816 143.002494-144.279302 143.002493H3718.064838V584.778055z" fill="#E30914" p-id="31756"></path><path d="M1107.551761 53.511022L1493.865337 1021.446384h-153.354853L1085.363392 386.152698 830.124369 1021.446384H676.708229L1009.556748 192.994633 1086.193317 0l0.449436 1.123591 0.45199-1.123591 20.454464 53.511022zM357.506234 155.770574v868.229426H204.289277V155.770574H0L61.447661 2.553616H561.795511v153.216958h-204.289277z" fill="#E30914" p-id="31757"></path><path d="M1723.690773 2.553616h153.216958v1021.446384h-153.216958V2.553616z m0-2.553616h271.896259C2157.103242 0 2288.0399 130.906015 2288.0399 292.389027S2157.105796 584.778055 1995.587032 584.778055H1723.690773V0z m153.216958 431.561097h118.679301C2072.491731 431.561097 2134.822943 369.245207 2134.822943 292.389027S2072.491731 153.216958 1995.587032 153.216958H1876.907731v278.344139z" fill="#E30914" p-id="31758"></path><path d="M2671.082294 153.216958v715.012468h153.140349c197.494105 0 357.582843-160.065756 357.582843-357.506234s-160.088738-357.506234-357.582843-357.506234H2671.082294zM2517.865337 0h306.357306C3106.333367 0 3335.022444 228.658434 3335.022444 510.723192s-228.691631 510.723192-510.799801 510.723192H2517.865337V0z" fill="#E30914" p-id="31759"></path></svg>