<?xml version="1.0" standalone="no"?><!DOCTYPE svg PUBLIC "-//W3C//DTD SVG 1.1//EN" "http://www.w3.org/Graphics/SVG/1.1/DTD/svg11.dtd">
<svg width="16" height="16" t="1782623424911" class="icon" viewBox="0 0 1024 1024" version="1.1" xmlns="http://www.w3.org/2000/svg" p-id="11470"  xmlns:xlink="http://www.w3.org/1999/xlink">
    <path d="M836.63306 130.01c-52.51-10.67-144.8-10.67-205.1 0.41-70.14 12.72-79.17 16-85.32 34.87-23.38 68.91-22.97 162.44 0.41 208.79 22.15 44.3 51.28 64.4 107.88 74.25 77.12 13.54 120.6 33.23 152.19 68.91 20.51 23.38 31.59 50.46 40.61 101.73l6.97 37.74 29.94-31.59c58.66-63.57 115.27-157.92 130.45-218.22 35.69-141.52-32.41-246.94-178.03-276.89z"
          fill="#0000D1" p-id="11471"></path>
    <path d="M806.28306 644c4.51 49.22 2.05 54.56-34.46 81.22-46.77 34.05-43.07 34.46-39.79-4.92 7.38-87.38-21.33-166.54-73.02-202.23-17.23-11.9-29.53-16.41-64.4-22.97-102.55-19.69-150.14-48.41-172.7-105.02-8.61-21.74-9.84-30.35-9.43-81.63 0-54.55 5.74-102.14 13.13-109.52 1.64-1.64 18.86-9.85 38.14-17.64 40.2-16.41 41.85-16.82 38.56-6.56-5.33 17.63-10.25 57.83-10.25 87.37 0 66.86 18.46 123.47 52.09 159.57 23.8 25.43 48.82 38.56 88.2 46.76C746.39306 491.81 796.84306 542.68 806.28306 644z"
          fill="#EB1B34" p-id="11472"></path>
    <path d="M705.37306 717.02c0 59.48 2.46 54.96-45.54 81.22l-31.17 16.82 2.05-60.3c2.46-87.38-10.67-140.7-44.3-179.26-18.05-20.51-38.15-29.95-79.17-37.74-146.04-27.08-188.7-65.64-197.72-178.03-1.23-16.82-0.82-46.35 0.82-65.63l3.28-34.87 38.97-23.38c21.33-13.13 40.2-23.8 41.43-23.8s0 15.18-3.28 33.64c-4.1 22.15-5.33 52.1-4.51 85.32 1.23 45.13 2.87 54.15 12.71 75.89 27.49 59.07 62.76 82.86 149.32 100.09 54.55 11.08 82.86 22.15 105.01 41.84 36.1 31.59 52.1 82.45 52.1 168.19z"
          fill="#EB1B34" p-id="11473"></path>
    <path d="M598.30306 676c4.92 28.71 6.15 122.24 2.05 142.34-2.87 13.12-1.64 12.71-60.71 36.1l-23.79 9.43 2.46-11.08c1.23-6.15 4.51-32.81 7.39-59.47 11.48-110.76-20.51-183.37-88.61-201.42-11.48-2.87-44.71-11.07-74.25-18.04-69.32-16.82-107.47-35.28-129.21-62.77-22.56-28.3-29.54-53.32-31.59-114.44l-2.05-51.28 11.9-11.07c6.15-6.16 26.25-22.16 44.3-35.69 18.05-13.54 33.23-23.79 34.05-22.97 0.82 0.82-0.82 9.43-3.69 18.87-2.47 9.84-4.52 37.32-4.52 61.12 0 110.75 55.38 174.74 166.96 194.84 99.68 17.64 137.01 48.82 149.31 125.53z"
          fill="#EB1B34" p-id="11474"></path>
    <path d="M430.53306 618.57c-10.67-4.51-37.74-12.31-59.89-17.23-55.38-11.9-110.76-32.41-139.06-50.87-44.3-29.53-62.76-66.86-67.27-135.37l-2.87-36.92-23.39 24.62C69.55306 474.18 20.32306 561.55 5.55306 637.44c-25.43 134.14 36.92 225.61 178.03 260.48 69.73 17.23 196.9 10.67 269.5-14.36l16.41-5.74 11.49-52.92c13.95-65.22 16-126.34 5.33-151.37-9.43-22.15-32.4-45.12-55.78-54.96z"
          fill="#0000D1" p-id="11475"></path>
</svg>
