<?xml version="1.0" standalone="no"?><!DOCTYPE svg PUBLIC "-//W3C//DTD SVG 1.1//EN" "http://www.w3.org/Graphics/SVG/1.1/DTD/svg11.dtd"><svg t="1782917388081" class="icon" viewBox="0 0 1024 1024" version="1.1" xmlns="http://www.w3.org/2000/svg" p-id="26335" xmlns:xlink="http://www.w3.org/1999/xlink" width="16" height="16"><path d="M0.009728 0m204.8 0l614.4 0q204.8 0 204.8 204.8l0 614.4q0 204.8-204.8 204.8l-614.4 0q-204.8 0-204.8-204.8l0-614.4q0-204.8 204.8-204.8Z" fill="#FFEDD9" p-id="26336"></path><path d="M218.070528 442.2656s19.8656-17.8688 31.4368-40.7552c11.2128-22.1184 55.296-103.5264 155.0336-66.56 5.376 2.048 11.1104-2.048 11.1104-7.936V188.672A34.6112 34.6112 0 0 0 381.449728 153.6H221.091328A16.4864 16.4864 0 0 0 204.809728 170.2912v683.4176c0 9.216 7.2704 16.6912 16.2816 16.6912H381.449728a34.6112 34.6112 0 0 0 34.2016-35.072v-68.608c0-9.6256-3.072-18.944-8.8064-26.5216-19.968-26.624-67.584-95.744-78.6944-160.4096-14.0288-82.3808-24.832-132.4544-110.08-137.5232" fill="#FE9732" p-id="26337"></path><path d="M733.040128 474.5216c19.8656-12.8 73.728-50.9952 83.6608-112.128C826.633728 301.3632 804.259328 235.9296 804.259328 235.9296s-38.0928 37.888-96.4608 73.8816c-40.8576 25.088-108.032 43.264-170.1376 75.52C475.555328 417.5872 422.563328 526.2848 447.395328 664.6784c24.832 138.3424 175.5136 172.288 244.224 155.3408 68.7616-16.9984 110.1312-86.5792 110.1312-86.5792S616.304128 797.0816 574.934528 668.0576c-41.4208-129.024 138.24-180.8384 158.1056-193.536" fill="#FDCB21" p-id="26338"></path><path d="M311.612928 412.9792c0 11.008 8.704 19.968 19.456 19.968s19.456-8.96 19.456-19.968c0-11.0592-8.704-19.968-19.456-19.968s-19.456 8.9088-19.456 19.968" fill="#FE9732" p-id="26339"></path></svg>