<?xml version="1.0" standalone="no"?><!DOCTYPE svg PUBLIC "-//W3C//DTD SVG 1.1//EN" "http://www.w3.org/Graphics/SVG/1.1/DTD/svg11.dtd"><svg t="1782834824869" class="icon" viewBox="0 0 1024 1024" version="1.1" xmlns="http://www.w3.org/2000/svg" p-id="4894" xmlns:xlink="http://www.w3.org/1999/xlink" width="16" height="16"><path d="M0 512a512 512 0 1 0 1024 0 512 512 0 0 0-1024 0z" fill="#F3F4F7" p-id="4895"></path><path d="M358.485333 254.698667l-138.944 82.346666v343.082667l94.357334 58.304V391.936l138.922666-83.285333-94.336-53.973334z" fill="#0081CC" p-id="4896"></path><path d="M399.658667 424.533333l85.76 51.605334 121.770666-72.192-87.466666-53.162667-120.064 73.749333z" fill="#0081CC" p-id="4897"></path><path d="M416.810667 225.536L516.309333 170.666667l288.149334 166.4v159.488L511.146667 668.096l-133.76-75.456V477.866667l134.762666 77.162666 198.976-113.92-0.874666-48.832-293.44-166.741333z" fill="#0081CC" p-id="4898"></path><path d="M377.386667 668.096v108.074667L512.853333 853.333333l291.605334-169.813333v-114.922667l-288.149334 169.834667-138.944-70.336z" fill="#9DC814" p-id="4899"></path></svg>