<?xml version="1.0" standalone="no"?><!DOCTYPE svg PUBLIC "-//W3C//DTD SVG 1.1//EN" "http://www.w3.org/Graphics/SVG/1.1/DTD/svg11.dtd"><svg t="1783222079893" class="icon" viewBox="0 0 2517 1024" version="1.1" xmlns="http://www.w3.org/2000/svg" p-id="17501" xmlns:xlink="http://www.w3.org/1999/xlink" width="39.328125" height="16"><path d="M977.536 344.789333l22.656-96.768h-601.6l-10.922667 96.768h112.341334c60.757333 0 87.296 21.077333 79.701333 63.274667l-2.56 29.696-205.184 0.341333-21.930667 100.693334 114.048-0.298667c60.8 0 87.509333 19.754667 80.426667 59.178667l-12.202667 72.746666-213.461333 0.298667-22.698667 125.525333 428.629334-0.213333h198.912v-221.141333h-154.965334l-1.706666 95.530666H666.026667l22.826666-131.925333h239.530667l21.930667-100.693333h-239.616l14.08-93.013334h252.714666z" fill="#005a96" p-id="17502"></path><path d="M1045.546667 247.04l-106.965334 605.781333-706.773333-1.749333 122.453333-678.826667 599.978667 0.682667h307.626667l25.130666-134.4H364.032c-121.429333 0-191.317333 50.730667-209.621333 152.106667L35.242667 851.072 23.466667 916.437333l-12.373334 68.352h1099.050667l137.898667-737.706666h-202.453334zM2422.016 38.528H1941.418667l-24.192 134.4-0.042667 0.426667h361.898667l-117.76 206.165333-47.146667-132.437333h-188.501333l93.098666 371.242666-120.746666 204.202667c-8.277333 14.933333-20.906667 25.173333-37.845334 30.592h-99.498666c-26.325333 0-41.301333-10.197333-44.8-30.592l-56.533334-224.64 209.28-408.234667c39.978667-84.394667 21.12-134.741333-56.618666-151.125333h-406.272l-24.277334 134.4-0.042666 0.426667h297.216l-84.266667 173.482666-39.381333-99.754666H1366.186667l95.445333 356.949333-223.488 381.781333h198.912l82.474667-151.04 23.936 79.616c7.936 48.981333 40.618667 73.472 98.176 73.472h252.885333c71.936 0 128.426667-34.005333 169.472-102.101333l43.008-59.178667 60.757333 161.28h201.386667l-136.576-391.978666 242.474667-406.229334c45.866667-81.706667 28.16-132.010667-53.077334-151.125333" fill="#005a96" p-id="17503"></path></svg>