<?xml version="1.0" standalone="no"?><!DOCTYPE svg PUBLIC "-//W3C//DTD SVG 1.1//EN" "http://www.w3.org/Graphics/SVG/1.1/DTD/svg11.dtd"><svg t="1783051349460" class="icon" viewBox="0 0 1024 1024" version="1.1" xmlns="http://www.w3.org/2000/svg" p-id="6087" xmlns:xlink="http://www.w3.org/1999/xlink" width="16" height="16"><path d="M721.836973 648.994595h-81.366487a187.225946 187.225946 0 0 1-127.501837 49.816216c-103.576216 0-187.544216-83.635892-187.544217-186.810811 0-103.161081 83.968-186.810811 187.544217-186.810811 92.921081 0 170.067027 67.321081 184.95654 155.675676H761.081081C745.707243 357.984865 640.484324 262.918919 512.968649 262.918919 374.867027 262.918919 262.918919 374.451892 262.918919 512s111.948108 249.081081 250.04973 249.081081a250.04973 250.04973 0 0 0 208.868324-112.086486z m139.111784 0C806.20627 787.566703 670.899892 885.621622 512.650378 885.621622 305.926919 885.621622 138.378378 718.349838 138.378378 512c0-206.336 167.576216-373.621622 374.258163-373.621622C708.857081 138.378378 869.777297 289.08627 885.621622 480.864865h-62.630054c-15.636757-157.336216-148.618378-280.216216-310.355027-280.216216C340.410811 200.648649 200.759351 340.023351 200.759351 512s139.637622 311.351351 311.87719 311.351351c123.018378 0 229.403676-71.084973 280.160864-174.356756h68.151352zM512.304432 1010.162162C779.236324 1010.162162 997.18227 800.44973 1010.162162 536.908108H569.427027a62.325622 62.325622 0 0 1-57.122595 37.362162 62.284108 62.284108 0 1 1 0-124.54054c23.067676 0 43.20173 12.523243 53.967568 31.135135h66.726054A124.665081 124.665081 0 0 0 512.304432 387.459459c-68.815568 0-124.60973 55.752649-124.609729 124.540541 0 68.774054 55.794162 124.540541 124.609729 124.540541a124.360649 124.360649 0 0 0 94.706163-43.58919H940.972973C902.988108 794.997622 725.504 947.891892 512.304432 947.891892 271.429189 947.891892 76.149622 752.723027 76.149622 512c0-240.736865 195.279568-435.891892 436.15481-435.891892 230.4 0 419.092757 178.549622 435.061622 404.756757h62.450162C993.736649 220.215351 777.132973 13.837838 512.304432 13.837838 237.000649 13.837838 13.837838 236.86227 13.837838 512c0 275.123892 223.162811 498.162162 498.466594 498.162162z" fill="#8322FF" p-id="6088"></path></svg>