<?xml version="1.0" standalone="no"?><!DOCTYPE svg PUBLIC "-//W3C//DTD SVG 1.1//EN" "http://www.w3.org/Graphics/SVG/1.1/DTD/svg11.dtd"><svg t="1783178452616" class="icon" viewBox="0 0 1024 1024" version="1.1" xmlns="http://www.w3.org/2000/svg" p-id="57075" xmlns:xlink="http://www.w3.org/1999/xlink" width="16" height="16"><path d="M356.096 581.632a115.925333 115.925333 0 0 0-46.592 24.064 46.848 46.848 0 0 0-16.384 49.664c2.816 11.264 0 16.384-13.056 16.384-64 0-128 0-192.512-2.816a14.08 14.08 0 0 1-13.824-11.264 43.776 43.776 0 0 1 6.912-46.848 51.2 51.2 0 0 1 51.2-19.968c19.456 4.096 38.656 10.24 57.856 15.872 6.826667 2.048 14.165333 2.048 20.992 0a25.6 25.6 0 0 0 19.712-17.92c3.328-9.984-4.096-14.592-10.24-18.688a161.792 161.792 0 0 1-63.488-82.176A147.2 147.2 0 0 1 276.48 297.984a366.933333 366.933333 0 0 0 56.32-6.4c7.424 0 16.64-2.304 14.848-13.056-1.792-10.752-10.752-9.984-18.688-8.448a206.634667 206.634667 0 0 1-35.584 0A42.496 42.496 0 0 1 259.584 256 24.064 24.064 0 0 1 256 226.048c4.053333-8.789333 6.485333-18.261333 7.168-27.904a70.656 70.656 0 0 0 76.8 13.056c21.504-6.656 23.808-19.2 9.728-36.864a46.592 46.592 0 0 0-64-16.128h-1.792c-4.608 3.84-9.728 7.68-8.448 14.592 1.28 6.912-3.84 9.728-9.728 6.656a126.464 126.464 0 0 1-47.36-45.824c-5.632-11.264-5.12-22.784 8.448-25.6A702.933333 702.933333 0 0 1 366.848 64h46.848a27.904 27.904 0 0 0 27.136-11.008c5.376-9.472-2.56-15.104-6.656-21.504C430.08 25.088 428.544 17.92 435.2 12.8a19.712 19.712 0 0 1 25.6 0 35.626667 35.626667 0 0 1 11.52 35.328 60.416 60.416 0 0 0 15.872 57.088 130.816 130.816 0 0 1-10.24 184.576l-8.448 6.912a193.536 193.536 0 0 1-105.472 37.888c-20.053333 1.536-39.850667 5.12-59.136 10.752a93.184 93.184 0 0 0-69.12 93.184 89.856 89.856 0 0 0 71.424 88.32c5.12 2.816 10.24 0 14.592 0a16.384 16.384 0 0 1-7.68-3.584A84.224 84.224 0 0 1 267.52 418.56a93.44 93.44 0 0 1 81.152-61.696l58.112-3.584A164.608 164.608 0 0 0 537.6 221.44a211.968 211.968 0 0 0 0-31.232c0-4.352 0-11.264 4.096-12.544 4.096-1.28 7.936 5.12 10.24 8.704a157.952 157.952 0 0 1 5.12 173.312 147.2 147.2 0 0 1-162.304 70.144 112.64 112.64 0 0 0-40.192-4.864 25.6 25.6 0 0 0-22.528 25.6 25.6 25.6 0 0 0 25.6 23.296 15.616 15.616 0 0 0 16.896-12.032 11.52 11.52 0 0 0-10.496-13.568c-7.424-2.048-8.704-4.352-6.4-10.24a8.96 8.96 0 0 1 11.008-6.144c5.418667 0.853333 10.496 3.242667 14.592 6.912a33.28 33.28 0 0 0 25.6 12.544c13.056 0 13.568 13.056 13.568 22.528a106.752 106.752 0 0 1-51.2 98.048 28.416 28.416 0 0 1-15.104 9.728zM826.325333 859.392a324.522667 324.522667 0 0 1-72.704 68.608 428.117333 428.117333 0 0 1-627.712-145.152l-8.448-17.408A32 32 0 0 1 128 721.664a30.72 30.72 0 0 1 43.008 7.168c1.578667 2.133333 2.858667 4.437333 3.84 6.912a691.2 691.2 0 0 0 49.408 72.192A399.658667 399.658667 0 0 0 512 957.952a428.544 428.544 0 0 0 284.928-79.36l25.6-15.872 3.84-3.328zM548.565333 115.456A274.176 274.176 0 0 1 667.093333 128a420.096 420.096 0 0 1 260.096 233.472c9.984 20.992 2.816 38.912-16.128 42.496a28.928 28.928 0 0 1-33.28-22.272 373.504 373.504 0 0 0-176.128-214.016 422.912 422.912 0 0 0-146.944-51.2l-6.144-1.024z" fill="#F5992B" p-id="57076"></path><path d="M376.32 574.976a43.264 43.264 0 0 1 43.008 16.896 30.72 30.72 0 0 0 23.296 10.24 39.936 39.936 0 0 1 17.664 2.816 37.632 37.632 0 0 1-40.704 12.032c-5.888 0-13.056-6.4-16.64 2.304a16.64 16.64 0 0 0 6.144 18.688c2.176 2.389333 4.693333 4.437333 7.424 6.144a11.52 11.52 0 0 1 4.608 13.056c0 5.632-6.912 6.144-11.776 6.144H340.736c-10.24 0-18.688-4.352-17.152-16.384 1.536-12.032 10.24-12.544 19.456-10.24 9.216 2.304 15.104 0 10.752-13.056a39.68 39.68 0 0 1 5.632-38.4 19.968 19.968 0 0 1 16.896-10.24z" fill="#F5992B" p-id="57077"></path><path d="M906.24 515.328a51.2 51.2 0 0 0-54.570667 12.032 46.592 46.592 0 0 0-6.912 48.896c3.84 8.192 9.728 14.08 19.2 9.472 9.472-4.608 6.144-11.776 0-18.688a15.616 15.616 0 0 1 1.792-21.76 18.730667 18.730667 0 0 1 7.936-3.584 25.6 25.6 0 0 1 31.232 11.776 46.336 46.336 0 0 1-12.544 64.768 40.789333 40.789333 0 0 1-13.056 6.144 62.464 62.464 0 0 1-78.336-55.552c-4.096-20.992-6.912-43.008-10.24-64.256a149.76 149.76 0 0 0-163.84-134.656 140.8 140.8 0 0 0-27.136 5.12c-11.52 3.285333-23.594667 4.394667-35.584 3.328-3.584 0-8.448 0-10.24 2.304-1.792 2.304 0 7.936 4.608 11.264 12.8 14.848 29.952 13.568 46.848 14.848a80.896 80.896 0 1 1 0 161.536h-8.448a76.8 76.8 0 0 1-71.936-69.632 28.416 28.416 0 0 1 19.712-29.952 25.6 25.6 0 0 1 28.16 20.736c0.170667 0.426667 0.170667 0.853333 0 1.28 2.816 12.544 7.424 22.272 22.528 18.688 15.104-3.584 14.848-15.36 9.728-29.952a64.298667 64.298667 0 0 0-99.072-27.648 93.44 93.44 0 0 0-19.968 128c7.637333 10.581333 16.213333 20.437333 25.6 29.44 7.168 6.656 5.632 9.728-3.584 13.056a70.186667 70.186667 0 0 1-37.12 0 33.536 33.536 0 0 0-39.936 16.896c-8.448 16.64 0 35.328 16.64 35.072 58.88 0 117.76 3.584 176.128 0a25.6 25.6 0 0 0 17.664-7.168 53.76 53.76 0 0 1 42.496-62.976c-15.872 15.872-23.296 29.952 0 43.008-7.936 5.632-13.056 0-18.688 0-14.336-5.632-17.664-2.816-16.384 13.824 5.034667 2.986667 10.794667 4.565333 16.64 4.608h76.8c17.408 0 17.664 0 9.472-15.872a65.450667 65.450667 0 0 0-3.328-5.632c-2.816-5.632-5.632-12.544 0-16.64 5.632-4.096 9.728 0 14.08 4.608 21.76 16.512 46.08 29.312 71.936 37.888a87.04 87.04 0 0 0 112.64-48.64c3.541333-9.002667 5.717333-18.517333 6.4-28.16a71.936 71.936 0 0 0-47.36-77.824zM332.8 779.52h-24.32l-6.144 19.712H291.84l23.296-69.632h12.544l23.296 69.632h-11.52L332.8 779.52z m-2.304-8.96l-2.816-9.216-6.912-23.296c-2.56 7.936-4.352 15.872-6.656 23.296l-2.816 9.216h19.2zM358.4 748.8h9.472v5.632a25.6 25.6 0 0 1 15.872-7.168c13.568 0 20.992 10.24 20.992 25.6a25.6 25.6 0 0 1-23.04 28.16 21.504 21.504 0 0 1-13.568-6.144v25.6H358.4v-71.68z m35.584 25.6c0-10.752-3.328-17.664-12.288-17.664a18.688 18.688 0 0 0-12.032 6.4v25.6a17.92 17.92 0 0 0 11.264 4.608c6.912-1.536 12.544-8.448 12.544-20.48l0.512 1.536zM414.421333 785.664c0-11.264 9.472-17.408 31.488-19.712 0-6.144-2.304-11.264-10.24-11.264a34.304 34.304 0 0 0-15.104 5.12l-4.096-7.424c6.357333-3.925333 13.568-6.101333 20.992-6.4 13.056 0 19.2 8.448 19.2 21.76v31.488h-8.96V793.6a27.648 27.648 0 0 1-16.384 6.912 14.592 14.592 0 0 1-16.64-12.032 9.472 9.472 0 0 1-0.256-2.816z m31.488 0v-13.056c-15.616 0-20.992 5.888-20.992 11.52s3.584 7.424 8.192 7.424c4.821333 0 9.386667-1.962667 12.8-5.376v-0.512zM468.266667 773.376a25.6 25.6 0 0 1 23.808-27.392h2.304c5.589333 0 11.008 2.090667 15.104 5.888l-5.12 7.168a14.890667 14.890667 0 0 0-9.472-4.352 16.64 16.64 0 0 0-15.36 18.688c0 11.264 6.144 18.176 14.848 18.176a15.36 15.36 0 0 0 11.264-4.608l4.608 7.168a25.6 25.6 0 0 1-16.64 6.4 25.6 25.6 0 0 1-25.6-24.064l0.256-3.072zM520.96 723.968h10.794667v30.464a22.784 22.784 0 0 1 16.896-8.448c11.264 0 15.872 7.424 15.872 20.48v32.768h-10.752V768c0-8.704-2.816-12.544-8.96-12.544a17.408 17.408 0 0 0-13.056 7.168v36.864h-10.752v-75.52zM576.256 773.376a25.6 25.6 0 0 1 22.528-27.392h1.28c13.824 0 21.504 9.728 21.504 25.6a20.736 20.736 0 0 1 0 5.632h-34.304a16.384 16.384 0 0 0 16.384 15.872 21.504 21.504 0 0 0 12.544-4.096l3.84 6.912a30.72 30.72 0 0 1-17.664 5.632 25.6 25.6 0 0 1-25.6-24.064 12.544 12.544 0 0 1-0.512-4.096z m35.84-4.608c0-9.216-4.096-14.336-11.776-14.336a13.866667 13.866667 0 0 0-13.312 14.336h25.088zM656.085333 729.6h11.008v33.024l25.6-33.024h12.288l-21.504 27.136 25.6 42.496h-12.032l-20.224-34.304-10.24 13.312v20.992h-11.008l0.512-69.632zM738.304 802.304c-3.84 11.264-9.472 18.688-20.736 18.688h-6.4v-8.192h3.584c5.632 0 8.96-4.352 10.752-9.984v-3.328l-17.152-51.2h11.264l9.728 25.6c0.768 5.12 2.304 10.154667 4.608 14.848l4.352-14.848 8.704-25.6h10.24l-18.944 54.016zM768 786.944v-62.976h12.544v75.52h-5.632c-4.864 1.024-6.912-4.096-6.912-12.544zM793.6 730.88a6.4 6.4 0 0 1 6.4-6.4 6.656 6.656 0 0 1 6.656 6.4 6.656 6.656 0 0 1-6.656 6.656 6.656 6.656 0 0 1-6.912-6.144l0.512-0.512z m0 16.384h10.752v51.2H793.6v-51.2zM822.272 748.8h9.216v6.912a25.6 25.6 0 0 1 17.408-8.448c11.264 0 15.872 7.424 15.872 20.48v32.768h-10.752v-31.232c0-8.96-2.816-12.544-8.96-12.544a16.896 16.896 0 0 0-12.544 6.912v36.864h-11.264l1.024-51.712zM878.378667 724.48h-5.12v-4.352h18.176v4.352h-6.656v19.456h-5.12l-1.28-19.456zM893.653333 720.128h5.12l4.352 11.264 4.096-11.264h5.12v23.808h-4.096v-17.664 5.632l-3.84 9.728h-2.816l-3.84-9.728v-5.632 17.664h-4.096v-23.808z" fill="#F5992B" p-id="57078"></path></svg>