<?xml version="1.0" standalone="no"?><!DOCTYPE svg PUBLIC "-//W3C//DTD SVG 1.1//EN" "http://www.w3.org/Graphics/SVG/1.1/DTD/svg11.dtd"><svg t="1782976029482" class="icon" viewBox="0 0 1024 1024" version="1.1" xmlns="http://www.w3.org/2000/svg" p-id="5656" xmlns:xlink="http://www.w3.org/1999/xlink" width="16" height="16"><path d="M391.168 413.696v4.096a46.976 46.976 0 0 1-13.312 27.648 40.576 40.576 0 0 1-23.552 12.288c-1.024 0-2.048 0-4.096 1.024H67.584c-25.6 0-46.08-20.48-46.08-46.08a49.28 49.28 0 0 1 13.312-32.768 45.568 45.568 0 0 1 32.768-13.312H266.24L166.912 194.56a46.272 46.272 0 0 1 16.384-62.464 46.72 46.72 0 0 1 22.528-6.144c15.36 0 30.72 8.192 39.936 22.528l135.168 233.472 4.096 8.192a50.56 50.56 0 0 1 6.144 23.552z m138.24-53.248q-1.024 0-2.048 1.024t-2.048 1.024a45.504 45.504 0 0 1-30.72 2.048 44.8 44.8 0 0 1-22.528-14.336c-1.024 0-1.024-1.024-2.048-2.048s-1.024-2.048-2.048-3.072l-1.024-1.024-138.24-240.64A45.376 45.376 0 0 1 345.088 40.96a46.464 46.464 0 0 1 62.464 17.408L506.88 230.4 606.208 58.368a45.376 45.376 0 0 1 62.464-16.384c7.168 4.096 13.312 10.24 16.384 16.384a46.208 46.208 0 0 1 0 46.08L549.888 336.896l-4.096 8.192a39.552 39.552 0 0 1-16.384 15.36z m115.712 93.184c-1.024 0-1.024-1.024-2.048-1.024q-1.024 0-1.024-1.024a44.672 44.672 0 0 1-17.408-25.6 47.232 47.232 0 0 1 1.024-26.624c0-1.024 1.024-2.048 1.024-4.096 0-1.024 1.024-2.048 2.048-3.072q0-1.024 1.024-1.024l139.264-240.64a45.376 45.376 0 0 1 62.464-16.384 44.352 44.352 0 0 1 21.504 27.648 42.624 42.624 0 0 1-5.12 34.816L747.52 367.616h198.656a45.888 45.888 0 0 1 39.936 68.608 46.464 46.464 0 0 1-39.936 22.528h-278.528a52.16 52.16 0 0 1-22.528-5.12z m-253.952 143.36v-4.096a46.976 46.976 0 0 0-13.312-27.648 40.576 40.576 0 0 0-23.552-12.288c-1.024 0-2.048 0-4.096-1.024H67.584c-25.6 0-46.08 20.48-46.08 46.08 0 12.288 5.12 23.552 13.312 32.768a45.568 45.568 0 0 0 32.768 13.312H266.24l-99.328 172.032a46.272 46.272 0 0 0 16.384 62.464 46.72 46.72 0 0 0 22.528 6.144c15.36 0 30.72-8.192 39.936-22.528l135.168-233.472 4.096-8.192a57.472 57.472 0 0 0 6.144-23.552z m138.24 52.224q-1.024 0-2.048-1.024t-2.048-1.024a45.504 45.504 0 0 0-30.72-2.048 44.8 44.8 0 0 0-22.528 14.336c-1.024 1.024-2.048 2.048-2.048 3.072-1.024 1.024-1.024 2.048-2.048 3.072l-1.024 1.024-138.24 239.616a46.272 46.272 0 0 0 16.384 62.464 46.464 46.464 0 0 0 62.464-17.408l99.328-172.032 99.328 173.056c12.288 21.504 40.96 29.696 62.464 16.384a41.92 41.92 0 0 0 16.384-16.384 46.208 46.208 0 0 0 0-46.08l-135.168-233.472-4.096-7.168a41.984 41.984 0 0 0-16.384-16.384z m115.712-92.16c-1.024 0-1.024 1.024-2.048 1.024q-1.024 0-1.024 1.024a44.672 44.672 0 0 0-17.408 25.6 47.232 47.232 0 0 0 1.024 26.624c0 1.024 1.024 2.048 1.024 4.096 0 1.024 1.024 2.048 2.048 3.072q0 1.024 1.024 1.024l137.216 240.64c12.288 21.504 40.96 29.696 62.464 16.384a44.352 44.352 0 0 0 21.504-27.648 42.624 42.624 0 0 0-5.12-34.816l-98.304-172.032h198.656a45.888 45.888 0 0 0 39.936-68.608 46.464 46.464 0 0 0-39.936-22.528h-278.528a41.28 41.28 0 0 0-22.528 6.144z" fill="#FE9500" p-id="5657"></path></svg>