<?xml version="1.0" standalone="no"?><!DOCTYPE svg PUBLIC "-//W3C//DTD SVG 1.1//EN" "http://www.w3.org/Graphics/SVG/1.1/DTD/svg11.dtd"><svg t="1783190575914" class="icon" viewBox="0 0 1024 1024" version="1.1" xmlns="http://www.w3.org/2000/svg" p-id="10170" xmlns:xlink="http://www.w3.org/1999/xlink" width="16" height="16"><path d="M471.243781 473.791045c-84.059701 25.472637-135.004975 257.273632 12.736319 320.955224h333.691542c50.945274-7.641791 48.39801-104.437811 0-101.890548h-201.233831c-73.870647-2.547264-76.41791-124.81592 0-129.910447h211.422886c178.308458 5.094527 170.666667 348.975124 17.830845 366.80597H471.243781c-15.283582 0-50.945274-15.283582-68.776119-30.567164-198.686567-152.835821-145.19403-430.487562-2.547264-529.830846 15.283582-10.189055 35.661692-30.567164 76.41791-33.114428H1018.905473V180.855721c0-99.343284-81.512438-180.855721-180.855722-180.855721H180.855721C81.512438 0 0 81.512438 0 180.855721v662.288558c0 99.343284 81.512438 180.855721 180.855721 180.855721h654.646767c99.343284 0 180.855721-81.512438 180.855721-180.855721V473.791045H471.243781zM295.482587 132.457711c0-15.283582 10.189055-25.472637 22.925373-25.472636h613.890547c12.736318 0 22.925373 12.736318 22.925374 25.472636v86.606966c0 15.283582-10.189055 25.472637-22.925374 25.472636H318.40796c-12.736318 0-22.925373-12.736318-22.925373-25.472636V132.457711zM94.248756 473.791045c-68.776119-10.189055-61.134328-124.81592 0-132.457712h252.179105c-45.850746 28.0199-78.965174 71.323383-99.343284 135.004975l-152.835821-2.547263z" fill="#0060AA" p-id="10171"></path></svg>