<?xml version="1.0" standalone="no"?><!DOCTYPE svg PUBLIC "-//W3C//DTD SVG 1.1//EN" "http://www.w3.org/Graphics/SVG/1.1/DTD/svg11.dtd">
<svg t="1782927947196" class="icon" viewBox="0 0 1088 1024" version="1.1" xmlns="http://www.w3.org/2000/svg" p-id="33915" xmlns:xlink="http://www.w3.org/1999/xlink" width="16" height="16">
    <path d="M933.248 246.72c23.936-9.216 50.624 3.712 57.088 27.648 6.4 23.936-10.112 52.48-34.048 58.88-29.44 5.504-57.088-12.864-85.632 1.856-28.544 15.616-36.8 47.872-43.264 76.352-12.864 46.08-78.208 67.2-111.36 38.656-30.336-22.08-31.296-71.744-1.856-101.184 20.288-23.04 54.336-30.4 81.024-18.432 24.832 11.008 55.232 15.616 79.168-3.712 28.544-22.08 21.12-68.096 58.88-80zM378.24 163.008c38.656-20.288 87.488 13.76 75.52 56.128-12.928 49.728-6.464 105.856 26.688 142.656 31.296 36.8 90.24 44.16 134.4 17.472 34.048-19.328 55.168-53.376 68.096-88.32 9.152-28.544 5.504-57.088 10.112-85.632 9.216-34.944 53.376-55.232 83.712-38.656 29.44 12.928 36.864 54.336 15.68 81.024-12.864 20.224-38.656 24.832-57.984 34.944a183.488 183.488 0 0 0-77.312 79.168c-11.072 19.328-10.112 41.408-15.68 61.696-8.256 17.472-27.584 24.832-44.16 26.688a201.6 201.6 0 0 0-119.68 61.632c-15.616 15.68-28.48 38.656-51.52 38.656-24.832-1.856-43.264-23.936-68.096-24.832-45.12-6.4-93.888 6.4-132.48 36.8-34.112 28.544-86.592 7.36-88.384-34.048-8.32-46.912 57.024-87.424 92.928-57.088a159.872 159.872 0 0 0 155.52 34.048c51.584-17.472 89.28-76.352 79.168-128.832a147.392 147.392 0 0 0-79.168-104.96c-15.616-7.296-33.088-14.72-38.656-32.192-13.76-25.728 1.92-62.592 31.36-76.352zM353.408 81.92a23.552 23.552 0 0 1 30.4 31.36c-5.568 19.328-34.048 24.832-44.16 10.112-12.032-13.824-2.816-36.8 13.76-41.408zM68.992 476.8c20.288-7.36 38.656 11.072 30.4 31.36-5.504 19.264-34.048 24.832-44.16 9.152-12.928-11.968-3.712-35.84 13.76-40.512zM817.28 84.736c20.288-6.4 38.656 11.968 30.4 32.192-5.504 18.432-34.048 24.896-44.16 9.216-11.968-13.76-3.712-35.84 13.76-41.408z"
          fill="#9E2878" p-id="33916"></path>
    <path d="M130.688 282.624c3.648-34.048 50.56-54.336 74.56-33.152 17.472 10.112 14.72 33.152 20.224 49.728a49.28 49.28 0 0 0 47.872 39.552c29.44 2.752 58.88-21.12 87.424-11.072 44.16 11.072 59.84 69.056 29.44 105.856-26.688 37.76-85.568 41.408-110.4 6.4-22.08-25.728-4.608-65.28-24.896-92.928-15.616-26.688-49.664-24.832-76.352-17.472-27.648 9.216-53.376-19.328-47.872-46.912zM565.12 27.712c30.336-17.536 68.992 8.256 61.632 42.304 0 21.12-20.224 33.152-32.192 47.872-17.472 17.472-21.12 45.12-11.072 64.448 11.968 26.688 45.12 36.8 50.624 66.24 11.072 44.16-30.336 92.928-75.456 90.24-44.16 0.896-76.416-46.08-57.984-87.488 11.072-34.944 53.376-45.12 66.304-78.208 15.616-29.44-3.712-56.192-22.144-74.56-17.472-19.328-6.4-57.984 20.288-70.848zM152.768 777.792c-23.936 9.216-50.624-3.712-57.088-27.584-6.4-23.936 10.176-52.48 34.048-58.88 29.44-5.568 57.088 12.8 85.632-1.92 28.544-14.72 36.8-46.912 43.264-75.456 12.864-46.016 78.208-67.2 111.36-38.656 30.4 22.08 31.296 71.808 1.856 100.352-20.288 23.04-54.336 30.336-81.024 18.368-24.832-11.008-55.232-15.616-79.168 3.712-30.336 20.224-23.04 68.096-58.88 80.064zM705.92 860.608c-38.656 20.288-87.424-13.76-75.52-55.232 12.928-49.664 6.528-106.752-26.624-143.552-31.36-36.8-90.24-43.264-134.4-17.472-34.048 18.368-55.232 52.48-68.096 87.424-9.216 28.544-5.504 57.088-10.112 85.568-9.216 35.008-53.376 55.232-83.776 39.616-29.44-12.928-36.8-54.336-15.616-81.92 12.864-20.288 38.656-24.832 57.984-35.008a183.488 183.488 0 0 0 77.312-79.168c11.008-18.368 10.112-41.408 15.616-60.736 8.32-17.472 27.648-24.832 44.16-26.688a201.6 201.6 0 0 0 119.68-61.632c15.68-14.72 28.544-38.656 51.52-37.76 24.896 0.96 43.264 23.04 68.16 24.832a184.64 184.64 0 0 0 132.48-36.8c34.112-29.44 86.528-8.32 88.384 33.152 8.32 46.912-57.088 87.424-92.928 57.088a159.872 159.872 0 0 0-155.52-34.112c-51.584 17.536-89.344 76.416-79.232 128.896 8.32 44.16 38.656 85.568 79.168 104 15.68 7.36 33.152 14.72 38.656 32.192 15.68 25.792-0.896 64.448-31.296 77.312zM731.712 942.528a23.552 23.552 0 0 1-30.4-31.296c5.568-19.328 34.048-24.832 44.16-10.112 12.032 12.864 2.816 35.84-13.76 41.408zM1017.024 547.712c-20.224 6.4-38.656-11.968-30.4-32.192 5.568-19.328 34.048-24.896 44.16-9.216 12.928 13.76 3.712 35.84-13.76 41.408zM267.84 938.88c-20.288 6.4-38.656-11.968-30.4-32.256 5.504-18.368 34.048-24.832 44.16-9.152 11.968 12.864 2.816 36.8-13.76 41.408z"
          fill="#9E2878" p-id="33917"></path>
    <path d="M954.432 740.032c-3.648 34.112-50.56 54.336-74.56 33.152-17.472-10.112-14.72-33.152-20.224-49.664a49.28 49.28 0 0 0-47.872-39.616c-29.44-2.752-58.88 21.184-87.424 11.072-44.16-11.072-59.84-69.056-29.44-105.856 26.688-37.76 85.568-41.408 110.4-6.4 22.08 25.728 4.608 64.384 24.896 91.968 15.616 26.752 49.664 24.896 76.352 17.536 28.544-7.36 54.336 20.224 47.872 47.808zM519.04 995.968c-30.336 18.368-68.992-8.32-61.632-42.368 0-21.12 20.224-33.152 32.192-47.872 17.536-17.472 21.184-45.056 11.072-64.384-11.968-26.752-45.12-36.864-50.624-66.304-11.072-44.16 30.4-92.928 75.52-90.24 44.16-0.896 76.352 46.08 57.92 88.384-11.008 34.048-53.376 44.16-66.24 77.312-15.68 29.44 3.648 56.192 22.08 75.52 18.432 18.368 7.36 57.024-20.224 69.952z"
          fill="#9E2878" p-id="33918"></path>
</svg>
