<?xml version="1.0" standalone="no"?><!DOCTYPE svg PUBLIC "-//W3C//DTD SVG 1.1//EN" "http://www.w3.org/Graphics/SVG/1.1/DTD/svg11.dtd">
<svg t="1783054851584" class="icon" viewBox="0 0 1088 1024" version="1.1" xmlns="http://www.w3.org/2000/svg" p-id="7087" xmlns:xlink="http://www.w3.org/1999/xlink" width="16" height="16">
    <path d="M455.872 128h225.664v47.168H455.872V128zM351.36 218.944h437.888v47.168H351.424V218.88zM193.088 306.56h390.784v47.168H193.088V306.56z m441.28 0h313.28v47.168H634.368V306.56zM405.312 400.832h330.112V448H405.312v-47.168zM297.6 488.448h549.056v47.104H297.536v-47.104z m-212.224 90.88h623.168v47.168H85.312v-47.104z m670.336 0h296.448v47.168h-296.448v-47.104z m-505.28 91.008h636.672v47.104H250.368v-47.104z" fill="#EB6100" p-id="7088"></path>
    <path d="M506.368 693.888h128V896h-128v-202.112z" fill="#EB6100" p-id="7089"></path>
</svg>
