<?xml version="1.0" standalone="no"?><!DOCTYPE svg PUBLIC "-//W3C//DTD SVG 1.1//EN" "http://www.w3.org/Graphics/SVG/1.1/DTD/svg11.dtd"><svg t="1782907537824" class="icon" viewBox="0 0 1024 1024" version="1.1" xmlns="http://www.w3.org/2000/svg" p-id="25138" xmlns:xlink="http://www.w3.org/1999/xlink" width="16" height="16"><path d="M351.852606 673.776485l167.827394-204.551758v143.049697h111.398788l165.732848-206.661818h-95.26303l-102.136242 134.081939L605.990788 248.242424 374.535758 517.011394l11.35709-111.398788-89.6-4.468364-19.393939 205.451637a352.969697 352.969697 0 0 0 74.938182 67.180606z m-77.637818-42.092606l-15.515152 155.570424 80.911516-98.536727a379.857455 379.857455 0 0 1-65.396364-57.033697z" fill="#A71E23" p-id="25139"></path><path d="M235.101091 395.465697c35.529697-73.464242 129.008485-109.893818 238.902303-92.578909 15.36-1.458424 30.502788-4.763152 45.08703-9.852121l-9.852121-2.684122a411.508364 411.508364 0 0 0-32.256-6.578424c-117.651394-18.509576-219.492848 22.109091-258.606545 103.330909-36.739879 75.558788-10.752 169.316848 57.933575 244.580849l0.589576-25.088c-54.939152-68.096-74.348606-146.928485-41.797818-211.130182zM763.966061 563.587879a149.317818 149.317818 0 0 1-14.041213 81.532121c-48.67103 100.926061-204.25697 127.224242-346.701575 58.228364a410.608485 410.608485 0 0 1-51.355152-29.866667l-12.256969 14.941091c17.532121 12.101818 36.010667 22.791758 55.249454 31.961212a385.520485 385.520485 0 0 0 168.727273 40.603152c91.67903 0 170.511515-37.624242 204.256969-107.52 18.416485-39.873939 21.721212-85.085091 9.262546-127.208728a281.305212 281.305212 0 0 0-13.141333 37.329455z" fill="#A71E23" p-id="25140"></path><path d="M276.898909 606.595879l-2.684121 26.282666a379.857455 379.857455 0 0 0 65.396364 57.033697l12.256969-14.94109a352.969697 352.969697 0 0 1-74.969212-68.375273z" fill="#A71E23" p-id="25141"></path></svg>